<svg id="Layer_1" data-name="Layer 1" xmlns="http://www.w3.org/2000/svg" viewBox="0 0 162.04 164.58"><defs><style>.cls-1{fill:#34495e;}.cls-2{fill:#fff;}.cls-3{fill:#8f8f8f;}.cls-4{fill:#c9c9c9;}.cls-5{fill:none;stroke:#fff;stroke-linecap:round;stroke-linejoin:round;stroke-dasharray:8;}</style></defs><title>airplane</title><path class="cls-1" d="M637.11,2061.06c-0.46-45.45,35.44-82.65,80.18-83.11s81.39,36,81.85,81.47-35.44,82.65-80.19,83.1-81.39-36-81.85-81.46" transform="translate(-637.1 -1977.95)"/><polygon class="cls-2" points="73.05 85.76 51.34 76.72 140.7 51.2 118.61 98.77 91.67 91.12 74.31 107.45 73.05 85.76"/><polygon class="cls-3" points="73.05 85.76 74.31 107.45 91.67 91.12 84.23 88.76 73.05 85.76"/><polygon class="cls-4" points="74.31 107.45 84.67 87.94 140.7 51.2 73.05 85.76 74.31 107.45"/><path class="cls-5" d="M722.39,2089.87s-18.32,35.64-33.87,19.35-8.78-33.36,4-28.91,20.58,34.62-21.13,50.71" transform="translate(-637.1 -1977.95)"/></svg>