<svg id="Layer_1" data-name="Layer 1" xmlns="http://www.w3.org/2000/svg" viewBox="0 0 162.04 164.58"><defs><style>.cls-1{fill:#515587;}.cls-2{fill:#ad7f49;}.cls-3{fill:#916933;}.cls-4{fill:#232020;}.cls-5{fill:#2b3642;opacity:0.6;}.cls-6{fill:#c9c9c9;}.cls-7{fill:#dfdfdf;}.cls-8{fill:#fff;fill-rule:evenodd;}</style></defs><title>blackboard</title><path class="cls-1" d="M637.11,3136.6c-0.46-45.45,35.44-82.65,80.18-83.11s81.39,36,81.85,81.47-35.44,82.65-80.19,83.1-81.39-36-81.85-81.46" transform="translate(-637.1 -3053.49)"/><rect class="cls-2" x="37.53" y="37.69" width="91.78" height="86.38" rx="5.4" ry="5.4"/><rect class="cls-3" x="39.85" y="43.08" width="82.52" height="77.12"/><rect class="cls-4" x="43.97" y="44.08" width="78.9" height="73.59"/><rect class="cls-5" x="46.37" y="46.32" width="74.1" height="69.11"/><rect class="cls-6" x="87.57" y="109.31" width="27.57" height="5.98"/><rect class="cls-7" x="87.57" y="109.31" width="27.57" height="4.24"/><path class="cls-8" d="M716.21,3113.88c-3.83,10.44-2.87,18.6,6,25.93C712.52,3141.84,707.44,3118.88,716.21,3113.88Z" transform="translate(-637.1 -3053.49)"/><path class="cls-8" d="M700.41,3133.73c-0.94,0-.89-0.68-3.43.92-0.38-2.35,2.77-4.16,2.9-3.69,2-5-2.9-16.26,7.3-16.5-4.89,2.38-5.45,5.13-4.72,13.2,1.41,1.74,5.73-1.56,6.06,2-0.4.56,0.18,1.33-5.77,2.46,2.25,6.37,1.42,13.08-2.17,15.88C701.16,3144.32,702.11,3139.28,700.41,3133.73Z" transform="translate(-637.1 -3053.49)"/><path class="cls-8" d="M732.94,3111.23c12.14-2.85,14.52,19.28,4.72,24.45,2.6-4.29,6.88-13.62,2-19.83C738,3113.72,736.27,3113.29,732.94,3111.23Z" transform="translate(-637.1 -3053.49)"/><path class="cls-8" d="M726.11,3126.84c-0.93-.27-1.56-1.4-2.3-2-1.06-.88-2.12-1.43-2.74-3.07a8.24,8.24,0,0,1,6.06,2c1.6-1.25,1.83-3.29,4.45-3.95,0.62,2.53-1.11,3.71-2.28,5.2,1.75,2.4,4.7,2.73,6.12,5.71-3-.24-4.17-1.73-7.37-3.53-0.9,2.38-2.66,4.26-3.76,6.52C722.89,3133.13,725.78,3128.86,726.11,3126.84Z" transform="translate(-637.1 -3053.49)"/></svg>