<svg id="Layer_1" data-name="Layer 1" xmlns="http://www.w3.org/2000/svg" viewBox="0 0 162.04 164.58"><defs><style>.cls-1{fill:#82bed9;}.cls-2,.cls-5{fill:#4f4d52;}.cls-3{fill:#378fb5;}.cls-4{fill:#fff;}.cls-5{opacity:0.2;}.cls-6{fill:#ce593d;}.cls-7{fill:#3f9ec8;}.cls-8{fill:#ededed;}</style></defs><title>book</title><ellipse class="cls-1" cx="299.73" cy="1402.23" rx="81.02" ry="82.29" transform="translate(-234.04 -1316.57) rotate(-0.63)"/><rect class="cls-2" x="264.51" y="1363.3" width="73.5" height="91.8" transform="translate(-430.73 -1257.27) rotate(-8.8)"/><rect class="cls-3" x="279.8" y="1362.12" width="58.11" height="91.8" transform="translate(-430.45 -1256.13) rotate(-8.8)"/><rect class="cls-4" x="273.07" y="1441.33" width="70.78" height="10.97" transform="translate(-436.34 -1255.75) rotate(-8.8)"/><rect class="cls-5" x="272.5" y="1441.37" width="70.79" height="3.56" transform="matrix(0.99, -0.15, 0.15, 0.99, -435.82, -1255.86)"/><polygon class="cls-5" points="84.22 124.02 92.05 132.36 83 133.76 84.22 124.02"/><polygon class="cls-6" points="86.66 139.8 80.77 137.19 74.95 141.61 72.51 125.83 84.22 124.02 86.66 139.8"/><rect class="cls-7" x="262.51" y="1352.02" width="73.5" height="88.56" transform="translate(-428.75 -1257.74) rotate(-8.8)"/><rect class="cls-2" x="262.85" y="1356.49" width="15.06" height="88.56" transform="translate(-429.65 -1262.15) rotate(-8.79)"/><path class="cls-4" d="M287.56,1382.67A17,17,0,0,0,307,1396.88l-5.21-33.62A17,17,0,0,0,287.56,1382.67Z" transform="translate(-218.71 -1319.94)"/><path class="cls-8" d="M301.77,1363.26l5.21,33.62A17,17,0,1,0,301.77,1363.26Z" transform="translate(-218.71 -1319.94)"/><rect class="cls-4" x="295.07" y="1403.75" width="26.23" height="1.89" transform="matrix(0.99, -0.15, 0.15, 0.99, -429.92, -1256.28)"/><rect class="cls-4" x="295.91" y="1408.49" width="11.72" height="1.9" transform="translate(-430.67 -1257.22) rotate(-8.8)"/><rect class="cls-4" x="296.38" y="1410.92" width="27.85" height="1.9" transform="matrix(0.99, -0.15, 0.15, 0.99, -430.98, -1255.87)"/></svg>