<svg id="Layer_1" data-name="Layer 1" xmlns="http://www.w3.org/2000/svg" viewBox="0 0 162.04 164.58"><defs><style>.cls-1{fill:#e15d4a;}.cls-2{fill:#324e5d;}.cls-3{fill:#efaf4a;}.cls-4{fill:#efc849;}.cls-10,.cls-5,.cls-9{fill:none;stroke-linecap:round;}.cls-5{stroke:#324e5d;stroke-width:2px;}.cls-10,.cls-5{stroke-linejoin:round;}.cls-6{fill:#dedede;}.cls-7{fill:#c7c7c7;}.cls-8{opacity:0.18;}.cls-10,.cls-9{stroke:#fff;}.cls-9{stroke-width:1.6px;}.cls-10{stroke-width:3px;}</style></defs><title>bulb</title><ellipse class="cls-1" cx="709.34" cy="497.97" rx="81.02" ry="82.29" transform="translate(-633.32 -408.48) rotate(-0.58)"/><path class="cls-2" d="M715.74,549.56a2,2,0,0,1-2,2H707.1a2,2,0,0,1-2-2h0a2,2,0,0,1,2-2h6.67a2,2,0,0,1,2,2h0Z" transform="translate(-628.32 -415.68)"/><path class="cls-3" d="M736,491.88a25.56,25.56,0,0,0-25.6-25.53H710l0.12,82.37h5.17c4,0,7.31-3.61,7.3-8,0-12.45-1.57-20.89,5.26-29.78,0-.07,0-0.15,0-0.23A25.49,25.49,0,0,0,736,491.88Z" transform="translate(-628.32 -415.68)"/><path class="cls-4" d="M684.9,492a25.49,25.49,0,0,0,7.55,18.1l0,0.06c7.33,8.72,5.88,16,5.9,30.59,0,4.44,3.29,8,7.32,8h4.48L710,466.37A25.56,25.56,0,0,0,684.9,492Z" transform="translate(-628.32 -415.68)"/><polygon class="cls-5" points="80.92 114.4 76.88 84.49 82.26 87.73 90.13 84.85 85.8 114.39 80.92 114.4"/><path class="cls-6" d="M722.47,529.6l-24.05,0c0.07,3.33-.09,7.11-0.08,11.67a7.38,7.38,0,0,0,7.32,7.44h9.65a7.38,7.38,0,0,0,7.3-7.45C722.61,536.93,722.39,533.11,722.47,529.6Z" transform="translate(-628.32 -415.68)"/><path class="cls-7" d="M722.6,539.16c0-1,0-2-.07-2.95l-24.15,0c0,0.92,0,1.91,0,2.95Z" transform="translate(-628.32 -415.68)"/><path class="cls-6" d="M698.54,543a7.34,7.34,0,0,0,7.12,5.72h9.65a7.34,7.34,0,0,0,7.1-5.74Z" transform="translate(-628.32 -415.68)"/><path class="cls-7" d="M698.42,533.48l24.06,0c0-1.09,0-2.16,0-3.18l-24.05,0C698.45,531.31,698.44,532.36,698.42,533.48Z" transform="translate(-628.32 -415.68)"/><path class="cls-7" d="M721.86,544.46a6.44,6.44,0,0,0,.69-2.92h-24.2a4.86,4.86,0,0,0,.76,2.95Z" transform="translate(-628.32 -415.68)"/><path class="cls-8" d="M698.42,529.63l22.94,15.8a8.56,8.56,0,0,0,1.24-5.77L722.47,530Z" transform="translate(-628.32 -415.68)"/><path class="cls-9" d="M692.41,492.41s-2.05-13.56,10.6-17.86" transform="translate(-628.32 -415.68)"/><path class="cls-10" d="M680.77,519c-3.33,4.25-7.67-.07-10.24,4.76" transform="translate(-628.32 -415.68)"/><path class="cls-10" d="M677,498.58c-3.39-1.45-8.22.81-11.2-1.47" transform="translate(-628.32 -415.68)"/><path class="cls-10" d="M681.73,475.16c-3.53-.78-4.29-6.69-8.33-7.64" transform="translate(-628.32 -415.68)"/><path class="cls-10" d="M741.1,518.87c3.94,3.56,7.5-.32,10.26,4.74" transform="translate(-628.32 -415.68)"/><path class="cls-10" d="M744.85,498.49c4.14,0.46,6.91-3.27,11.2-1.51" transform="translate(-628.32 -415.68)"/><path class="cls-10" d="M740,475.07c3.7-.71,3.29-6.53,8.3-7.66" transform="translate(-628.32 -415.68)"/><path class="cls-10" d="M719.44,462.24c3.48-.31,1.4-6.25,5.39-9.93" transform="translate(-628.32 -415.68)"/><path class="cls-10" d="M701,460.29c0.2-2.61-3.89-5.52-2.7-11" transform="translate(-628.32 -415.68)"/></svg>