<svg id="Layer_1" data-name="Layer 1" xmlns="http://www.w3.org/2000/svg" viewBox="0 0 162.04 164.58"><defs><style>.cls-1{fill:#ea7570;}.cls-2{fill:#374552;}.cls-3{fill:#495c6d;}.cls-4{fill:#fffce9;}.cls-5{fill:#f2f2f2;}.cls-6{fill:#554d53;}.cls-7{fill:#585055;}.cls-8{fill:#858585;}</style></defs><title>clock</title><path class="cls-1" d="M14.25,2294.73c-0.07-45.45,36.15-82.34,80.9-82.41s81.07,36.73,81.14,82.17-36.15,82.34-80.9,82.41-81.07-36.73-81.14-82.17" transform="translate(-14.25 -2212.32)"/><ellipse class="cls-2" cx="95.27" cy="2296.01" rx="52.96" ry="54.35" transform="translate(-17.55 -2212.18) rotate(-0.08)"/><circle class="cls-3" cx="95.27" cy="2294.61" r="52.96" transform="translate(-17.55 -2212.18) rotate(-0.08)"/><ellipse class="cls-2" cx="95.27" cy="2293.01" rx="45.7" ry="44.1" transform="translate(-17.53 -2212.18) rotate(-0.08)"/><path class="cls-4" d="M52.77,2294.67a42.49,42.49,0,0,0,41.63,42.41l-0.12-85A42.49,42.49,0,0,0,52.77,2294.67Z" transform="translate(-14.25 -2212.32)"/><path class="cls-5" d="M95.21,2252.11l-0.92,0,0.12,85,0.93,0A42.5,42.5,0,0,0,95.21,2252.11Z" transform="translate(-14.25 -2212.32)"/><path class="cls-5" d="M95.21,2252.11l-1.14,0,0.21,85h1A42.5,42.5,0,0,0,95.21,2252.11Z" transform="translate(-14.25 -2212.32)"/><path class="cls-6" d="M104.88,2299a1.7,1.7,0,0,1,.46,2.36l-0.1.14a1.7,1.7,0,0,1-2.36.46l-30.17-20.31a1.7,1.7,0,0,1-.46-2.35h0a1.87,1.87,0,0,1,2.6-.51Z" transform="translate(-14.25 -2212.32)"/><path class="cls-1" d="M125.73,2287.69a0.26,0.26,0,0,1,.2,0,0.27,0.27,0,0,1,.11.17v0a0.27,0.27,0,0,1-.21.32l-43.2,8.5a0.28,0.28,0,0,1-.2,0,0.26,0.26,0,0,1-.11-0.17v0a0.27,0.27,0,0,1,.21-0.32Z" transform="translate(-14.25 -2212.32)"/><path class="cls-7" d="M91.31,2304.5A1.7,1.7,0,0,1,89,2305l-0.85-.57a1.7,1.7,0,0,1-.46-2.37l24.69-36.25a1.7,1.7,0,0,1,2.35-.45l0.85,0.57a1.7,1.7,0,0,1,.46,2.37Z" transform="translate(-14.25 -2212.32)"/><circle class="cls-8" cx="95.22" cy="2258.99" r="2.92" transform="translate(-17.65 -2212.17) rotate(-0.09)"/><circle class="cls-8" cx="58.72" cy="2294.96" r="2.92" transform="translate(-17.71 -2212.23) rotate(-0.09)"/><circle class="cls-8" cx="130.88" cy="2294.85" r="2.92" transform="translate(-17.71 -2212.12) rotate(-0.09)"/><circle class="cls-8" cx="95.32" cy="2329.07" r="2.92" transform="translate(-17.76 -2212.17) rotate(-0.09)"/><circle class="cls-7" cx="95.27" cy="2294.61" r="5.38" transform="translate(-17.38 -2212.19) rotate(-0.08)"/></svg>