<svg id="Layer_1" data-name="Layer 1" xmlns="http://www.w3.org/2000/svg" viewBox="0 0 162.04 164.58"><defs><style>.cls-1{fill:#26a9e0;}.cls-2{fill:#efc84a;}.cls-3{fill:#efd384;}.cls-4{fill:#f3dea3;}.cls-5{opacity:0.11;}.cls-6{fill:#ececec;}.cls-7{fill:#fbfcfb;}</style></defs><title>cloud</title><path class="cls-1" d="M16.9,3354.12c-0.46-45.45,35.44-82.65,80.18-83.11s81.39,36,81.85,81.47-35.44,82.65-80.19,83.1-81.39-36-81.85-81.46" transform="translate(-16.89 -3271.01)"/><circle class="cls-2" cx="82.74" cy="78.69" r="31.52"/><circle class="cls-3" cx="82.74" cy="78.69" r="21.08"/><circle class="cls-4" cx="82.74" cy="78.69" r="10.53"/><path class="cls-5" d="M76,3339.17l20.78,27L84,3378.9s-12-11.25-12.5-15S76,3339.17,76,3339.17Z" transform="translate(-16.89 -3271.01)"/><path class="cls-6" d="M148.13,3361a16.66,16.66,0,0,0-32-8.45,11.87,11.87,0,0,0-21.54,9.56,17.55,17.55,0,0,0-6.65,29.14,10.44,10.44,0,0,0,7.32,3v0.05c51.36,0,53,2.51,60.15-4.65A17.2,17.2,0,0,0,148.13,3361Z" transform="translate(-16.89 -3271.01)"/><path class="cls-7" d="M79.26,3348.11A10,10,0,0,0,60.1,3343a7.1,7.1,0,0,0-12.9,5.72,10.51,10.51,0,0,0-4,17.45A6.25,6.25,0,0,0,47.6,3368v0c30.75,0,31.72,1.5,36-2.79A10.3,10.3,0,0,0,79.26,3348.11Z" transform="translate(-16.89 -3271.01)"/></svg>