<svg id="Layer_1" data-name="Layer 1" xmlns="http://www.w3.org/2000/svg" viewBox="0 0 164.44 164.44"><defs><style>.cls-1{fill:#008cd6;}.cls-2{fill:#3498db;}.cls-3,.cls-4{fill:#34495e;}.cls-3{opacity:0.59;}.cls-5{fill:#2980b9;}.cls-6{fill:#fd6e70;}.cls-7{fill:#dd5558;}.cls-8{fill:#fe9597;}.cls-9{fill:#fff;}</style></defs><title>content</title><path class="cls-1" d="M910.54,3269.37a82.2,82.2,0,1,0,82.34,82.1,82.22,82.22,0,0,0-82.34-82.1" transform="translate(-828.43 -3269.37)"/><path class="cls-2" d="M955,3312.13l-34.39-12.64a3.8,3.8,0,0,0-4.87,2.25l-27,73.59a3.8,3.8,0,0,0,2.25,4.87l53.6,19.69a3.8,3.8,0,0,0,4.87-2.25l20-54.38Z" transform="translate(-828.43 -3269.37)"/><polygon class="cls-3" points="103.14 72.26 116.13 130.54 90.52 121.13 90.52 66.73 103.14 72.26"/><polygon class="cls-4" points="121.28 65.19 134.04 92.78 140.98 73.9 121.28 65.19"/><path class="cls-5" d="M948,3331.34a3.8,3.8,0,0,0,2.25,4.87l19.21,7.06L955,3312.13Z" transform="translate(-828.43 -3269.37)"/><path class="cls-6" d="M910.46,3314.58l-36.36-4.48a3.8,3.8,0,0,0-4.23,3.3l-9.58,77.81a3.8,3.8,0,0,0,3.3,4.23l56.67,7a3.8,3.8,0,0,0,4.23-3.3l7.08-57.51Z" transform="translate(-828.43 -3269.37)"/><polygon class="cls-7" points="81.97 68.26 100.68 92.22 103.14 72.26 81.97 68.26"/><path class="cls-8" d="M908,3334.89a3.8,3.8,0,0,0,3.3,4.23l20.31,2.5-21.11-27Z" transform="translate(-828.43 -3269.37)"/><rect class="cls-9" x="883.89" y="3329.53" width="4.73" height="25.15" rx="2" ry="2" transform="translate(-3367.52 544.04) rotate(-82.98)"/><rect class="cls-9" x="885.3" y="3336.13" width="4.73" height="30.18" rx="2" ry="2" transform="translate(-3375.36 553.26) rotate(-82.98)"/><rect class="cls-9" x="881.68" y="3347.44" width="4.73" height="25.15" rx="2" ry="2" transform="translate(-3387.25 557.45) rotate(-82.98)"/><rect class="cls-9" x="883.79" y="3352.64" width="4.73" height="31.36" rx="2" ry="2" transform="translate(-3393.64 566.88) rotate(-82.98)"/><rect class="cls-9" x="878.44" y="3364.17" width="4.73" height="22.48" rx="2" ry="2" transform="translate(-3405.39 567.71) rotate(-82.98)"/></svg>