<svg id="Layer_1" data-name="Layer 1" xmlns="http://www.w3.org/2000/svg" viewBox="0 0 164.44 164.44"><defs><style>.cls-1{fill:#324e5d;}.cls-2{fill:#f17173;}.cls-3{fill:#24b0d3;}.cls-4{fill:#a8c438;}.cls-5{opacity:0.17;}.cls-6{fill:#f4f5f5;}</style></defs><title>earth</title><path class="cls-1" d="M908.25,1083.46a82.2,82.2,0,1,0,82.34,82.1A82.22,82.22,0,0,0,908.25,1083.46Z" transform="translate(-826.14 -1083.46)"/><circle class="cls-2" cx="906.56" cy="1127.64" r="0.75" transform="translate(-827.65 -1082.25) rotate(-0.08)"/><path class="cls-3" d="M952.59,1168.76a44.3,44.3,0,1,0-21.34,35A44.28,44.28,0,0,0,952.59,1168.76Z" transform="translate(-826.14 -1083.46)"/><path class="cls-4" d="M918.41,1149.42s5.29-5.42,5.31-5.76-2.25-3.86-2.91-6c-1.26-4,3.72-6.89,5-4.93,5.55,0.4,14,12.91,15.67,20.93-1.87,4.23-9.52-2.42-9.52-2.42a11.1,11.1,0,0,0-8.77,2.9C918.56,1155.74,916.6,1150.65,918.41,1149.42Z" transform="translate(-826.14 -1083.46)"/><path class="cls-5" d="M869.1,1186.59l79.43-1.86c3.83-7.89,5.08-19.7,3.72-24-0.56-1.88-1.81-2.8-4.09-2.3Z" transform="translate(-826.14 -1083.46)"/><path class="cls-6" d="M970.26,1144.5c-1.37-4.43-11.23-5.72-25.55-4.16l0.75,1.16c39.34,5.59-104.72,55.87-81.26,26.14l0-1.68c-10.81,6.19-16.92,12.09-15.67,16.15,2.43,7.88,31.67,5.85,65.29-4.54S972.69,1152.39,970.26,1144.5Z" transform="translate(-826.14 -1083.46)"/><path class="cls-4" d="M888.85,1131.12s1.43,8.62,2.92,16.23-4.63,16.73-6.33,19.62-6,.1-11.84-2.8-10.17-12.71-4.29-18.33S877.51,1128.36,888.85,1131.12Z" transform="translate(-826.14 -1083.46)"/><path class="cls-4" d="M894.91,1207.86s-3.78-8.44-.11-13.37,15.09-5.84,17.32-9.2,6.84-7.39,7.48.5-1.42,11.26.37,14.39-4,9.59-4,9.59S899.55,1210.85,894.91,1207.86Z" transform="translate(-826.14 -1083.46)"/></svg>