<svg id="Layer_1" data-name="Layer 1" xmlns="http://www.w3.org/2000/svg" viewBox="0 0 164.73 164.73"><defs><style>.cls-1{fill:#77b4be;}.cls-2{fill:#472e1c;}.cls-3{fill:#b2ce7a;}.cls-4{fill:#dbed7b;}.cls-5{fill:#b5d184;}.cls-6{fill:#fff;}.cls-7{fill:#b8b8b8;}.cls-8{fill:#f7f7f7;}.cls-9{fill:#48453c;opacity:0.4;}.cls-10{fill:#ef8674;}.cls-11,.cls-17{fill:#55502a;}.cls-11{opacity:0.33;}.cls-12{fill:#adadad;}.cls-13{fill:#59532c;opacity:0.28;}.cls-14{fill:#81cad9;}.cls-15{fill:#7a7a7a;}.cls-16{fill:#5e5e5e;}.cls-17{opacity:0.21;}</style></defs><title>house</title><circle class="cls-1" cx="82.36" cy="82.37" r="82.37"/><rect class="cls-2" x="28.63" y="110.25" width="5.25" height="20"/><polygon class="cls-3" points="30.63 47.25 42.88 116 19.88 116 30.63 47.25"/><polygon class="cls-4" points="30.63 47.25 30.63 116 42.88 116 30.63 47.25"/><path class="cls-5" d="M232.51,3398.82a82.38,82.38,0,0,0,136.43,0H232.51Z" transform="translate(-218.36 -3270.28)"/><rect class="cls-6" x="51.09" y="81.79" width="88.99" height="51.82"/><rect class="cls-7" x="51.09" y="129.15" width="88.99" height="4.46"/><rect class="cls-8" x="97.35" y="81.79" width="42.73" height="51.82"/><rect class="cls-7" x="97.35" y="127.49" width="42.73" height="6.12"/><polygon class="cls-9" points="88.21 89.39 51.09 89.39 51.09 81.79 90.94 81.79 88.21 89.39"/><polygon class="cls-10" points="88.21 83.72 51.09 83.72 51.09 81.79 90.94 81.79 88.21 83.72"/><polygon class="cls-6" points="143.51 81.79 48.82 81.79 57.66 55.88 130.37 55.88 143.51 81.79"/><rect class="cls-6" x="91.69" y="41.09" width="8.04" height="14.79"/><polygon class="cls-11" points="91.69 55.54 91.69 55.88 99.73 55.88 99.73 46.98 91.69 55.54"/><polygon class="cls-12" points="81.67 76.53 66.09 76.53 66.09 63.39 73.93 54.17 81.67 63.39 81.67 76.53"/><polygon class="cls-11" points="88.25 55.88 104.84 55.88 89.72 82.18 73.59 82.18 88.25 55.88"/><rect class="cls-10" x="279.02" y="3329.82" width="15.79" height="1.48" transform="translate(-2489.38 -2091.9) rotate(-45)"/><rect class="cls-10" x="296.53" y="3322.66" width="1.48" height="15.79" transform="translate(-2486.35 -2084.58) rotate(-45)"/><rect class="cls-6" x="72.13" y="64.02" width="4.45" height="4.31"/><rect class="cls-6" x="72.13" y="69.57" width="4.45" height="4.31"/><polygon class="cls-13" points="86.65 85.38 82.42 94.58 140.24 94.58 140.24 85.38 86.65 85.38"/><polygon class="cls-10" points="85.03 90.24 118.08 26.18 154.2 89.85 85.03 90.24"/><polygon class="cls-6" points="118.22 33.3 149.78 90.24 89.22 90.24 118.22 33.3"/><rect class="cls-14" x="115.68" y="65.35" width="6.58" height="6.37"/><rect class="cls-14" x="115.68" y="73.55" width="6.58" height="6.37"/><rect class="cls-14" x="114.41" y="100.42" width="7.85" height="10.57"/><rect class="cls-14" x="114.41" y="114.01" width="7.85" height="10.57"/><rect class="cls-14" x="60.87" y="104.38" width="7.62" height="8.21"/><rect class="cls-14" x="60.87" y="114.94" width="7.62" height="8.21"/><path class="cls-15" d="M311.75,3403.9H296.28v-15.37a7.42,7.42,0,0,1,7.42-7.42h0.62a7.42,7.42,0,0,1,7.42,7.42v15.37Z" transform="translate(-218.36 -3270.28)"/><path class="cls-16" d="M304.33,3381.1h-0.47v22.8h7.89v-15.37A7.42,7.42,0,0,0,304.33,3381.1Z" transform="translate(-218.36 -3270.28)"/><polygon class="cls-17" points="98.29 90.24 70.51 133.62 98.2 133.62 98.29 90.24"/></svg>