<svg id="Layer_1" data-name="Layer 1" xmlns="http://www.w3.org/2000/svg" viewBox="0 0 164.44 164.44"><defs><style>.cls-1{fill:#34495e;}.cls-2{opacity:0.18;}.cls-3{fill:#fff;}.cls-4{fill:#27ae60;}.cls-5,.cls-6{fill:#b8b8b8;}.cls-5{opacity:0.53;}.cls-6{opacity:0.52;}.cls-7{fill:#1d8348;}.cls-8{fill:#2ecc71;}.cls-9{opacity:0.29;}</style></defs><title>lab</title><path class="cls-1" d="M910.54,2622.49a82.2,82.2,0,1,0,82.34,82.1,82.22,82.22,0,0,0-82.34-82.1" transform="translate(-828.43 -2622.49)"/><ellipse class="cls-2" cx="84.07" cy="133.94" rx="52.85" ry="4.23"/><path class="cls-3" d="M950,2740.43l-30-48.19H905.66l-30,48.19a11.48,11.48,0,0,0,9.75,17.54h54.76A11.48,11.48,0,0,0,950,2740.43Z" transform="translate(-828.43 -2622.49)"/><path class="cls-4" d="M934.27,2722.52H891.38L879,2742.47a7.61,7.61,0,0,0,6.46,11.63h54.76a7.61,7.61,0,0,0,6.47-11.63Z" transform="translate(-828.43 -2622.49)"/><rect class="cls-3" x="75.62" y="51.22" width="19.33" height="26.26"/><path class="cls-5" d="M913.23,2668a55.48,55.48,0,0,0-9.59.77v6.55a55.37,55.37,0,0,0,9.59.77,54,54,0,0,0,10.23-.89v-6.31A54,54,0,0,0,913.23,2668Z" transform="translate(-828.43 -2622.49)"/><ellipse class="cls-3" cx="84.8" cy="48.87" rx="12.49" ry="3.31"/><ellipse class="cls-6" cx="84.8" cy="48.87" rx="8.02" ry="1.58"/><ellipse class="cls-7" cx="84.13" cy="100.04" rx="21.53" ry="2.9"/><circle class="cls-8" cx="78.27" cy="118.57" r="5.8"/><circle class="cls-8" cx="94.2" cy="115.83" r="3.06"/><circle class="cls-8" cx="105.66" cy="124.37" r="2.74"/><g class="cls-9"><circle class="cls-3" cx="73.57" cy="29.62" r="6.26"/><circle class="cls-3" cx="95.03" cy="32.24" r="5.07"/><circle class="cls-3" cx="87.44" cy="20.32" r="3.04"/><circle class="cls-3" cx="84.4" cy="40.33" r="1.98"/></g></svg>