<svg id="Layer_1" data-name="Layer 1" xmlns="http://www.w3.org/2000/svg" viewBox="0 0 162.04 164.58"><defs><style>.cls-1{fill:#324e5d;}.cls-10,.cls-2,.cls-3,.cls-4{fill:#fff;}.cls-2{opacity:0.26;}.cls-3{opacity:0.18;}.cls-4{opacity:0.16;}.cls-5{fill:#313829;}.cls-6{fill:#d4d3d3;}.cls-7{opacity:0.13;}.cls-8{opacity:0.1;}.cls-9{fill:#ebf2ef;}.cls-11{fill:#f9cc2e;}</style></defs><title>lamp</title><ellipse class="cls-1" cx="503.88" cy="498.27" rx="81.02" ry="82.29" transform="translate(-427.88 -410.85) rotate(-0.58)"/><path class="cls-2" d="M583.9,493.49L539,466.94l-7.57,10.74,48.26,48.72A78,78,0,0,0,583.9,493.49Z" transform="translate(-422.86 -415.98)"/><polygon class="cls-3" points="98.91 74.96 120.51 133.96 141.67 134.32 104.67 67.18 98.91 74.96"/><path class="cls-4" d="M579.65,526.4l-48.26-48.72-3.86,5.47,37,67.14,2.1,0A80.73,80.73,0,0,0,579.65,526.4Z" transform="translate(-422.86 -415.98)"/><path class="cls-5" d="M504.72,580.55a80.35,80.35,0,0,0,61.91-30.22l-123.32,1.25v1.31A80.3,80.3,0,0,0,504.72,580.55Z" transform="translate(-422.86 -415.98)"/><rect class="cls-6" x="454.31" y="472.07" width="71.76" height="6.18" transform="translate(-615.21 44.96) rotate(-42.91)"/><polygon class="cls-6" points="89.47 129.33 46.3 82.03 41.73 86.2 81.17 129.42 89.47 129.33"/><polygon class="cls-7" points="70.72 118.25 84.85 124.36 90.99 131.47 79.61 128.61 70.72 118.25"/><path class="cls-8" d="M466.56,495.45a6.75,6.75,0,0,0-4.46,3.11l27,22c2-.83-15.12-14.91-14.63-17Z" transform="translate(-422.86 -415.98)"/><circle class="cls-9" cx="466.37" cy="500.4" r="6.75" transform="translate(-427.9 -411.23) rotate(-0.58)"/><path class="cls-6" d="M543.37,549.94a4.45,4.45,0,0,0-4.48-4.41,110,110,0,0,1-30-3.81l-2.75,0h0l-5.6.06a109.93,109.93,0,0,1-29.89,4.41,4.45,4.45,0,0,0-4.39,4.5l40-.4h0l37.11-.37h0Z" transform="translate(-422.86 -415.98)"/><circle class="cls-10" cx="532.67" cy="481.61" r="11.64" transform="translate(-576.96 -144.22) rotate(-25.13)"/><path class="cls-11" d="M501.6,450.62a3.16,3.16,0,0,0-.78,4L513,476.3l-3.82,27,52.61-45-31.07,1-16.84-15.09a3.16,3.16,0,0,0-4.08-.11Z" transform="translate(-422.86 -415.98)"/><path class="cls-8" d="M510.72,443.06l8.23,13.28A16.87,16.87,0,0,0,537,463.9l24.71-5.63-31.07,1-18.83-16.88Z" transform="translate(-422.86 -415.98)"/></svg>