<svg id="Layer_1" data-name="Layer 1" xmlns="http://www.w3.org/2000/svg" viewBox="0 0 162.04 164.58"><defs><style>.cls-1{fill:#157a95;}.cls-2{fill:#fccb98;}.cls-3{fill:#eea96f;}.cls-4{fill:#131318;opacity:0.28;}.cls-5{fill:#f8f8f8;}.cls-6{fill:#ef7f69;}</style></defs><title>like</title><ellipse class="cls-1" cx="298.87" cy="937.89" rx="81.02" ry="82.29" transform="translate(-228.1 -852.28) rotate(-0.63)"/><path class="cls-2" d="M315.9,895.7c-0.2-.25-0.39-0.49-0.62-0.75-1.56-.91-2.57-0.87-4,1,0,0-5.57,10.31-7.69,12.31-2,1.84-8.75,7.46-7.06,19.32,0.56-1.4,1-2.79,1.49-4.19C304.22,914.46,316.8,907.11,315.9,895.7Z" transform="translate(-217.85 -855.6)"/><path class="cls-3" d="M312,925c-2.63-10.79,14.24-16.58,3.9-29.29,0.9,11.41-11.68,18.76-17.9,27.68-0.46,1.4-.93,2.79-1.49,4.19a30.91,30.91,0,0,0,.61,3.15,16.16,16.16,0,0,1-1,10.66l19.84-3,0.18-1.72-1.6-.9C311.15,933.3,313,929.08,312,925Z" transform="translate(-217.85 -855.6)"/><polygon class="cls-2" points="122.95 110.43 46.71 110.54 46.66 74.48 122.65 74.37 122.95 110.43"/><path class="cls-2" d="M294.52,920.24c-3.88,0-7,5.67-7,10.57v0.46l53.24-.08,0-11Z" transform="translate(-217.85 -855.6)"/><path class="cls-3" d="M348.85,920.16h-8.12l0,11h8.12C353.55,931.17,353.53,920.15,348.85,920.16Z" transform="translate(-217.85 -855.6)"/><path class="cls-2" d="M304.7,931.8c-3.88,0-7,5.67-7,10.57v0.46l43.08-.06,0-11Z" transform="translate(-217.85 -855.6)"/><path class="cls-3" d="M348.87,931.74h-8.12l0,11h8.12C353.57,942.75,353.55,931.73,348.87,931.74Z" transform="translate(-217.85 -855.6)"/><path class="cls-2" d="M304.71,943.43c-3.88,0-7,5.67-7,10.57v0.46l43.08-.06,0-11Z" transform="translate(-217.85 -855.6)"/><path class="cls-3" d="M348.89,943.37h-8.12l0,11h8.12C353.58,954.39,353.57,943.36,348.89,943.37Z" transform="translate(-217.85 -855.6)"/><path class="cls-3" d="M348.9,954.85h-8.12l0,11h8.12C353.6,965.87,353.58,954.85,348.9,954.85Z" transform="translate(-217.85 -855.6)"/><path class="cls-2" d="M304.73,954.92c-3.88,0-7,5.67-7,10.57v0.46l43.08-.06,0-11Z" transform="translate(-217.85 -855.6)"/><polygon class="cls-4" points="64.14 75.89 67.04 114.68 51.56 113.41 64.14 75.89"/><polygon class="cls-5" points="59.41 71.64 64.14 75.89 60.75 115.63 55.85 117.06 59.41 71.64"/><path class="cls-6" d="M279.44,922.3l-5.37,50.76-42.85-2.52c2.8-20.29,7.09-36.52,15.9-53.35Z" transform="translate(-217.85 -855.6)"/><ellipse class="cls-5" cx="262.15" cy="966.26" rx="4.2" ry="4.98" transform="translate(-219.27 -855.22) rotate(-0.08)"/></svg>