<svg id="Layer_1" data-name="Layer 1" xmlns="http://www.w3.org/2000/svg" viewBox="0 0 162.04 165.62"><defs><style>.cls-1{fill:#6c71b4;}.cls-2{fill:#fff;}.cls-3{fill:#ccc;}.cls-4{fill:#ededed;}.cls-5{fill:#efa16f;}.cls-6{fill:#ee4825;}.cls-7{fill:#fce6e4;}.cls-8{fill:#532617;opacity:0.31;}.cls-9{fill:#d3a781;}.cls-10{fill:#fbd8d6;}.cls-11{fill:#3a363f;}.cls-12{fill:#dd1d3d;}.cls-13{fill:none;}.cls-14{fill:#944825;opacity:0.5;}</style></defs><title>listening</title><ellipse class="cls-1" cx="710.33" cy="1403.56" rx="81.02" ry="82.29" transform="translate(-641.46 -1315.05) rotate(-0.5)"/><path class="cls-2" d="M685.15,1347.63a0.68,0.68,0,0,0-.31-1l-6.93-2.62a0.68,0.68,0,0,0-.79.24l-4,5.53-0.12,2.59,0.44-.14,3.63-5a0.25,0.25,0,0,1,.29-0.09l4.72,1.71a0.25,0.25,0,0,1,.15.16,0.24,0.24,0,0,1,0,.22l-2.29,3.18-0.44,2.73h0l0.33-.39a0.42,0.42,0,0,1,.28-0.14Z" transform="translate(-629.3 -1321.27)"/><path class="cls-3" d="M673.13,1349.65a2.64,2.64,0,0,1,1.22,1.28l-1,1.39a2.51,2.51,0,0,0-.21-2.68" transform="translate(-629.3 -1321.27)"/><path class="cls-4" d="M668.8,1348.89c-0.65.9-.14,2.38,1.14,3.3a3.58,3.58,0,0,0,1.84.69l-1.44-4.65a1.78,1.78,0,0,0-1.54.66" transform="translate(-629.3 -1321.27)"/><path class="cls-2" d="M673.42,1352.22c0.65-.9.14-2.38-1.14-3.3a3.52,3.52,0,0,0-2-.7l1.44,4.65a1.82,1.82,0,0,0,1.65-.66" transform="translate(-629.3 -1321.27)"/><path class="cls-3" d="M679.74,1352.16a2.19,2.19,0,0,1,1.31,1.11l-1,1.39a2.3,2.3,0,0,0-.3-2.5" transform="translate(-629.3 -1321.27)"/><path class="cls-2" d="M680.52,1354a3.08,3.08,0,0,0-1.42-2.48,3.42,3.42,0,0,0-2.21-.69l1.49,4.6a2.24,2.24,0,0,0,2.13-1.43" transform="translate(-629.3 -1321.27)"/><path class="cls-4" d="M676.9,1350.82a1.69,1.69,0,0,0-1.28.66c-0.65.9-.2,2.46,1.14,3.3a4,4,0,0,0,1.64.65Z" transform="translate(-629.3 -1321.27)"/><path class="cls-2" d="M696.57,1333.7a0.48,0.48,0,0,0-.73-0.21l-4.2,3.1a0.49,0.49,0,0,0-.16.56l1.75,4.47,1.49,1.06,0.08-.31-1.59-4.07a0.17,0.17,0,0,1,.06-0.2l2.82-2.14a0.17,0.17,0,0,1,.15,0,0.17,0.17,0,0,1,.12.11l1,2.57,1.45,1.31,0,0c0-.11-0.07-0.23-0.11-0.34a0.29,0.29,0,0,1,0-.22Z" transform="translate(-629.3 -1321.27)"/><path class="cls-3" d="M693.17,1341.58a1.86,1.86,0,0,1,1.23-.23l0.44,1.13a1.77,1.77,0,0,0-1.67-.9" transform="translate(-629.3 -1321.27)"/><path class="cls-4" d="M691.06,1343.85a1.79,1.79,0,0,0,2.39.59,2.51,2.51,0,0,0,1.11-.82l-3.3-.93a1.25,1.25,0,0,0-.2,1.16" transform="translate(-629.3 -1321.27)"/><path class="cls-2" d="M694.8,1342.39a1.79,1.79,0,0,0-2.39-.59,2.46,2.46,0,0,0-1.16.89l3.3,0.93a1.28,1.28,0,0,0,.24-1.23" transform="translate(-629.3 -1321.27)"/><path class="cls-3" d="M697.19,1338.63a1.54,1.54,0,0,1,1.16-.35l0.44,1.13a1.62,1.62,0,0,0-1.6-.78" transform="translate(-629.3 -1321.27)"/><path class="cls-2" d="M698.57,1338.87a2.17,2.17,0,0,0-2-.11,2.41,2.41,0,0,0-1.25,1l3.29,0.88a1.58,1.58,0,0,0,0-1.81" transform="translate(-629.3 -1321.27)"/><path class="cls-4" d="M695.3,1339.8a1.19,1.19,0,0,0-.1,1,1.74,1.74,0,0,0,2.39.59,2.82,2.82,0,0,0,1-.72Z" transform="translate(-629.3 -1321.27)"/><path class="cls-2" d="M670.53,1369.09a0.41,0.41,0,0,0,.14-0.63l-2.87-3.35a0.41,0.41,0,0,0-.49-0.1l-3.66,1.75-0.81,1.32,0.27,0,3.34-1.59a0.15,0.15,0,0,1,.18,0l2,2.25a0.15,0.15,0,0,1,0,.13,0.14,0.14,0,0,1-.08.1l-2.11,1-1,1.3,0,0,0.28-.11a0.26,0.26,0,0,1,.19,0Z" transform="translate(-629.3 -1321.27)"/><path class="cls-3" d="M663.68,1366.71a1.58,1.58,0,0,1,.27,1l-0.93.44a1.5,1.5,0,0,0,.66-1.46" transform="translate(-629.3 -1321.27)"/><path class="cls-4" d="M661.63,1365.07a1.51,1.51,0,0,0-.35,2,2.11,2.11,0,0,0,.76.89l0.58-2.84a1.05,1.05,0,0,0-1-.09" transform="translate(-629.3 -1321.27)"/><path class="cls-2" d="M663.1,1368.13a1.52,1.52,0,0,0,.35-2,2.08,2.08,0,0,0-.82-0.92L662,1368a1.08,1.08,0,0,0,1.05.13" transform="translate(-629.3 -1321.27)"/><path class="cls-3" d="M666.41,1369.91a1.3,1.3,0,0,1,.37,1l-0.93.44a1.37,1.37,0,0,0,.56-1.39" transform="translate(-629.3 -1321.27)"/><path class="cls-2" d="M666.29,1371.09a1.83,1.83,0,0,0,0-1.7,2,2,0,0,0-1-1l-0.54,2.83a1.33,1.33,0,0,0,1.52-.14" transform="translate(-629.3 -1321.27)"/><path class="cls-4" d="M665.31,1368.4a1,1,0,0,0-.86,0,1.47,1.47,0,0,0-.35,2,2.37,2.37,0,0,0,.67.8Z" transform="translate(-629.3 -1321.27)"/><ellipse class="cls-5" cx="55.61" cy="72.23" rx="3.73" ry="7.26"/><path class="cls-6" d="M763.06,1466.51l-5.8-24.87s-13.18-8.49-27.53-8.79H711.57L711.18,1486S738.31,1490,763.06,1466.51Z" transform="translate(-629.3 -1321.27)"/><path class="cls-6" d="M655.81,1464.39l10.81-22.75s13.18-8.49,27.53-8.79H712.3l-0.87,54S672.73,1483.49,655.81,1464.39Z" transform="translate(-629.3 -1321.27)"/><path class="cls-7" d="M724.21,1432.33a2.2,2.2,0,0,1-2.24-2.2v-15.8H697.7v16.18a2.2,2.2,0,0,1-2.15,2.2l-3.19.07s0.27,11.93,17.29,13,17.92-13.5,17.92-13.5Z" transform="translate(-629.3 -1321.27)"/><path class="cls-8" d="M699.52,1423.66l22.13,19.19c3.58-2.84,5-5.32,5.91-10.53-0.34-.09-5.41,1.34-5.59-1.84l0.13-14.91-16.23-.24Z" transform="translate(-629.3 -1321.27)"/><path class="cls-7" d="M684,1383.47a47.09,47.09,0,0,0-.57,7.33c0,19.8,12.2,35.85,27.25,35.85h0.09v-51.51C698.89,1361.47,696.21,1357.38,684,1383.47Z" transform="translate(-629.3 -1321.27)"/><path class="cls-9" d="M744.05,1390.58c0,8.85-5.24,15.86-9.8,15.86-3.49,0-2.82-7-2.82-15.86s2.83-16,6.31-16S744.05,1381.73,744.05,1390.58Z" transform="translate(-629.3 -1321.27)"/><path class="cls-10" d="M737.9,1390.8a47.09,47.09,0,0,0-.57-7.33c-20.28-20.67-25.6-17-26.58-12.83v56C725.75,1426.58,737.9,1410.56,737.9,1390.8Z" transform="translate(-629.3 -1321.27)"/><polyline class="cls-10" points="81.44 73.97 76.37 86.46 81.44 87.19"/><path d="M723.91,1396.09a11.1,11.1,0,0,1-5.17-1.37,0.5,0.5,0,0,1,.46-0.89c5.83,3,9.5-.32,9.66-0.46a0.5,0.5,0,0,1,.69.72,8.72,8.72,0,0,1-5.64,2h0Z" transform="translate(-629.3 -1321.27)"/><path d="M698.29,1396.09a11.1,11.1,0,0,1-5.17-1.37,0.5,0.5,0,0,1,.46-0.89c5.83,3,9.5-.32,9.66-0.46a0.5,0.5,0,0,1,.69.73,8.73,8.73,0,0,1-5.64,2h0Z" transform="translate(-629.3 -1321.27)"/><ellipse class="cls-7" cx="108.84" cy="72.23" rx="3.73" ry="7.26"/><path class="cls-9" d="M696.71,1373.69s34.13,5.79,41.73,24.08l0-17,4.89,2s-4.06-29.9-31.73-29.4c-27.11.49-30.87,28.18-30.87,28.18l0.85,17,2.54-6.12S696.71,1389,696.71,1373.69Z" transform="translate(-629.3 -1321.27)"/><path d="M710.23,1417a20.05,20.05,0,0,1-8.69-2,0.5,0.5,0,1,1,.48-0.88c0.09,0,9.07,4.84,17.3-1a0.5,0.5,0,0,1,.58.82,16.49,16.49,0,0,1-9.67,3.05h0Z" transform="translate(-629.3 -1321.27)"/><path class="cls-9" d="M696.71,1373.69s12.76,7.06,13.31,14.48l-2.9-15.93s9.6,9.05,10.14,13l-2.9-14.3-8-3.08-7.06-.18Z" transform="translate(-629.3 -1321.27)"/><path class="cls-11" d="M679.85,1388c0-.17,0-0.34,0-0.52,0.24-19.11,14.66-34.42,32.2-34.2s31.58,15.89,31.34,35c0,0.17,0,.35,0,0.52,2.54,3,4.21,2.94,6.28.08,0-.17,0-0.34,0-0.52,0.29-22.88-16.46-40.71-37.47-41s-38.34,17.13-38.62,40c0,0.17,0,.35,0,0.52C675.94,1394.08,677.44,1394.27,679.85,1388Z" transform="translate(-629.3 -1321.27)"/><path class="cls-12" d="M750.43,1403.63a5.34,5.34,0,0,1-6.6,3.68l-1-.3a5.34,5.34,0,0,1-3.68-6.6l2.57-9.06a5.34,5.34,0,0,1,6.6-3.68l1,0.3a5.34,5.34,0,0,1,3.68,6.59Z" transform="translate(-629.3 -1321.27)"/><path class="cls-2" d="M719.29,1486.39c-2.62-.08-11.54-0.84-16.41-7.34-3.35-4.47-4-10.62-2.06-18.29,3.07-11.85-5-14.92-14.25-18.47-6-2.3-12.85-4.92-17.16-10.34a12.6,12.6,0,0,1-2.93-10.5c1.72-9.08,13.09-15.72,13.57-16l0.5,0.87c-0.11.07-11.45,6.7-13.09,15.32a11.64,11.64,0,0,0,2.73,9.68c4.15,5.21,10.55,7.66,16.74,10,9.33,3.57,18.15,6.95,14.86,19.66-1.91,7.36-1.27,13.22,1.89,17.44,4.6,6.14,13.14,6.86,15.64,6.94l0,1h0Z" transform="translate(-629.3 -1321.27)"/><rect class="cls-12" x="671.4" y="1387.45" width="11.77" height="20.1" rx="5.34" ry="5.34" transform="matrix(0.99, -0.15, 0.15, 0.99, -832.76, -1202.84)"/><path d="M693,1390.34a0.5,0.5,0,0,1,0-1l8.67-.71a0.51,0.51,0,0,1,.54.46,0.5,0.5,0,0,1-.46.54l-8.67.71h0Z" transform="translate(-629.3 -1321.27)"/><path d="M727.8,1390.74h-0.09l-8.57-1.5a0.5,0.5,0,0,1-.41-0.58,0.5,0.5,0,0,1,.58-0.41l8.57,1.5a0.5,0.5,0,0,1-.09,1h0Z" transform="translate(-629.3 -1321.27)"/><ellipse class="cls-13" cx="710.33" cy="1403.56" rx="81.02" ry="82.29" transform="translate(-641.46 -1315.05) rotate(-0.5)"/><polyline class="cls-14" points="119.1 154.89 113.72 135.76 109.42 159.39"/><polyline class="cls-14" points="44.25 154.89 49.62 135.76 53.92 159.39"/></svg>