<svg id="Layer_1" data-name="Layer 1" xmlns="http://www.w3.org/2000/svg" viewBox="0 0 164.73 164.73"><defs><style>.cls-1{fill:#34495e;}.cls-2{fill:none;}.cls-3{fill:#65c7ec;}.cls-4{fill:#f3f3f4;}.cls-5{opacity:0.18;}.cls-6{fill:#fe6e97;}.cls-7{fill:#1396ba;}.cls-8{fill:#14b8e5;}.cls-9{fill:#13aae0;}</style></defs><title>mail</title><circle class="cls-1" cx="82.36" cy="82.37" r="82.37"/><polygon class="cls-2" points="136.44 129.81 33.97 129.81 33.97 62.53 85.2 28.59 136.44 62.53 136.44 129.81"/><polygon class="cls-3" points="136 62.25 85.2 28.59 34.13 62.42 85.08 95.93 136 62.25"/><polygon class="cls-4" points="109.5 43.17 42.07 43.17 42.07 115.7 130.63 115.7 130.63 58.27 109.5 43.17"/><polyline class="cls-5" points="109.59 58.23 130.63 74.67 130.63 58.23"/><polygon class="cls-6" points="109.59 58.23 130.63 58.23 109.59 43.17 109.59 58.23"/><polygon class="cls-7" points="33.97 129.74 85.08 95.93 34.13 62.42 33.97 62.53 33.97 129.74"/><polygon class="cls-8" points="136.44 62.53 136 62.25 85.08 95.93 136.44 129.72 136.44 62.53"/><polygon class="cls-9" points="85.08 95.93 33.97 129.74 33.97 129.81 136.44 129.81 136.44 129.72 85.08 95.93"/><rect class="cls-5" x="49.01" y="54.67" width="50.88" height="2.38"/><rect class="cls-5" x="49.01" y="69.86" width="36.75" height="2.38"/><polygon class="cls-5" points="56.38 77.06 59.95 79.44 85.76 79.44 85.76 77.06 56.38 77.06"/><rect class="cls-5" x="90.63" y="77.06" width="9.25" height="2.38"/><rect class="cls-5" x="49.01" y="62.25" width="21.88" height="2.38"/><rect class="cls-5" x="73.01" y="62.25" width="9.36" height="2.38"/><rect class="cls-5" x="85.07" y="62.25" width="14.82" height="2.38"/></svg>