<svg id="Layer_1" data-name="Layer 1" xmlns="http://www.w3.org/2000/svg" viewBox="0 0 162.04 164.58"><defs><style>.cls-1,.cls-9{fill:#324e5d;}.cls-2,.cls-4{fill:#fff;}.cls-2,.cls-3{opacity:0.18;}.cls-5,.cls-7{fill:#281f10;}.cls-6{fill:#e15d4a;}.cls-7{opacity:0.31;}.cls-8{fill:#e0e0e0;}.cls-9{opacity:0.17;}.cls-10{fill:#c95140;}.cls-11{fill:#737373;}.cls-12{fill:#f49327;}</style></defs><title>rocket</title><ellipse class="cls-1" cx="709.65" cy="711.77" rx="81.02" ry="82.29" transform="translate(-635.79 -622.26) rotate(-0.58)"/><path class="cls-2" d="M729.24,790.18c0,4.84-40,4.9-40,.06l14.56-46,13.69,0Z" transform="translate(-628.62 -629.48)"/><g class="cls-3"><path class="cls-4" d="M727.15,792.5c0-.12,0-0.24-0.05-0.36l-0.22.05C727,792.3,727.06,792.39,727.15,792.5Z" transform="translate(-628.62 -629.48)"/><path class="cls-4" d="M675.26,786.28l0.49,0.22a12.37,12.37,0,0,1,.59-2.17A14.31,14.31,0,0,1,675.26,786.28Z" transform="translate(-628.62 -629.48)"/><polygon class="cls-4" points="118.96 155 118.97 155 118.96 155 118.96 155"/><path class="cls-4" d="M636.67,738.52a18.7,18.7,0,0,0-3.51.35,82.49,82.49,0,0,0,18.23,30A18.73,18.73,0,0,0,636.67,738.52Z" transform="translate(-628.62 -629.48)"/><path class="cls-4" d="M687.72,776.41a12.17,12.17,0,0,0-11,7.08,14.41,14.41,0,0,0-24.79-14,81.26,81.26,0,0,0,23.35,16.84,14.31,14.31,0,0,0,1.08-1.95,12.37,12.37,0,0,0-.59,2.17,79.52,79.52,0,0,0,23.2,6.82A12.18,12.18,0,0,0,687.72,776.41Z" transform="translate(-628.62 -629.48)"/><path class="cls-4" d="M781.93,748.94a11.73,11.73,0,0,0-16.26,13.38,14.41,14.41,0,0,0-22.21,18.25,11.22,11.22,0,0,1,4.13,3.91h0A82,82,0,0,0,781.93,748.94Z" transform="translate(-628.62 -629.48)"/><path class="cls-4" d="M743.46,780.57a11.17,11.17,0,0,0-16.52,9.83,10.83,10.83,0,0,0,.16,1.74,79.66,79.66,0,0,0,20.49-7.66h0A14.48,14.48,0,0,1,743.46,780.57Z" transform="translate(-628.62 -629.48)"/><path class="cls-4" d="M726.88,792.19A11.14,11.14,0,0,0,708.59,794c0.63,0,1.25,0,1.89,0A80.25,80.25,0,0,0,726.88,792.19Z" transform="translate(-628.62 -629.48)"/><path class="cls-4" d="M747.59,784.48a11.22,11.22,0,0,0-4.13-3.91A14.48,14.48,0,0,0,747.59,784.48Z" transform="translate(-628.62 -629.48)"/></g><polygon class="cls-5" points="69.82 113.5 72.41 120.62 89.67 120.59 92.4 113.36 69.82 113.5"/><path class="cls-6" d="M688.23,709.84s-5.95,2.39-8.76,12.66-1,32.13-1,32.13l17.68-14Z" transform="translate(-628.62 -629.48)"/><path class="cls-6" d="M730.67,709.78s6,2.37,8.79,12.63,1.09,32.13,1.09,32.13l-17.72-14Z" transform="translate(-628.62 -629.48)"/><polygon class="cls-7" points="102.04 80.31 105.43 120.03 94.2 111.11 102.04 80.31"/><polygon class="cls-7" points="59.36 80.37 56.09 120.1 67.29 111.15 59.36 80.37"/><path class="cls-8" d="M709.52,647.73l0.14,98.18H699.38a3.13,3.13,0,0,1-2.87-1.87C691.8,733.29,672.35,683.45,709.52,647.73Z" transform="translate(-628.62 -629.48)"/><path class="cls-4" d="M709.52,647.73l0.14,98.18h10.27A3.13,3.13,0,0,0,722.8,744C727.48,733.24,746.79,683.34,709.52,647.73Z" transform="translate(-628.62 -629.48)"/><path class="cls-9" d="M712.3,723.5c-8.54,0-16.22,1.63-21.61,4.21l1.9,5.28c5.23-1.4,12.14-1.94,19.72-2a101.31,101.31,0,0,1,14.88.92l1.59-6.25A58.41,58.41,0,0,0,712.3,723.5Z" transform="translate(-628.62 -629.48)"/><path class="cls-10" d="M709.61,709.23h0c-2.73,4-4.05,7.94-3.7,12.64l3.47,32.58H710l3.37-32.58C713.69,717.15,712.35,713.24,709.61,709.23Z" transform="translate(-628.62 -629.48)"/><circle class="cls-1" cx="709.17" cy="684.23" r="10.26" transform="translate(-629.63 -628.43) rotate(-0.08)"/><circle class="cls-11" cx="709.17" cy="684.23" r="7.6" transform="translate(-629.64 -628.43) rotate(-0.08)"/><polygon class="cls-12" points="27.68 60.59 28.95 62.23 30.9 61.52 29.74 63.23 31.01 64.87 29.02 64.3 27.86 66.01 27.79 63.94 25.8 63.37 27.75 62.66 27.68 60.59"/><polygon class="cls-12" points="127.05 48.09 127.23 51.99 130.99 53.02 127.34 54.4 127.52 58.29 125.08 55.24 121.43 56.62 123.58 53.36 121.14 50.31 124.9 51.35 127.05 48.09"/><polygon class="cls-12" points="136.99 98.31 137.17 102.2 140.94 103.24 137.28 104.61 137.46 108.51 135.03 105.46 131.38 106.83 133.52 103.58 131.09 100.53 134.85 101.56 136.99 98.31"/></svg>