<svg id="Layer_1" data-name="Layer 1" xmlns="http://www.w3.org/2000/svg" viewBox="0 0 164.73 164.73"><defs><style>.cls-1{fill:#77b4be;}.cls-2{fill:#ea7570;}.cls-3{fill:#eeeef0;}.cls-4{fill:#f0c418;}.cls-5{fill:#82bdd8;}.cls-6{fill:#18142d;opacity:0.33;}.cls-7{fill:#e0ddde;}.cls-8{fill:#374552;}</style></defs><title>target</title><path class="cls-1" d="M219.71,2513.63c-0.5-45.44,35.37-82.68,80.11-83.17s81.42,36,81.92,81.4-35.37,82.68-80.12,83.17-81.42-36-81.92-81.4" transform="translate(-218.36 -2430.37)"/><circle class="cls-2" cx="82.36" cy="82.37" r="82.37"/><circle class="cls-3" cx="82.36" cy="82.37" r="64.19"/><circle class="cls-2" cx="82.36" cy="82.37" r="42.32"/><circle class="cls-3" cx="82.36" cy="82.37" r="19.31"/><path class="cls-4" d="M365.24,2466.4l-13.75,13.53a3.4,3.4,0,0,1-3.46.8l-8.42-2.8-2.57-8.83a3.4,3.4,0,0,1,.95-3.44l13.73-12.78,1.54,12.1Z" transform="translate(-218.36 -2430.37)"/><path class="cls-1" d="M351.73,2452.89L338,2465.67a3.4,3.4,0,0,0-.95,3.44l2.48,8.54L353.15,2464Z" transform="translate(-218.36 -2430.37)"/><path class="cls-5" d="M353.27,2465l-0.12-1-13.62,13.62,0.08,0.29,8.42,2.8a3.4,3.4,0,0,0,3.46-.8l13.75-13.53Z" transform="translate(-218.36 -2430.37)"/><path class="cls-6" d="M304.66,2511v1.83h-2.53a4,4,0,0,0-.08.6,4.14,4.14,0,0,0,1.17,3l54.5,56,3.42-3.38Z" transform="translate(-218.36 -2430.37)"/><path class="cls-7" d="M361.68,2458.3a0.83,0.83,0,0,1,0,1.17l-57.76,56.82a0.83,0.83,0,0,1-1.16,0l-1.07-1.07a1.81,1.81,0,0,1,0-2.57l57-56.12a0.83,0.83,0,0,1,1.16,0Z" transform="translate(-218.36 -2430.37)"/><path class="cls-8" d="M359.91,2456.53a0.82,0.82,0,0,0-1.16,0l-57,56.12a1.81,1.81,0,0,0,0,2.57l0.67,0.67,58.46-58.46Z" transform="translate(-218.36 -2430.37)"/><path class="cls-8" d="M360.82,2457.44l-58.46,58.46,0.39,0.39a0.83,0.83,0,0,0,1.16,0l57.75-56.82a0.83,0.83,0,0,0,0-1.17Z" transform="translate(-218.36 -2430.37)"/></svg>