<svg id="Layer_1" data-name="Layer 1" xmlns="http://www.w3.org/2000/svg" viewBox="0 0 164.44 164.44"><defs><style>.cls-1{fill:#a1cc3f;}.cls-2{fill:#ebebeb;}.cls-3{opacity:0.12;}.cls-4{fill:none;stroke:#ccc;stroke-width:0.5px;}.cls-5{fill:#fff;}.cls-6{fill:#a8a8a8;opacity:0.61;}.cls-7{fill:#7d7d7d;}.cls-8{fill:#cebbb4;}.cls-9{fill:#958595;}.cls-10{fill:#414580;}.cls-11{fill:#121245;}.cls-12{fill:#f27971;}.cls-13{fill:#3a6c8c;}.cls-14{fill:#5a9ca5;}.cls-15{fill:#8584ab;}</style></defs><title>text</title><path class="cls-1" d="M907.92,854.61a82.2,82.2,0,1,0,82.34,82.1A82.22,82.22,0,0,0,907.92,854.61Z" transform="translate(-825.81 -854.61)"/><circle class="cls-1" cx="906.23" cy="898.79" r="0.75" transform="translate(-827.61 -852.8) rotate(-0.11)"/><polygon class="cls-2" points="97 29.08 35.15 29.16 35.3 134.51 120.43 134.39 120.31 52.45 97 29.08"/><polygon class="cls-3" points="97.16 52.49 120.73 89.63 120.31 52.45 97.16 52.49"/><polyline class="cls-4" points="97.13 29.08 97.16 52.49 120.31 52.45"/><polygon class="cls-5" points="97.16 52.49 120.31 52.45 97.13 29.08 97.16 52.49"/><rect class="cls-6" x="871.26" y="902.96" width="24.21" height="40.57" transform="translate(-827.15 -853.33) rotate(-0.08)"/><rect class="cls-6" x="901.7" y="912.22" width="40.11" height="2.39" transform="translate(-827.13 -853.29) rotate(-0.08)"/><rect class="cls-6" x="901.76" y="949.33" width="40.1" height="2.39" transform="translate(-827.18 -853.29) rotate(-0.08)"/><rect class="cls-6" x="870.03" y="949.39" width="28.53" height="2.39" transform="translate(-827.18 -853.34) rotate(-0.08)"/><rect class="cls-6" x="901.77" y="961.7" width="40.1" height="2.39" transform="translate(-827.2 -853.29) rotate(-0.08)"/><rect class="cls-6" x="870.05" y="961.76" width="28.53" height="2.39" transform="translate(-827.2 -853.34) rotate(-0.08)"/><rect class="cls-6" x="901.8" y="980.26" width="40.11" height="2.39" transform="translate(-827.22 -853.29) rotate(-0.08)"/><rect class="cls-6" x="870.08" y="980.31" width="28.53" height="2.39" transform="translate(-827.22 -853.34) rotate(-0.08)"/><rect class="cls-6" x="901.73" y="930.78" width="40.1" height="2.39" transform="translate(-827.15 -853.29) rotate(-0.08)"/><rect class="cls-6" x="901.75" y="943.15" width="40.1" height="2.39" transform="translate(-827.17 -853.29) rotate(-0.08)"/><rect class="cls-6" x="920.47" y="918.39" width="21.35" height="2.39" transform="translate(-827.12 -853.29) rotate(-0.08)"/><rect class="cls-6" x="901.91" y="918.42" width="14.77" height="2.39" transform="translate(-827.15 -853.29) rotate(-0.08)"/><rect class="cls-6" x="920.49" y="936.95" width="21.35" height="2.39" transform="translate(-827.14 -853.29) rotate(-0.08)"/><rect class="cls-6" x="901.94" y="936.98" width="14.76" height="2.39" transform="translate(-827.17 -853.29) rotate(-0.08)"/><rect class="cls-6" x="920.52" y="955.5" width="21.35" height="2.39" transform="translate(-827.17 -853.29) rotate(-0.08)"/><rect class="cls-6" x="901.97" y="955.54" width="14.76" height="2.39" transform="translate(-827.21 -853.29) rotate(-0.08)"/><rect class="cls-6" x="883.59" y="955.56" width="15.59" height="2.39" transform="translate(-827.19 -853.32) rotate(-0.08)"/><rect class="cls-6" x="870.04" y="955.58" width="10.78" height="2.39" transform="translate(-827.2 -853.34) rotate(-0.08)"/><rect class="cls-6" x="901.78" y="967.89" width="40.11" height="2.39" transform="translate(-827.2 -853.29) rotate(-0.08)"/><rect class="cls-6" x="883.6" y="967.93" width="15.59" height="2.39" transform="translate(-827.21 -853.32) rotate(-0.08)"/><rect class="cls-6" x="870.06" y="967.95" width="10.78" height="2.39" transform="translate(-827.22 -853.34) rotate(-0.08)"/><rect class="cls-6" x="901.79" y="974.07" width="40.1" height="2.39" transform="matrix(1, 0, 0, 1, -827.22, -853.28)"/><rect class="cls-6" x="883.61" y="974.12" width="15.59" height="2.39" transform="translate(-827.21 -853.33) rotate(-0.08)"/><rect class="cls-6" x="870.07" y="974.14" width="10.78" height="2.39" transform="translate(-827.23 -853.34) rotate(-0.08)"/><rect class="cls-6" x="928.46" y="924.57" width="13.37" height="2.39" transform="translate(-827.17 -853.24) rotate(-0.08)"/><rect class="cls-6" x="901.92" y="924.6" width="24.14" height="2.39" transform="translate(-827.16 -853.28) rotate(-0.08)"/><polygon class="cls-7" points="45.47 88.94 52.24 74.36 60.24 88.85 45.47 88.94"/><polygon class="cls-7" points="54.38 88.93 64.59 64.11 69.15 88.84 54.38 88.93"/><circle class="cls-7" cx="878.3" cy="915.14" r="2.79" transform="translate(-827.25 -853.23) rotate(-0.09)"/><polygon class="cls-8" points="135.06 70.51 135.06 70.18 132.76 63.03 130.77 63.01 130.7 70.47 135.06 70.51"/><polygon class="cls-9" points="130.7 70.47 130.77 63.01 129.56 63 127 70.1 126.99 70.43 130.7 70.47"/><polygon class="cls-10" points="132.76 63.03 131.24 58.32 131.19 63.01 132.76 63.03"/><polygon class="cls-11" points="131.19 63.01 131.24 58.32 129.56 63 131.19 63.01"/><path class="cls-12" d="M958.62,987.26a1.62,1.62,0,0,0,1.66-1.58l0-4.83-4.36,0-0.06,6.43Z" transform="translate(-825.81 -854.61)"/><path class="cls-12" d="M952.22,985.6a1.57,1.57,0,0,0,1.53,1.61l2.18,0L956,980.8l-3.72,0Z" transform="translate(-825.81 -854.61)"/><rect class="cls-13" x="929.16" y="948.47" width="50.52" height="3.71" transform="translate(-831.73 1040.05) rotate(-89.4)"/><rect class="cls-14" x="933.19" y="948.18" width="50.52" height="4.36" transform="translate(-826.94 1044.97) rotate(-89.45)"/><rect class="cls-8" x="955.58" y="976.04" width="5.21" height="4.36" transform="matrix(0.01, -1, 1, 0.01, -854.97, 1072.39)"/><rect class="cls-15" x="951.54" y="976.33" width="5.21" height="3.71" transform="translate(-859.35 1067.88) rotate(-89.43)"/></svg>