<svg id="Layer_1" data-name="Layer 1" xmlns="http://www.w3.org/2000/svg" viewBox="0 0 162.04 164.58"><defs><style>.cls-1{fill:#ebc865;}.cls-2{fill:#ea7570;}.cls-3{fill:#c7c7c7;}.cls-4{fill:#eeeef0;}.cls-5{fill:#393939;opacity:0.54;}.cls-6{fill:#999a9a;}.cls-7{fill:#7b7b7b;}.cls-8,.cls-9{fill:none;}.cls-8{stroke:#364f40;opacity:0.47;}.cls-9{stroke:#69a68f;}</style></defs><title>todo</title><path class="cls-1" d="M14.25,2515.09c-0.07-45.45,36.15-82.34,80.9-82.41s81.07,36.73,81.14,82.17-36.15,82.34-80.9,82.41-81.07-36.73-81.14-82.17" transform="translate(-14.25 -2432.68)"/><rect class="cls-2" x="37.41" y="35.75" width="87.22" height="98.77" rx="3.78" ry="3.78"/><rect class="cls-3" x="40.99" y="39.81" width="80.05" height="90.65"/><rect class="cls-4" x="40.99" y="39.81" width="80.05" height="84.79"/><rect class="cls-5" x="52.94" y="60.34" width="56.16" height="1.66"/><rect class="cls-5" x="52.94" y="71.23" width="56.16" height="1.66"/><rect class="cls-5" x="52.94" y="82.11" width="56.16" height="1.66"/><rect class="cls-5" x="52.94" y="93" width="56.16" height="1.66"/><rect class="cls-5" x="52.94" y="103.89" width="56.16" height="1.66"/><rect class="cls-5" x="52.94" y="114.77" width="56.16" height="1.66"/><path class="cls-6" d="M116.84,2482.3a8.23,8.23,0,0,0-8.23-8.23H81.93a8.23,8.23,0,0,0-8.23,8.23h43.15Z" transform="translate(-14.25 -2432.68)"/><path class="cls-7" d="M74.17,2479.58a8.21,8.21,0,0,0-.47,2.72h43.15a8.21,8.21,0,0,0-.47-2.72H74.17Z" transform="translate(-14.25 -2432.68)"/><path class="cls-6" d="M95.73,2458.28a7.3,7.3,0,0,0-7.3,7.3v9.29h13.41v-10.49A6.11,6.11,0,0,0,95.73,2458.28Zm-0.6,8.93a2.32,2.32,0,1,1,2.32-2.33A2.32,2.32,0,0,1,95.13,2467.2Z" transform="translate(-14.25 -2432.68)"/><rect class="cls-8" x="45.24" y="58.88" width="4.51" height="4.58"/><rect class="cls-8" x="45.24" y="69.77" width="4.51" height="4.58"/><rect class="cls-8" x="45.24" y="80.65" width="4.51" height="4.58"/><rect class="cls-8" x="45.24" y="91.54" width="4.51" height="4.58"/><rect class="cls-8" x="45.24" y="102.42" width="4.51" height="4.58"/><rect class="cls-8" x="45.24" y="113.31" width="4.51" height="4.58"/><polyline class="cls-9" points="46.62 56.64 47.5 61.45 54.67 53.19"/><polyline class="cls-9" points="46.62 68.07 47.5 72.89 54.67 64.62"/><polyline class="cls-9" points="46.62 90.86 47.5 95.67 54.67 87.41"/></svg>