<svg xmlns="http://www.w3.org/2000/svg" viewBox="0 0 281 203.36"><defs><style>.cls-1{fill:#9e4e13;}.cls-2{fill:#d58744;}.cls-3{fill:#d8d55b;}.cls-4{fill:#70706b;}.cls-5{fill:#f7f5e2;}.cls-6{fill:#dddcc9;}.cls-7{fill:#fdbb8e;}.cls-8{fill:#007aaa;}.cls-9{fill:#5e2702;}.cls-10{fill:#4e2001;}.cls-11{fill:#f8b700;}.cls-12{fill:#ffd336;}.cls-13{fill:#ffc321;}</style></defs><title>Asset 2</title><g id="Layer_2" data-name="Layer 2"><g id="objects"><rect class="cls-1" y="46" width="281" height="13" rx="6.5" ry="6.5"/><rect class="cls-1" y="90" width="281" height="13" rx="6.5" ry="6.5"/><rect class="cls-2" x="17" width="249" height="147" rx="8.18" ry="8.18"/><rect class="cls-3" x="99.34" y="31.8" width="98.94" height="77.27" transform="translate(44.62 197.91) rotate(-76.07)"/><path class="cls-4" d="M124.93,27a.83.83,0,0,1-1,.61L117.45,26a.83.83,0,1,1,.4-1.62L124.32,26A.83.83,0,0,1,124.93,27Z"/><path class="cls-4" d="M122.93,35.09a.84.84,0,0,1-1,.61l-6.47-1.61a.83.83,0,1,1,.4-1.62l6.47,1.61A.83.83,0,0,1,122.93,35.09Z"/><path class="cls-4" d="M121.05,42.65a.83.83,0,0,1-1,.61l-6.47-1.61A.83.83,0,1,1,114,40l6.47,1.61A.83.83,0,0,1,121.05,42.65Z"/><path class="cls-4" d="M119,50.74a.83.83,0,0,1-1,.61l-6.47-1.61a.83.83,0,0,1,.4-1.62l6.47,1.61A.83.83,0,0,1,119,50.74Z"/><path class="cls-4" d="M117.17,58.29a.83.83,0,0,1-1,.61l-6.47-1.61a.83.83,0,1,1,.4-1.62l6.47,1.61A.83.83,0,0,1,117.17,58.29Z"/><path class="cls-4" d="M115.16,66.39a.84.84,0,0,1-1,.61l-6.47-1.61a.83.83,0,1,1,.4-1.62l6.47,1.61A.83.83,0,0,1,115.16,66.39Z"/><path class="cls-4" d="M113.29,73.94a.83.83,0,0,1-1,.61l-6.47-1.61a.83.83,0,0,1,.4-1.62l6.47,1.61A.83.83,0,0,1,113.29,73.94Z"/><path class="cls-4" d="M111.28,82a.83.83,0,0,1-1,.61L103.8,81a.83.83,0,1,1,.4-1.62L110.67,81A.83.83,0,0,1,111.28,82Z"/><path class="cls-4" d="M109.41,89.59a.84.84,0,0,1-1,.61l-6.47-1.61a.83.83,0,0,1,.4-1.62l6.47,1.61A.84.84,0,0,1,109.41,89.59Z"/><path class="cls-4" d="M107.4,97.68a.83.83,0,0,1-1,.61l-6.47-1.61a.83.83,0,1,1,.4-1.62l6.47,1.61A.83.83,0,0,1,107.4,97.68Z"/><path class="cls-4" d="M126.81,19.45a.83.83,0,0,1-1,.61l-6.47-1.61a.83.83,0,1,1,.4-1.62l6.47,1.61A.83.83,0,0,1,126.81,19.45Z"/><path class="cls-4" d="M105.53,105.23a.84.84,0,0,1-1,.61L98,104.23a.83.83,0,0,1,.4-1.62l6.48,1.61A.83.83,0,0,1,105.53,105.23Z"/><rect class="cls-5" x="142.09" y="32.55" width="22.12" height="40.74" transform="translate(64.91 188.83) rotate(-76.07)"/><rect class="cls-6" x="151.11" y="41.73" width="1.16" height="33.76" transform="translate(58.29 191.73) rotate(-76.07)"/><rect class="cls-6" x="152.51" y="36.08" width="1.16" height="33.76" transform="translate(64.84 188.8) rotate(-76.07)"/><rect class="cls-6" x="153.91" y="30.43" width="1.16" height="33.76" transform="translate(71.39 185.87) rotate(-76.07)"/><rect class="cls-1" x="77.35" y="143.89" width="127.13" height="59.46" rx="20.5" ry="20.5"/><rect class="cls-2" x="77.35" y="135.69" width="127.13" height="59.46" rx="20.5" ry="20.5"/><circle class="cls-7" cx="140.24" cy="115.87" r="36.91"/><circle class="cls-7" cx="140.24" cy="82.21" r="6.95"/><path class="cls-8" d="M213.92,101.74c9-12.8,6.76-4.76,11.23-2.72,0,0,7,0,4.78,10.39-2.58,11.81-22.09,50.82-22.09,50.82a8.89,8.89,0,0,1-11.77,4.41l-.62-.28A8.89,8.89,0,0,1,191,152.58S204.94,114.54,213.92,101.74Z"/><path class="cls-8" d="M76.64,95.39C70.58,81,71,89.31,66.25,90.35c0,0-6.89-1.45-6.87,9.14,0,12.09,10.83,54.34,10.83,54.34a8.89,8.89,0,0,0,10.57,6.8l.67-.15a8.89,8.89,0,0,0,6.8-10.57S82.7,109.8,76.64,95.39Z"/><path class="cls-8" d="M71.2,150.88c0,13.13,22.95,32,36.08,32h67.27c13.13,0,36.08-18.85,36.08-32v.39a23.78,23.78,0,0,0-23.78-23.77H95A23.78,23.78,0,0,0,71.2,151.26Z"/><path class="cls-9" d="M179.7,121a39.72,39.72,0,1,0,.52,6.15A40,40,0,0,0,179.7,121Z"/><path class="cls-8" d="M205.33,63.58a7.14,7.14,0,0,1,5.07-8.73l.53-.14a7.14,7.14,0,0,1,8.73,5.06l11.14,41.91a7.14,7.14,0,0,1-5.06,8.73l-.53.14a7.14,7.14,0,0,1-8.73-5.07Z"/><path class="cls-8" d="M102.84,68.83a7.14,7.14,0,0,0-.5-10.08l-.41-.37a7.14,7.14,0,0,0-10.08.5L61,92c-2.65,2.92-.66,6.5,2.26,9.15l.41.37a7.14,7.14,0,0,0,10.08-.5Z"/><path class="cls-7" d="M219.65,59.77s-3.49-13.14-9.52-17.6-20.53,1.15-18,7.29a21.91,21.91,0,0,0,7.09,9.23s-6.06-2.71-6.64,0S202,65.83,206.5,68Z"/><path class="cls-7" d="M91.85,58.88s6.4-9.63,13.24-12.71S127.71,47.54,124,53a21.92,21.92,0,0,1-8.88,7.51s6.49-1.36,6.49,1.37S108,69.17,102.84,68.83Z"/><path class="cls-10" d="M109.34,97.75S109.61,83.4,136.52,87c13.17,1.77,26.75-6.22,26.75-6.22a20.16,20.16,0,0,1,7.63,16.11S172.52,113,138.27,113C107,113,109.34,97.75,109.34,97.75Z"/><rect class="cls-11" x="52.76" y="44.81" width="0.53" height="33.9" transform="translate(-15.84 105.15) rotate(-81.56)"/><rect class="cls-12" x="52.84" y="44.28" width="0.53" height="33.9" transform="translate(-15.25 104.77) rotate(-81.56)"/><polygon class="cls-13" points="41.39 24.68 41.31 25.23 41.23 25.78 41.15 26.33 40.41 31.28 73.94 36.25 74.68 31.3 74.76 30.75 74.84 30.2 74.92 29.65 41.39 24.68"/><polygon class="cls-11" points="38.13 46.66 36.47 57.88 36.38 58.47 69.91 63.45 69.99 62.92 47.5 59.21 38.13 46.66"/><polygon class="cls-12" points="38.06 47.12 47.28 59.55 69.99 62.92 74.02 35.73 40.49 30.75 38.06 47.12"/><polygon class="cls-13" points="48.89 48.73 38.06 47.12 47.29 59.49 48.89 48.73"/></g></g></svg>