<svg xmlns="http://www.w3.org/2000/svg" viewBox="0 0 281 203.36"><defs><style>.cls-1{fill:#9e4e13;}.cls-2{fill:#d58744;}.cls-3{fill:#f7f5e2;}.cls-4{fill:#eae8d8;}.cls-5{fill:#fcb040;}.cls-6{fill:#fdbb8e;}.cls-7{fill:#9b4308;}.cls-8{fill:#fff;}.cls-9{fill:#d8d55b;}</style></defs><title>Asset 3</title><g id="Layer_2" data-name="Layer 2"><g id="objects"><rect class="cls-1" y="46" width="281" height="13" rx="6.5" ry="6.5"/><rect class="cls-1" y="90" width="281" height="13" rx="6.5" ry="6.5"/><rect class="cls-2" x="16" width="249" height="147" rx="8.18" ry="8.18"/><path class="cls-3" d="M97.37,33.21l1.87,5.62L101.6,38A1.81,1.81,0,0,1,103,36.35a2,2,0,1,1,1.28,3.87,1.85,1.85,0,0,1-2.15-.56l-2.33.77,1.86,5.62,2.37-.79a1.83,1.83,0,0,1,1.34-1.76,2,2,0,0,1,2.57,1.25,2.09,2.09,0,0,1-1.28,2.64,2.66,2.66,0,0,1-2.13-.51l-2.33.77L104,53.27l2.37-.79a1.94,1.94,0,0,1,1.32-1.82,2,2,0,0,1,2.56,1.21A2.14,2.14,0,0,1,109,54.57a2.61,2.61,0,0,1-2.12-.46l-2.33.77,1.73,5.22,2.37-.79A1.82,1.82,0,0,1,110,57.62a2,2,0,1,1,1.28,3.87,1.85,1.85,0,0,1-2.15-.56l-2.33.77,1.86,5.62,2.37-.79a1.88,1.88,0,0,1,1.34-1.76A2,2,0,0,1,115,66a2.1,2.1,0,0,1-1.28,2.64,2.65,2.65,0,0,1-2.13-.51l-2.33.77,1.86,5.62,2.37-.79a2,2,0,0,1,1.32-1.83,2,2,0,0,1,2.56,1.21,2.15,2.15,0,0,1-1.27,2.69,2.61,2.61,0,0,1-2.12-.46l-2.33.77,1.73,5.22,2.37-.79a1.82,1.82,0,0,1,1.36-1.7,2,2,0,0,1,2.58,1.28,2.05,2.05,0,0,1-1.3,2.59,2.7,2.7,0,0,1-2.15-.55l-2.33.77,1.87,5.62,2.37-.79A1.88,1.88,0,0,1,119.45,86,2,2,0,0,1,122,87.27a2.1,2.1,0,0,1-1.28,2.65,2.64,2.64,0,0,1-2.13-.5l-2.33.77,1.87,5.62,2.37-.79a2,2,0,0,1,3.87-.63,2.15,2.15,0,0,1-1.26,2.7,2.6,2.6,0,0,1-2.11-.45l-2.33.77,1.73,5.22,2.37-.79a1.82,1.82,0,0,1,1.36-1.7,2,2,0,0,1,2.58,1.27,2.06,2.06,0,0,1-1.3,2.6,2.72,2.72,0,0,1-2.15-.55l-2.33.77,2.13,6.42,60.59-20.12L158,13.09Z"/><rect class="cls-4" x="110.03" y="36.17" width="48.2" height="0.85" transform="translate(-4.7 44.13) rotate(-18.37)"/><rect class="cls-4" x="111.23" y="39.79" width="48.2" height="0.85" transform="translate(-5.78 44.69) rotate(-18.37)"/><rect class="cls-4" x="116.16" y="54.63" width="48.2" height="0.85" transform="translate(-10.2 47) rotate(-18.37)"/><rect class="cls-4" x="120.02" y="66.27" width="48.2" height="0.84" transform="translate(-13.67 48.8) rotate(-18.36)"/><rect class="cls-4" x="122.42" y="73.49" width="48.2" height="0.85" transform="translate(-15.83 49.93) rotate(-18.37)"/><rect class="cls-4" x="124.95" y="81.12" width="48.2" height="0.85" transform="translate(-18.1 51.12) rotate(-18.37)"/><rect class="cls-4" x="108.7" y="32.16" width="48.2" height="0.85" transform="translate(-3.5 43.5) rotate(-18.37)"/><rect class="cls-4" x="127.48" y="88.74" width="48.2" height="0.85" transform="translate(-20.37 52.3) rotate(-18.37)"/><rect class="cls-4" x="112.43" y="43.4" width="48.2" height="0.85" transform="translate(-6.85 45.25) rotate(-18.37)"/><rect class="cls-4" x="113.76" y="47.41" width="48.2" height="0.85" transform="translate(-8.05 45.87) rotate(-18.36)"/><rect class="cls-4" x="117.49" y="58.65" width="48.2" height="0.85" transform="translate(-11.4 47.62) rotate(-18.36)"/><rect class="cls-4" x="114.96" y="51.02" width="48.2" height="0.85" transform="matrix(0.95, -0.32, 0.32, 0.95, -9.13, 46.43)"/><rect class="cls-4" x="118.69" y="62.26" width="48.2" height="0.85" transform="translate(-12.48 48.18) rotate(-18.37)"/><rect class="cls-4" x="121.22" y="69.88" width="48.2" height="0.85" transform="matrix(0.95, -0.32, 0.32, 0.95, -14.75, 49.37)"/><rect class="cls-4" x="123.75" y="77.5" width="48.2" height="0.85" transform="translate(-17.02 50.55) rotate(-18.36)"/><rect class="cls-4" x="126.15" y="84.73" width="48.2" height="0.84" transform="translate(-19.18 51.68) rotate(-18.37)"/><rect class="cls-4" x="107.5" y="28.55" width="48.2" height="0.85" transform="translate(-2.43 42.94) rotate(-18.36)"/><rect class="cls-4" x="128.68" y="92.35" width="48.2" height="0.84" transform="translate(-21.45 52.86) rotate(-18.37)"/><polygon class="cls-3" points="68.55 39.98 49.03 50.13 28.45 115.32 88.69 134.34 113.96 54.32 68.55 39.98"/><polygon class="cls-4" points="49.03 50.13 63.87 54.82 68.55 39.98 49.03 50.13"/><rect class="cls-1" x="79.45" y="145.69" width="123.29" height="57.67" rx="19.89" ry="19.89"/><rect class="cls-2" x="79.45" y="137.73" width="123.29" height="57.67" rx="19.89" ry="19.89"/><path class="cls-5" d="M208.71,152.46c0,12.73-22.26,31-35,31H108.47c-12.74,0-35-18.28-35-31v.38a23.06,23.06,0,0,1,23.06-23.06h89.11a23.06,23.06,0,0,1,23.06,23.06Z"/><circle class="cls-6" cx="141.76" cy="118.51" r="35.8"/><circle class="cls-6" cx="141.76" cy="84.37" r="9.61"/><path class="cls-7" d="M141.76,156.29a38.76,38.76,0,0,1-38.28-32.82,38.78,38.78,0,1,0,76.55,0A38.75,38.75,0,0,1,141.76,156.29Z"/><path class="cls-1" d="M141.76,156.29A38.75,38.75,0,0,0,180,123.48a38.73,38.73,0,0,0-76.55,0A38.76,38.76,0,0,0,141.76,156.29Z"/><path class="cls-6" d="M80.86,94C75,80,75.43,88.09,70.78,89.1c0,0-6.68-1.41-6.67,8.86,0,11.72,10.5,52.7,10.5,52.7a8.62,8.62,0,0,0,10.25,6.6l.65-.14a8.62,8.62,0,0,0,6.6-10.25S86.74,108,80.86,94Z"/><path class="cls-6" d="M96.84,59.58a6.92,6.92,0,0,0-3-9.32L93.36,50A6.92,6.92,0,0,0,84,53L64.87,90.46a6.92,6.92,0,0,0,3,9.32l.47.24a6.93,6.93,0,0,0,9.32-3Z"/><path class="cls-5" d="M93.09,133.57c4.09,18,1.62,33.83-5.52,35.46s-16.24-11.61-20.33-29.57c-2.17-9.51-1.45-21-1.45-21l23.28-5.27S91,124.41,93.09,133.57Z"/><path class="cls-6" d="M200.18,94c5.88-14,5.43-5.9,10.08-4.89,0,0,6.68-1.41,6.67,8.86,0,11.72-10.5,52.7-10.5,52.7a8.62,8.62,0,0,1-10.25,6.6l-.65-.14a8.62,8.62,0,0,1-6.6-10.25S194.3,108,200.18,94Z"/><path class="cls-6" d="M174.77,68.23a6.92,6.92,0,0,1,.49-9.78l.39-.36a6.92,6.92,0,0,1,9.78.49l29.94,32.08c2.57,2.83.64,6.31-2.19,8.87l-.39.36a6.92,6.92,0,0,1-9.78-.49Z"/><path class="cls-5" d="M187.95,133.57c-4.09,18-1.62,33.83,5.52,35.46s16.24-11.61,20.33-29.57c2.17-9.51,1.45-21,1.45-21L192,113.24S190,124.41,187.95,133.57Z"/><path class="cls-6" d="M84,53s6-11.74,12.64-14.72,19.22,5.31,15.58,10.61a21.24,21.24,0,0,1-8.62,7.29s6.3-1.32,6.3,1.33-13.59,6.3-18.56,6Z"/><path class="cls-6" d="M185.42,58.58s-6.21-9.34-12.84-12.33-21.94,1.33-18.29,6.63a21.24,21.24,0,0,0,8.62,7.29s-6.3-1.32-6.3,1.33,13.59,6.3,18.56,6Z"/><path class="cls-5" d="M175.28,59.33a2.32,2.32,0,0,1,1.59,2.88l-.12.41a2.32,2.32,0,0,1-2.88,1.59L149.09,57a2.32,2.32,0,0,1-1.59-2.88l.12-.41a2.32,2.32,0,0,1,2.88-1.59Z"/><path class="cls-8" d="M247.43,42.65a2.08,2.08,0,0,1,1.42,2.57l-.11.36A2.08,2.08,0,0,1,246.17,47L224,40.61A2.07,2.07,0,0,1,222.59,38l.1-.37a2.07,2.07,0,0,1,2.58-1.42Z"/><path class="cls-5" d="M245.14,58.78a2.08,2.08,0,0,1,2.77,1l.16.34a2.08,2.08,0,0,1-1,2.77l-20.79,10a2.07,2.07,0,0,1-2.77-1l-.17-.34a2.08,2.08,0,0,1,1-2.77Z"/><path class="cls-9" d="M246.27,62.53a2.08,2.08,0,0,1,.4,2.91l-.23.3a2.08,2.08,0,0,1-2.91.4l-18.35-14a2.07,2.07,0,0,1-.4-2.91L225,49a2.08,2.08,0,0,1,2.92-.39Z"/></g></g></svg>