<svg xmlns="http://www.w3.org/2000/svg" viewBox="0 0 281 203.36"><defs><style>.cls-1{fill:#9e4e13;}.cls-2{fill:#d58744;}.cls-3{fill:#ffd336;}.cls-4{fill:#f7f5e2;}.cls-5{fill:#eae8d8;}.cls-6{fill:#898984;}.cls-7{fill:#70706b;}.cls-8{fill:#a02088;}.cls-9{fill:#f5ceb4;}.cls-10{fill:#e79007;}.cls-11{fill:#f29611;}.cls-12{fill:#02838a;}.cls-13{fill:none;stroke:#ffd012;stroke-linecap:round;stroke-miterlimit:10;stroke-width:2px;}</style></defs><title>Asset 1</title><g id="Layer_2" data-name="Layer 2"><g id="objects"><rect class="cls-1" y="46" width="281" height="13" rx="6.5" ry="6.5"/><rect class="cls-1" y="90" width="281" height="13" rx="6.5" ry="6.5"/><rect class="cls-2" x="16" width="249" height="147" rx="8.18" ry="8.18"/><path class="cls-3" d="M217.12,42.92,216,46.11l1.24.43a1,1,0,0,1,1.18-.3,1.12,1.12,0,0,1,.7,1.43,1.19,1.19,0,0,1-1.47.75,1.37,1.37,0,0,1-.78-.92l-1.21-.42-.94,2.7,1.23.43a1.31,1.31,0,0,1,1.13-.18,1.18,1.18,0,0,1,.68,1.49,1.11,1.11,0,0,1-1.44.67,1,1,0,0,1-.75-1l-1.21-.42L213.27,54l1.24.43a1,1,0,0,1,1.18-.31,1.12,1.12,0,0,1,.71,1.43,1.09,1.09,0,0,1-1.43.64,1,1,0,0,1-.74-1L213,54.69l-1.11,3.19,1.23.43a1,1,0,0,1,1.18-.31,1.12,1.12,0,0,1,.71,1.42,1.09,1.09,0,0,1-1.43.65c-.44-.15-.65-.73-.74-1l-1.21-.42-1,2.94,1.23.43a1.33,1.33,0,0,1,1.14-.19,1.17,1.17,0,0,1,.69,1.48,1.12,1.12,0,0,1-1.44.68,1.45,1.45,0,0,1-.75-1l-1.21-.42-1.11,3.19,1.23.43a1,1,0,0,1,1.19-.32,1.11,1.11,0,0,1,.71,1.42,1.21,1.21,0,0,1-1.48.77c-.44-.15-.79-.35-.78-.9l-1.21-.42-.94,2.7,1.24.43c.18.06.72-.35,1.14-.2a1.16,1.16,0,0,1,.69,1.48,1.24,1.24,0,0,1-1.49.81,1.33,1.33,0,0,1-.79-.86l-1.21-.42-1,2.94,1.23.43a1.47,1.47,0,0,1,1.19-.33,1.1,1.1,0,1,1-.72,2.07,1,1,0,0,1-.74-1l-1.21-.42L205,77.5l1.23.43a1,1,0,0,1,1.19-.34,1.1,1.1,0,1,1-.72,2.08,1,1,0,0,1-.74-1l-1.21-.42-1,2.94,1.24.43a1.35,1.35,0,0,1,1.15-.22,1.16,1.16,0,0,1,.69,1.47,1.26,1.26,0,0,1-1.49.82c-.43-.15-.63-.79-.8-.85l-1.21-.42-1.11,3.19,33.6,11.73,14.9-42.67Z"/><path class="cls-3" d="M202.39,39l.88,3.26,1.26-.34a1,1,0,0,1,.8-.91,1.12,1.12,0,0,1,1.39.79,1.19,1.19,0,0,1-.79,1.45,1.37,1.37,0,0,1-1.16-.32l-1.24.34.75,2.76,1.26-.34a1.31,1.31,0,0,1,.84-.79,1.18,1.18,0,0,1,1.41.84,1.11,1.11,0,0,1-.81,1.36,1,1,0,0,1-1.18-.41l-1.24.34.88,3.26,1.26-.34a1,1,0,0,1,.8-.92,1.12,1.12,0,0,1,1.39.78,1.09,1.09,0,0,1-.82,1.34,1,1,0,0,1-1.19-.44l-1.24.34.88,3.26,1.26-.34a1,1,0,0,1,.8-.92,1.12,1.12,0,0,1,1.39.78,1.09,1.09,0,0,1-.82,1.34,1.49,1.49,0,0,1-1.19-.43l-1.24.34.81,3,1.26-.34a1.33,1.33,0,0,1,.83-.8,1.17,1.17,0,0,1,1.4.84,1.12,1.12,0,0,1-.8,1.37,1.46,1.46,0,0,1-1.18-.4l-1.24.34.88,3.26,1.26-.34a1,1,0,0,1,.8-.94,1.11,1.11,0,0,1,1.39.77,1.21,1.21,0,0,1-.78,1.47c-.45.12-.85.15-1.15-.3l-1.24.34.75,2.76,1.26-.34c.18,0,.4-.7.83-.81a1.16,1.16,0,0,1,1.4.83,1.24,1.24,0,0,1-.77,1.51A1.33,1.33,0,0,1,211.3,67l-1.24.34.81,3,1.26-.34c.11-.3.36-.83.79-.94a1.1,1.1,0,1,1,.57,2.12,1,1,0,0,1-1.19-.42l-1.24.34.88,3.26,1.26-.34a1,1,0,0,1,.79-1,1.1,1.1,0,1,1,.57,2.12,1,1,0,0,1-1.18-.41l-1.24.34.81,3,1.26-.34a1.35,1.35,0,0,1,.82-.83,1.16,1.16,0,0,1,1.4.82,1.26,1.26,0,0,1-.77,1.52c-.45.12-1-.3-1.14-.25l-1.24.34.88,3.26,34.35-9.29-11.8-43.63Z"/><path class="cls-3" d="M38.58,29.33l1.17,3.17L41,32a1,1,0,0,1,.72-1,1.12,1.12,0,0,1,1.46.66,1.19,1.19,0,0,1-.65,1.52A1.37,1.37,0,0,1,41.32,33l-1.21.45,1,2.68,1.23-.45a1.31,1.31,0,0,1,.76-.86,1.18,1.18,0,0,1,1.48.71A1.11,1.11,0,0,1,43.89,37a1,1,0,0,1-1.21-.3l-1.21.45,1.17,3.17,1.23-.45a1,1,0,0,1,.71-1A1.12,1.12,0,0,1,46,39.5a1.09,1.09,0,0,1-.69,1.4,1,1,0,0,1-1.23-.33l-1.2.45,1.17,3.17,1.23-.45a1,1,0,0,1,.71-1,1.12,1.12,0,0,1,1.45.65,1.09,1.09,0,0,1-.69,1.41,1.5,1.5,0,0,1-1.22-.33l-1.21.45,1.08,2.92,1.23-.45a1.33,1.33,0,0,1,.76-.87,1.17,1.17,0,0,1,1.47.7,1.12,1.12,0,0,1-.68,1.44A1.46,1.46,0,0,1,47,48.37l-1.21.45L47,52l1.23-.45a1,1,0,0,1,.71-1,1.11,1.11,0,0,1,1.45.64,1.21,1.21,0,0,1-.64,1.54c-.43.16-.83.23-1.18-.19L47.33,53l1,2.68,1.23-.45c.17-.06.33-.73.75-.89a1.16,1.16,0,0,1,1.47.7,1.24,1.24,0,0,1-.63,1.57A1.33,1.33,0,0,1,50,56.41l-1.21.45,1.08,2.92,1.23-.45c.08-.31.29-.86.71-1a1.1,1.1,0,1,1,.76,2.06,1,1,0,0,1-1.22-.31l-1.21.45,1.17,3.17,1.23-.45a1,1,0,0,1,.7-1A1.1,1.1,0,1,1,54,64.26a1,1,0,0,1-1.22-.3l-1.21.45,1.08,2.92,1.23-.45a1.35,1.35,0,0,1,.75-.9,1.16,1.16,0,0,1,1.47.69,1.26,1.26,0,0,1-.63,1.59c-.43.16-1-.21-1.16-.15l-1.21.45,1.17,3.17L87.65,59.35,72,17Z"/><polygon class="cls-4" points="54.11 64.41 39.43 73.42 26.98 125.48 75.09 136.99 90.38 73.08 54.11 64.41"/><polygon class="cls-5" points="39.43 73.42 51.28 76.26 54.11 64.41 39.43 73.42"/><rect class="cls-4" x="100.49" y="19.58" width="68.47" height="87.51" transform="translate(-9.77 27.5) rotate(-11.25)"/><path class="cls-6" d="M152.11,18.72l-1,6.47.13.07h0a2.23,2.23,0,0,1,.45.33,1.58,1.58,0,0,1,.48.82,1.31,1.31,0,0,1,0,.24,1.34,1.34,0,0,1-.47,1.1,2.17,2.17,0,0,1-1,.42,3.46,3.46,0,0,1-.47.06H150a3,3,0,0,1-1-.16,1.71,1.71,0,0,1-.62-.37A1.29,1.29,0,0,1,148,27a2,2,0,0,1,0-.35,1.45,1.45,0,0,1,.47-1,2.28,2.28,0,0,1,.34-.27l.11-.07,0,0h0l.13-.07L148,18.74l-.4.07,1.06,6.31.2,0-.09-.18a2.55,2.55,0,0,0-.58.44,1.86,1.86,0,0,0-.59,1.33,2.17,2.17,0,0,0,0,.42,1.69,1.69,0,0,0,.54,1,2.48,2.48,0,0,0,1.23.55,3.36,3.36,0,0,0,.67.05v0a3.55,3.55,0,0,0,.76-.07,2.55,2.55,0,0,0,1.15-.51,1.75,1.75,0,0,0,.61-1.41,1.71,1.71,0,0,0,0-.32,2,2,0,0,0-.65-1.08,2.52,2.52,0,0,0-.51-.35l-.09.18.2,0,1-6.32Z"/><rect class="cls-7" x="142.43" y="12.03" width="15.15" height="7.57" transform="translate(-0.07 0.68) rotate(-0.26)"/><rect class="cls-6" x="142.45" y="18.36" width="5.47" height="1.26" transform="translate(-0.08 0.66) rotate(-0.26)"/><rect class="cls-6" x="152.12" y="18.32" width="5.47" height="1.26" transform="translate(-0.08 0.71) rotate(-0.26)"/><rect class="cls-1" x="80" y="145.69" width="123.29" height="57.67" rx="19.89" ry="19.89"/><rect class="cls-2" x="80" y="137.73" width="123.29" height="57.67" rx="19.89" ry="19.89"/><path class="cls-8" d="M209.26,152.46c0,12.73-22.26,31-35,31H109c-12.74,0-35-18.28-35-31v.38a23.06,23.06,0,0,1,23.06-23.06H186.2a23.06,23.06,0,0,1,23.06,23.06Z"/><circle class="cls-9" cx="142.3" cy="118.51" r="35.8"/><circle class="cls-9" cx="142.3" cy="84.78" r="5.58"/><path class="cls-10" d="M142.3,156.29A38.76,38.76,0,0,1,104,123.48a38.78,38.78,0,1,0,76.55,0A38.75,38.75,0,0,1,142.3,156.29Z"/><path class="cls-11" d="M142.3,156.29a38.75,38.75,0,0,0,38.27-32.82,38.73,38.73,0,0,0-76.55,0A38.76,38.76,0,0,0,142.3,156.29Z"/><path class="cls-9" d="M81.4,94C75.53,80,76,88.09,71.32,89.1c0,0-6.68-1.41-6.66,8.86,0,11.72,10.5,52.7,10.5,52.7a8.62,8.62,0,0,0,10.25,6.6l.65-.14a8.62,8.62,0,0,0,6.6-10.25S87.28,108,81.4,94Z"/><path class="cls-9" d="M97.39,59.58a6.92,6.92,0,0,0-3-9.32L93.91,50a6.92,6.92,0,0,0-9.32,3L65.42,90.46a6.92,6.92,0,0,0,3,9.32l.47.24a6.93,6.93,0,0,0,9.32-3Z"/><path class="cls-8" d="M93.63,133.57c4.09,18,1.62,33.83-5.52,35.46s-16.24-11.61-20.33-29.57c-2.16-9.51-1.45-21-1.45-21l23.28-5.27S91.55,124.41,93.63,133.57Z"/><path class="cls-9" d="M200.72,94c5.88-14,5.43-5.9,10.08-4.89,0,0,6.68-1.41,6.67,8.86,0,11.72-10.5,52.7-10.5,52.7a8.62,8.62,0,0,1-10.25,6.6l-.65-.14a8.62,8.62,0,0,1-6.6-10.25S194.84,108,200.72,94Z"/><path class="cls-9" d="M175.31,68.23a6.92,6.92,0,0,1,.49-9.78l.39-.36a6.92,6.92,0,0,1,9.78.49l29.94,32.08c2.57,2.83.64,6.31-2.2,8.87l-.39.36a6.92,6.92,0,0,1-9.78-.49Z"/><path class="cls-8" d="M188.5,133.57c-4.09,18-1.62,33.83,5.52,35.46s16.24-11.61,20.33-29.57c2.16-9.51,1.45-21,1.45-21l-23.28-5.27S190.58,124.41,188.5,133.57Z"/><path class="cls-9" d="M84.59,53s6-11.74,12.64-14.72,19.22,5.31,15.58,10.61a21.24,21.24,0,0,1-8.62,7.29s6.3-1.32,6.3,1.33-13.59,6.3-18.56,6Z"/><path class="cls-9" d="M186,58.58s-6.21-9.34-12.84-12.33-21.94,1.33-18.29,6.63a21.24,21.24,0,0,0,8.62,7.29s-6.3-1.32-6.3,1.33,13.59,6.3,18.56,6Z"/><path class="cls-12" d="M175.83,59.33a2.32,2.32,0,0,1,1.59,2.88l-.12.41a2.32,2.32,0,0,1-2.88,1.59L149.64,57a2.32,2.32,0,0,1-1.59-2.88l.12-.41A2.32,2.32,0,0,1,151,52.17Z"/><circle class="cls-10" cx="165.53" cy="160.5" r="9.18"/><circle class="cls-10" cx="118.53" cy="160.5" r="9.18"/><path class="cls-13" d="M112.19,153.87a54.86,54.86,0,0,0,14.4,11"/><path class="cls-13" d="M157.47,164.9a42,42,0,0,0,14.7-10.72"/></g></g></svg>