<svg xmlns="http://www.w3.org/2000/svg" viewBox="0 0 316.86 351.06"><defs><style>.cls-1{isolation:isolate;}.cls-2{fill:#518057;}.cls-3{fill:#5d9164;}.cls-4{fill:#32232a;}.cls-5{fill:#fcc895;}.cls-6{fill:#ac9088;}.cls-7{fill:#fff;}.cls-8{fill:#efd8b3;}.cls-9{fill:#f1b380;}.cls-10{fill:#08202c;}.cls-11{fill:#182d39;}.cls-12{fill:#014c3b;}.cls-13{fill:#d6e7da;opacity:0.4;mix-blend-mode:multiply;}.cls-14{fill:#df9b3b;}.cls-15{fill:#ecb07c;}.cls-16{fill:#d8ede2;}.cls-17{fill:#ebf5ee;}.cls-18{fill:#3f525e;}.cls-19{fill:#f3b25e;}.cls-20{fill:#8f6e65;}.cls-21{fill:#fbf6ee;}</style></defs><title>Asset 4</title><g class="cls-1"><g id="Layer_2" data-name="Layer 2"><g id="objets"><path class="cls-2" d="M196.56,147.92c-8-7.15-18.36-13.15-30.95-13.74-17.9-.83-30.82,3.36-40.12,9.29C148.79,152.59,173.71,157.42,196.56,147.92Z"/><path class="cls-3" d="M102.94,174.07l113.14-.33a90.44,90.44,0,0,0-19.52-25.82c-22.85,9.5-47.78,4.68-71.06-4.44A53.22,53.22,0,0,0,102.94,174.07Z"/><path class="cls-4" d="M112.81,170.87s3.2,7.73.61,9.29-8.11-9.29-8.11-9.29Z"/><path class="cls-5" d="M86.81,158s.17,13.83,18.5,16.5S122.64,158,114,151.28,88.47,144.67,86.81,158Z"/><path class="cls-6" d="M108.8,158.13S93.13,119.8,85.47,120.8,99.8,161.25,99.8,161.25,108.09,166.77,108.8,158.13Z"/><polygon class="cls-7" points="232.97 173.74 251.92 155.05 68.14 157.74 83.91 173.74 232.97 173.74"/><path class="cls-8" d="M207.07,82.23c.77-2.69,1.35-5.53,2.06-8A23.81,23.81,0,0,0,207.07,82.23Z"/><path class="cls-8" d="M164.5,73.23a24.32,24.32,0,0,0,.16,2.74A10.37,10.37,0,0,0,164.5,73.23Z"/><path class="cls-9" d="M112.93,77.2v4a15.16,15.16,0,0,0,17.85,3c4-2,5-7.93,7.93-11.9-3,13.88,9.91,20.83,19.83,13.88,3.25-1.62,5.83-5.92,6.11-10.15a24.32,24.32,0,0,1-.16-2.74,10.37,10.37,0,0,1,.16,2.74c1.85,16.38,20.43,18.93,34.55,16.1,4.47-.64,6.47-5,7.86-9.84a23.81,23.81,0,0,1,2.06-8c-.71,2.47-1.29,5.32-2.06,8-.61,8.55,4,16.09,10.44,21.84,2.51-18.05-1.7-36.63-1.7-36.63C207.1,23,116-10.27,98.41,77.24a94.57,94.57,0,0,0-1.94,16.85C104.21,92.66,107.85,83.13,112.93,77.2Z"/><path class="cls-5" d="M207.07,82.23c-1.39,4.86-3.39,9.21-7.86,9.84-14.12,2.83-32.69.28-34.55-16.1-.28,4.23-2.86,8.53-6.11,10.15-9.92,6.94-22.81,0-19.83-13.88-3,4-4,9.92-7.93,11.9a15.16,15.16,0,0,1-17.85-3v-4c-5.08,5.93-8.72,15.46-16.46,16.89-1.3,68.31,91.24,52.75,109.56,35.57,6.87-6.43,10.13-15.94,11.48-25.6C211,98.32,206.46,90.78,207.07,82.23Z"/><path class="cls-10" d="M138.72,52.41c7.93-3,11.9-12.89,20.82-15.87,5-1,10.91-1,15.87,1,16.18,8.52,36,9.71,52,1.09-8.79-6.44-21.22-10.68-21.22-10.68s21.82-3.3,11.9-17.85-48.92,3.3-48.92,3.3S180.37-1.81,153.92.18s-38.34,26.44-38.34,26.44-2-15.87-8.59-11.9,0,14.54,0,14.54-8.59-13.88-12.56-4,9.91,9.59,9.91,9.59c-16.48,3.48-26.87,15.77-26,22.61a43.63,43.63,0,0,1,12.73-6.08C108,46.46,123.84,60.34,138.72,52.41Z"/><path class="cls-11" d="M235.9,50.42c-.23-4.35-3.87-8.39-8.53-11.8-16,8.62-35.78,7.42-52-1.09-5-2-10.91-2-15.87-1-8.92,3-12.89,12.89-20.82,15.87-14.88,7.93-30.74-5.95-47.6-1a43.63,43.63,0,0,0-12.73,6.08,5.57,5.57,0,0,0,.17.86c4.22,14.06,15.21,4,15.21,4-16.53,21.82-11.9,41-3.31,39.67s9.25-22.48,9.25-22.48,6.61,13.22,13.88,8.59,5.29-17.85,5.29-17.85S140,93.39,148.63,86.78s-1.32-17.85-1.32-17.85,32.4,29.75,43,21.82,2.64-19.17,2.64-19.17S216.07,100,223.34,89.43,218.71,63,218.71,63,236.56,63,235.9,50.42Z"/><path class="cls-12" d="M134.77,99.49c-.52,5.29-4.84,8.2-10,9.37v9.33a5.62,5.62,0,1,0,11.24,0V103A5.59,5.59,0,0,0,134.77,99.49Z"/><path class="cls-7" d="M134.77,99.49a5.61,5.61,0,0,0-10,3.49v5.88C129.92,107.69,134.25,104.78,134.77,99.49Z"/><path class="cls-12" d="M188,99.49c-.53,5.29-4.85,8.2-10,9.37v9.33a5.62,5.62,0,1,0,11.24,0V103A5.59,5.59,0,0,0,188,99.49Z"/><path class="cls-7" d="M188,99.49A5.62,5.62,0,0,0,178,103v5.88C183.14,107.69,187.46,104.78,188,99.49Z"/><polygon class="cls-13" points="16.42 351.06 305.37 351.06 208.07 300.61 111.67 300.61 16.42 351.06"/><path class="cls-14" d="M111.74,237.38v78h15.9V291.91h66.51v23.49H210v-78h-98.3Zm15.9,25.32h66.51V276H127.64Z"/><path class="cls-15" d="M115,236.94l7.6,3.53L119.29,247a37.64,37.64,0,0,1-8.53-1.35Z"/><path class="cls-5" d="M97.07,273.56l13.69-27.88a37.64,37.64,0,0,0,8.53,1.35l-15.58,30.44A51.74,51.74,0,0,1,97.07,273.56Z"/><path class="cls-16" d="M97.07,273.56a51.74,51.74,0,0,0,6.64,3.92l-.89,1.74c-2.29-1.12-4.55-2.28-6.87-3.38Z"/><path class="cls-17" d="M92.79,282.28l3.16-6.43c2.32,1.1,4.58,2.26,6.87,3.38L99,286.63a11.68,11.68,0,0,1,1.1,1.61c-2.51.51-4.74.07-6.26-3a12.9,12.9,0,0,1-1.09-3Z"/><path class="cls-10" d="M100.86,290.8c-.11.75-.68,1.36-2.1,1.52-26.33,1.9-31.25-16.3-27.95-24.68C78.12,279.81,87.26,290.67,100.86,290.8Z"/><path class="cls-11" d="M75.41,263.55c8.84-.27,17.16,18.24,17.37,18.71a12.9,12.9,0,0,0,1.09,3c1.53,3,3.76,3.48,6.26,3a4.39,4.39,0,0,1,.72,2.56c-13.6-.13-22.74-11-30-23.16C71.77,265.22,73.4,263.61,75.41,263.55Z"/><path class="cls-15" d="M195.07,240.47l7.6-3.53,5.4,11a51.65,51.65,0,0,1-7.4,3.48Z"/><path class="cls-5" d="M208.07,247.93l12.59,25.64a51.9,51.9,0,0,1-6.64,3.92L200.67,251.4A51.65,51.65,0,0,0,208.07,247.93Z"/><path class="cls-16" d="M220.65,273.56a51.9,51.9,0,0,1-6.64,3.92l.89,1.74c2.29-1.12,4.55-2.28,6.87-3.38Z"/><path class="cls-17" d="M224.94,282.28l-3.16-6.43c-2.32,1.1-4.58,2.26-6.87,3.38l3.78,7.4a11.72,11.72,0,0,0-1.1,1.61c2.51.51,4.74.07,6.26-3a12.86,12.86,0,0,0,1.1-3Z"/><path class="cls-10" d="M216.86,290.8c.11.75.68,1.36,2.1,1.52,26.33,1.9,31.25-16.3,27.95-24.68C239.6,279.81,230.46,290.67,216.86,290.8Z"/><path class="cls-11" d="M242.31,263.55c-8.85-.27-17.16,18.24-17.37,18.71a12.86,12.86,0,0,1-1.1,3c-1.52,3-3.76,3.48-6.26,3a4.42,4.42,0,0,0-.72,2.56c13.6-.13,22.74-11,30-23.16C246,265.22,244.32,263.61,242.31,263.55Z"/><path class="cls-18" d="M132.93,234.44s34.71,3.9,52.25-2l19.65,41.38s11.31.78,19.11-7l-24.72-47.62H118.5L93,268.16S106.62,274,113.25,274Z"/><path class="cls-10" d="M200,244.39c2.43-1,6-3.43,7.15-2s4,4.29,2.86,6-5.72,4-8,4.29S196.57,245.83,200,244.39Z"/><rect class="cls-19" y="172.1" width="316.86" height="22.16"/><path class="cls-14" d="M16.42,215.26v-21h289v24.34C210.21,197.93,111.41,191.86,16.42,215.26Z"/><path class="cls-19" d="M305.37,218.61v37.24h-289V215.26C111.41,191.86,210.21,197.93,305.37,218.61Z"/><rect class="cls-14" x="284.03" y="255.85" width="21.34" height="95.21"/><rect class="cls-14" x="16.42" y="255.85" width="21.34" height="95.21"/><rect class="cls-3" x="19.7" y="167.45" width="55.35" height="4.65"/><rect class="cls-6" x="34.07" y="162.8" width="14.78" height="4.65"/><rect class="cls-20" x="26.68" y="162.8" width="7.39" height="4.65"/><rect class="cls-21" x="244.79" y="159.35" width="48.06" height="9.5"/><path class="cls-3" d="M291.79,157.22c-8.89-.55-42.21-1.15-47,2.13-5.55,3.79-4.39,12.76-.37,12.76h50.51c1.43,0,2.12-3.7-1.44-3.7-6,0-46.36.49-46.36.49l.18-7.65s44.41-.31,46.17-.29C296.45,161,297.79,157.59,291.79,157.22Z"/></g></g></g></svg>