<svg xmlns="http://www.w3.org/2000/svg" viewBox="0 0 316.86 339.13"><defs><style>.cls-1{isolation:isolate;}.cls-2{fill:#bfc822;}.cls-3{fill:#e0828f;}.cls-4{fill:#8f6e65;}.cls-5{fill:#d6e7da;opacity:0.4;mix-blend-mode:multiply;}.cls-6{fill:#df9b3b;}.cls-7{fill:#d5de26;}.cls-8{fill:#3db44b;}.cls-9{fill:#5dbc6d;}.cls-10{fill:#4f241d;}.cls-11{fill:#f1b380;}.cls-12{fill:#fcc895;}.cls-13{fill:#274355;}.cls-14{fill:#fff;}.cls-15{fill:#ebb8a4;}.cls-16{fill:#633d35;}.cls-17{fill:#32232a;}.cls-18{fill:#f3b25e;}.cls-19{fill:#e79d5e;}.cls-20{fill:#91aacd;}.cls-21{fill:#b5b4cf;}.cls-22{fill:#08202c;}.cls-23{fill:#182d39;}</style></defs><title>Asset 2</title><g class="cls-1"><g id="Layer_2" data-name="Layer 2"><g id="objets"><rect class="cls-2" x="243.07" y="155.53" width="49.42" height="4.65"/><rect class="cls-3" x="243.07" y="150.88" width="49.42" height="4.65"/><rect class="cls-4" x="243.07" y="147.08" width="49.42" height="4.65"/><polygon class="cls-5" points="300.44 339.13 11.49 339.13 108.8 288.68 205.19 288.68 300.44 339.13"/><path class="cls-6" d="M189.22,225.46h-82.4v78h15.9V280h66.51v23.49h15.9v-78Zm0,38.63H122.71V250.78h66.51Z"/><path class="cls-2" d="M75.31,151.55a10.07,10.07,0,0,0-9.8-10.06c2.34,8.72-1,14.6-6.82,18.69H75.31Z"/><path class="cls-7" d="M65.51,141.49h-36a10.08,10.08,0,0,0-10.08,10.08v8.63H58.69C64.55,156.1,67.85,150.21,65.51,141.49Z"/><path class="cls-8" d="M195.74,136.44c-8-7.15-18.36-13.15-30.95-13.74-17.9-.83-30.82,3.36-40.12,9.29C148,141.11,172.89,145.94,195.74,136.44Z"/><path class="cls-9" d="M102.12,162.59l113.14-.33a90.43,90.43,0,0,0-19.52-25.82c-22.85,9.5-47.78,4.68-71.06-4.44A53.22,53.22,0,0,0,102.12,162.59Z"/><path class="cls-10" d="M215.12,70.25s24.13-12.25,37.29-.45,5.4,17.08,5.4,17.08,8.28,4.29,8.1,10.91-14.15.21-14.15.21,8.55,8.38,5.23,11.93-14.9-4.46-14.9-4.46,4,9.46,1,12.93-10.44-7.58-10.44-7.58,2.91,8,.1,10.71S189.41,96.37,215.12,70.25Z"/><path class="cls-10" d="M104.39,70.25S80.27,58,67.11,69.79s-5.4,17.08-5.4,17.08-8.28,4.29-8.1,10.91S67.75,98,67.75,98s-8.55,8.38-5.23,11.93,14.89-4.46,14.89-4.46-4,9.46-1,12.93S86.9,110.8,86.9,110.8s-2.91,8-.09,10.71S130.11,96.37,104.39,70.25Z"/><path class="cls-11" d="M158.93,72.16c15.12,17.5,39,27.48,61.79,24.05.13-.74.25-1.49.35-2.23,2.56-18.41-1.73-37.35-1.73-37.35-8.88-45.35-101.76-79.23-119.7,10a96.44,96.44,0,0,0-2,17.18,63.82,63.82,0,0,0,1.13,13.62C122.07,99,148.44,95.76,158.93,72.16Z"/><path class="cls-12" d="M158.93,72.16C148.44,95.76,122.07,99,98.79,97.42c10.64,53.74,93.23,38.91,110.58,22.65,6.47-6.06,9.8-14.8,11.35-23.86C197.92,99.64,174,89.66,158.93,72.16Z"/><path class="cls-13" d="M132.22,114.11a5.73,5.73,0,0,0,5.73-5.73V92.87a5.7,5.7,0,0,0-1.25-3.56c-.54,5.4-4.94,8.37-10.21,9.56v9.51A5.73,5.73,0,0,0,132.22,114.11Z"/><path class="cls-14" d="M136.7,89.31a5.73,5.73,0,0,0-10.21,3.56v6C131.76,97.67,136.17,94.71,136.7,89.31Z"/><path class="cls-13" d="M186.48,114.11a5.73,5.73,0,0,0,5.73-5.73V92.87A5.7,5.7,0,0,0,191,89.31c-.53,5.4-4.94,8.37-10.21,9.56v9.51A5.73,5.73,0,0,0,186.48,114.11Z"/><path class="cls-14" d="M191,89.31a5.73,5.73,0,0,0-10.21,3.56v6C186,97.67,190.43,94.71,191,89.31Z"/><ellipse class="cls-15" cx="117.28" cy="114.97" rx="3.55" ry="8.76" transform="translate(-16.41 210.35) rotate(-79.93)"/><ellipse class="cls-15" cx="201.88" cy="114.97" rx="8.76" ry="3.55" transform="translate(-17.02 37.15) rotate(-10.09)"/><path class="cls-16" d="M176.12,21.6c-17.32,22.79-47,33.25-75.62,29.15A65.81,65.81,0,0,0,99.27,59s-2.7-.68-6.74,4,4,5.06,4,5.06-3.37,1-7.08,7.75S92.2,85,92.2,85c-4.72,8.09,22.58,2.7,38.76-2.7s31-19.21,31-19.21c16.85,27.3,64.37,34.71,66.73,32s1-7.41,1-7.41c4-3.71-4.38-12.13-4.38-12.13a61.69,61.69,0,0,0-4.54-28.43C202,46.71,180.25,42.27,176.12,21.6Z"/><path class="cls-10" d="M184.21,12.17s6.4-3.37,3.37-4.38-8.43,1.35-8.43,1.35,3.71-9.77-1-9.1-3.71,8.76-3.71,8.76-12.81-10.45-42.8.34C110.35,16.78,103,38.67,100.5,50.76c28.64,4.1,58.3-6.36,75.62-29.15,4.13,20.67,25.83,25.11,44.66,25.49C210,21.6,184.21,12.17,184.21,12.17Z"/><path class="cls-17" d="M112,159.39s3.2,7.73.61,9.29-8.11-9.29-8.11-9.29Z"/><path class="cls-12" d="M86,146.53s.17,13.83,18.5,16.5,17.33-16.46,8.67-23.23S87.65,133.19,86,146.53Z"/><path class="cls-3" d="M108,146.65s-15.67-38.33-23.33-37.33S99,149.77,99,149.77,107.26,155.29,108,146.65Z"/><polygon class="cls-14" points="231.96 162.26 250.91 143.57 67.13 146.26 82.9 162.26 231.96 162.26"/><rect class="cls-18" y="160.18" width="316.86" height="22.16"/><path class="cls-6" d="M300.45,203.33v-21h-289v24.34C106.66,186,205.46,179.93,300.45,203.33Z"/><path class="cls-19" d="M185.26,206.12l10.34-1,1.29,19.06a46.58,46.58,0,0,1-10,3.86Z"/><path class="cls-12" d="M189.61,266.47l-2.71-38.38a46.58,46.58,0,0,0,10-3.86l2.28,42.31A64.34,64.34,0,0,1,189.61,266.47Z"/><path class="cls-20" d="M189.61,266.47a64.34,64.34,0,0,0,9.55.06l.13,2.42c-3.16.22-6.3.39-9.47.66Z"/><path class="cls-21" d="M190.46,278.47l-.63-8.86c3.17-.26,6.31-.43,9.47-.66l.55,10.28a14.7,14.7,0,0,1,2.19,1c-2.37,2.11-5,3-8.56.72a15.68,15.68,0,0,1-3-2.54Z"/><path class="cls-22" d="M157.81,276.48c15.4,8.48,32,14.42,46.6,6.08.35.88.12,1.88-1.29,2.94C176.1,303.94,159.5,287.51,157.81,276.48Z"/><path class="cls-21" d="M176.68,270.67c1.52.65,3,1.37,4.4,2.09.21,2.07.25,4.27,1.33,6.13C176.45,279.27,177.54,274.18,176.68,270.67Z"/><path class="cls-21" d="M184.32,274.55c3.5,2,5.94,3.78,6.11,3.9a15.68,15.68,0,0,0,3,2.54,7.7,7.7,0,0,0,3.18,1.27A11.84,11.84,0,0,1,184.32,274.55Z"/><path class="cls-23" d="M160.18,269.23c4.19-2.61,10.63-1.07,16.5,1.43.86,3.52-.23,8.6,5.73,8.22-1.08-1.86-1.13-4.07-1.33-6.13,1.15.6,2.24,1.21,3.24,1.79a11.84,11.84,0,0,0,12.35,7.71,6.56,6.56,0,0,0,5.37-2,5.47,5.47,0,0,1,2.37,2.29c-14.64,8.33-31.2,2.4-46.6-6.08C157.32,273.29,158.07,270.55,160.18,269.23Z"/><path class="cls-19" d="M115.47,209.24,105.2,210.8l3.34,18.81A46.63,46.63,0,0,0,119.16,231Z"/><path class="cls-12" d="M125.76,268.86,119.16,231a46.63,46.63,0,0,1-10.62-1.35l8,41.61A64.37,64.37,0,0,0,125.76,268.86Z"/><path class="cls-20" d="M125.76,268.86a64.37,64.37,0,0,1-9.26,2.36l.46,2.39c3.12-.54,6.21-1.13,9.34-1.64Z"/><path class="cls-21" d="M127.82,280.72,126.3,272c-3.13.51-6.23,1.1-9.34,1.64l1.94,10.11a14.51,14.51,0,0,0-1.87,1.54c2.8,1.48,5.61,1.73,8.48-1.36a15.78,15.78,0,0,0,2.35-3.2Z"/><path class="cls-22" d="M159,270.93c-12.91,11.94-27.55,21.68-43.77,17.12-.13.94.34,1.85,2,2.54C147.89,302,160.06,282,159,270.93Z"/><path class="cls-21" d="M139.33,269.83c-1.32,1-2.59,2-3.77,3.09.3,2.05.78,4.21.18,6.27C141.61,278.12,139.34,273.45,139.33,269.83Z"/><path class="cls-21" d="M132.84,275.44c-2.91,2.82-4.85,5.09-5,5.26a15.78,15.78,0,0,1-2.35,3.2,7.69,7.69,0,0,1-2.79,2A11.84,11.84,0,0,0,132.84,275.44Z"/><path class="cls-23" d="M155,264.47c-4.69-1.53-10.58,1.52-15.67,5.36,0,3.62,2.29,8.29-3.59,9.36.6-2.06.12-4.22-.18-6.27-1,.86-1.88,1.71-2.72,2.52a11.84,11.84,0,0,1-10.13,10.46,6.56,6.56,0,0,1-5.69-.64,5.47,5.47,0,0,0-1.75,2.8c16.22,4.56,30.86-5.18,43.77-17.12C158.74,267.72,157.36,265.24,155,264.47Z"/><path class="cls-8" d="M94.11,238.26S91.9,244.68,98,248s10.31-3.36,10.31-3.36-2.92,9.42,2.92,10.76,7.85-2.24,9.87-5.16c0,0-.9,8.75,6.5,10.54s7.62-7.4,7.62-7.4-.67,8.52,8.3,8.74,6.05-7,6.05-7,.9,8.07,8.29,9,7.85-8.75,7.85-8.75.45,7.18,7.62,7.18S180,254.1,180,254.1a8.29,8.29,0,0,0,10.76,5.16c8.3-2.47,5.38-10.09,5.38-10.09s2.24,7.62,9.42,5.83,3.59-10.54,3.59-10.54,3.36,5.61,9.19,2.69,3.49-8.88,3.49-8.88l-27.48-1.21-70.19,1.79Z"/><path class="cls-9" d="M102.13,218a88.47,88.47,0,0,1-8,20.27s20.93,17.61,63.32,18.46v0l.56,0,.56,0v0c42.38-.86,63.32-18.46,63.32-18.46A88.26,88.26,0,0,1,214,218.59C177.43,225.35,139.91,223.27,102.13,218Z"/><path class="cls-18" d="M11.49,206.68v37.24h289V203.33C205.46,179.93,106.66,186,11.49,206.68Z"/><rect class="cls-6" x="11.49" y="243.92" width="21.34" height="95.21"/><rect class="cls-6" x="279.1" y="243.92" width="21.34" height="95.21"/></g></g></g></svg>