<svg xmlns="http://www.w3.org/2000/svg" viewBox="0 0 316.86 340.25"><defs><style>.cls-1{isolation:isolate;}.cls-2{fill:#d6e7da;opacity:0.4;mix-blend-mode:multiply;}.cls-3{fill:#df9b3b;}.cls-4{fill:#ebaa20;}.cls-5{fill:#2277a2;}.cls-6{fill:#2e8fcd;}.cls-7{fill:#32232a;}.cls-8{fill:#fcc895;}.cls-9{fill:#d92b2b;}.cls-10{fill:#fff;}.cls-11{fill:#f1b380;}.cls-12{fill:#004fa0;}.cls-13{fill:#ebb8a4;}.cls-14{fill:#edb91d;}.cls-15{fill:#f3b25e;}.cls-16{fill:#e79d5e;}.cls-17{fill:#91aacd;}.cls-18{fill:#b5b4cf;}.cls-19{fill:#08202c;}.cls-20{fill:#182d39;}.cls-21{fill:#a5bdc9;}</style></defs><title>Asset 3</title><g class="cls-1"><g id="Layer_2" data-name="Layer 2"><g id="objets"><polygon class="cls-2" points="16.42 340.25 305.37 340.25 208.06 289.8 111.67 289.8 16.42 340.25"/><path class="cls-3" d="M111.74,226.57v78h15.9V281.1h66.51V304.6H210v-78h-98.3Zm15.9,25.32h66.51v13.31H127.64Z"/><path class="cls-4" d="M234.76,67.64s-.63,16.09-8.62,13.46-10.87-35.92-41-49.41c-10.3-4.62-23.65,1.89-36.42,13.56C136,33.58,122.64,27.07,112.34,31.69c-30.1,13.49-33,46.78-41,49.41s-8.62-13.46-8.62-13.46C49,74.83,50.58,102.75,78.8,133c21.86,23.41,50.6,28.92,70,26.46,19.36,2.46,48.1-3.05,70-26.46C246.93,102.75,248.48,74.83,234.76,67.64Z"/><path class="cls-5" d="M188,138.11c-8-7.15-18.36-13.15-30.95-13.74-17.9-.83-30.82,3.36-40.12,9.29C140.22,142.78,165.15,147.61,188,138.11Z"/><path class="cls-6" d="M94.38,164.26l113.14-.33A90.44,90.44,0,0,0,188,138.11c-22.85,9.5-47.78,4.68-71.06-4.44A53.22,53.22,0,0,0,94.38,164.26Z"/><path class="cls-7" d="M104.25,161.05s3.2,7.73.61,9.29-8.11-9.29-8.11-9.29Z"/><path class="cls-8" d="M78.24,148.2s.17,13.83,18.5,16.5,17.33-16.46,8.67-23.23S79.91,134.86,78.24,148.2Z"/><path class="cls-9" d="M100.24,148.32S84.57,110,76.9,111s14.34,40.46,14.34,40.46S99.52,157,100.24,148.32Z"/><polygon class="cls-10" points="225.41 163.93 244.36 145.24 60.58 147.93 76.35 163.93 225.41 163.93"/><path class="cls-8" d="M199.94,84.84c-5.55,8.32-18,4.16-25,0-1.39,0-5.55-1.39-5.55-5.55-18,8.32-49.95,6.94-62.44-12.49A38.12,38.12,0,0,1,88.82,96.88c10.79,53.16,92.71,38.43,109.95,22.28,5.54-5.19,8.75-12.35,10.53-20C203,97.27,198.44,93.08,199.94,84.84Z"/><path class="cls-11" d="M210.4,93.2C212.95,74.89,208.68,56,208.68,56,199.85,10.93,107.45-22.76,89.6,66a96.1,96.1,0,0,0-2,17.09,63.45,63.45,0,0,0,1.12,13.55l.06.25A38.12,38.12,0,0,0,107,66.8c12.49,19.43,44.4,20.81,62.44,12.49,0,4.16,4.16,5.55,5.55,5.55,6.94,4.16,19.42,8.32,25,0-1.5,8.24,3.08,12.43,9.35,14.33.29-1.24.55-2.49.76-3.75C210.18,94.69,210.3,93.94,210.4,93.2Z"/><path class="cls-12" d="M122,113.23a5.7,5.7,0,0,0,5.7-5.7V92.11a5.66,5.66,0,0,0-1.24-3.55c-.53,5.37-4.91,8.32-10.16,9.51v9.46A5.7,5.7,0,0,0,122,113.23Z"/><path class="cls-10" d="M126.48,88.56a5.69,5.69,0,0,0-10.16,3.55v6C121.57,96.88,126,93.93,126.48,88.56Z"/><path class="cls-12" d="M176,113.23a5.7,5.7,0,0,0,5.7-5.7V92.11a5.67,5.67,0,0,0-1.24-3.55c-.53,5.37-4.91,8.32-10.16,9.51v9.46A5.7,5.7,0,0,0,176,113.23Z"/><path class="cls-10" d="M180.46,88.56a5.7,5.7,0,0,0-10.16,3.55v6C175.55,96.88,179.93,93.93,180.46,88.56Z"/><ellipse class="cls-13" cx="107.17" cy="114.08" rx="3.53" ry="8.72" transform="matrix(0.18, -0.98, 0.98, 0.18, -23.92, 199.63)"/><ellipse class="cls-13" cx="191.31" cy="114.08" rx="8.72" ry="3.53" transform="translate(-17.05 35.34) rotate(-10.1)"/><path class="cls-14" d="M154.12,40.32c-12.07,6-28.16-7-42.24-13.08a21,21,0,0,0-8.07-2.16A63.76,63.76,0,0,0,86.4,55.46c-5.08,20.72,2.42,39.62,2.42,39.62C96,90.63,107.09,61.18,107.52,47c0,0,23.47,36.54,37.55,37.21s9.72-8,9.72-8,21.79,15.09,29.84,14.41-.34-15.42-.34-15.42,16.95,19.76,25,21.1c0,0,10.55-21.1,1.83-47.25a63,63,0,0,0-8.21-16.5C186.86,28.57,168.29,33.61,154.12,40.32Z"/><path class="cls-4" d="M141.39,7.13s-2-8-7.38-7,.34,7,.34,7-11.73-3-12.74.33,4.69,3.35,4.69,3.35-11.36,3.1-22.49,14.27a21,21,0,0,1,8.07,2.16c14.08,6,30.17,19.11,42.24,13.08,14.16-6.71,32.74-11.75,48.78-7.78C191.37,16.21,171.53,6.61,141.39,7.13Z"/><rect class="cls-15" y="161.29" width="316.86" height="22.16"/><path class="cls-3" d="M16.42,204.45v-21h289V207.8C210.2,187.12,111.41,181,16.42,204.45Z"/><path class="cls-16" d="M131.6,207.23l-10.34-1L120,225.33a46.67,46.67,0,0,0,10,3.87Z"/><path class="cls-8" d="M127.25,267.58,130,229.2a46.67,46.67,0,0,1-10-3.87l-2.28,42.31A64.26,64.26,0,0,0,127.25,267.58Z"/><path class="cls-17" d="M127.25,267.58a64.26,64.26,0,0,1-9.55.06l-.13,2.42c3.16.23,6.3.39,9.47.66Z"/><path class="cls-18" d="M126.4,279.58l.63-8.86c-3.17-.26-6.31-.43-9.47-.66L117,280.34a14.64,14.64,0,0,0-2.19,1c2.36,2.1,5,3,8.56.72a15.75,15.75,0,0,0,3-2.54Z"/><path class="cls-19" d="M159.05,277.59c-15.4,8.48-32,14.42-46.6,6.08-.35.88-.12,1.88,1.3,2.94C140.76,305.05,157.36,288.63,159.05,277.59Z"/><path class="cls-18" d="M140.18,271.78c-1.52.65-3,1.37-4.4,2.09-.21,2.06-.25,4.28-1.33,6.13C140.41,280.38,139.32,275.3,140.18,271.78Z"/><path class="cls-18" d="M132.54,275.66c-3.5,2-5.94,3.78-6.11,3.9a15.75,15.75,0,0,1-3,2.54,7.79,7.79,0,0,1-3.18,1.27C126.07,283.71,130.33,280.9,132.54,275.66Z"/><path class="cls-20" d="M156.68,270.35c-4.19-2.61-10.63-1.07-16.5,1.43-.86,3.52.23,8.6-5.73,8.22,1.08-1.86,1.13-4.07,1.33-6.13-1.15.6-2.24,1.21-3.24,1.79-2.21,5.24-6.47,8.05-12.34,7.72a6.58,6.58,0,0,1-5.37-2,5.46,5.46,0,0,0-2.37,2.29c14.64,8.33,31.2,2.4,46.6-6.08C159.54,274.4,158.79,271.66,156.68,270.35Z"/><path class="cls-16" d="M201.39,210.36l10.26,1.56-3.34,18.81a46.42,46.42,0,0,1-10.62,1.35Z"/><path class="cls-8" d="M191.1,270l6.6-37.9a46.42,46.42,0,0,0,10.62-1.35l-8,41.61A64.32,64.32,0,0,1,191.1,270Z"/><path class="cls-17" d="M191.1,270a64.32,64.32,0,0,0,9.26,2.36l-.46,2.38c-3.12-.54-6.21-1.13-9.34-1.64Z"/><path class="cls-18" d="M189,281.83l1.52-8.75c3.14.51,6.23,1.1,9.34,1.64L198,284.83a14.43,14.43,0,0,1,1.87,1.54c-2.8,1.47-5.61,1.73-8.48-1.36a15.76,15.76,0,0,1-2.35-3.2Z"/><path class="cls-19" d="M157.82,272c12.91,11.94,27.55,21.68,43.77,17.12.13.93-.34,1.85-2,2.54C169,303.1,156.81,283.16,157.82,272Z"/><path class="cls-18" d="M177.54,270.95c1.32,1,2.59,2,3.77,3.09-.3,2.05-.78,4.21-.18,6.27C175.25,279.24,177.53,274.56,177.54,270.95Z"/><path class="cls-18" d="M184,276.55c2.91,2.81,4.85,5.09,5,5.26a15.76,15.76,0,0,0,2.35,3.2,7.7,7.7,0,0,0,2.79,2A11.84,11.84,0,0,1,184,276.55Z"/><path class="cls-20" d="M161.87,265.58c4.69-1.53,10.58,1.52,15.67,5.36,0,3.62-2.29,8.29,3.59,9.36-.6-2.06-.12-4.21.18-6.27,1,.86,1.88,1.71,2.71,2.52A11.84,11.84,0,0,0,194.15,287a6.56,6.56,0,0,0,5.69-.64,5.49,5.49,0,0,1,1.75,2.8c-16.22,4.56-30.86-5.18-43.77-17.12C158.12,268.84,159.5,266.35,161.87,265.58Z"/><path class="cls-5" d="M222.75,239.38s2.21,6.42-3.85,9.78-10.31-3.37-10.31-3.37,2.92,9.42-2.92,10.76-7.85-2.24-9.87-5.16c0,0,.9,8.74-6.5,10.54s-7.62-7.4-7.62-7.4.67,8.52-8.3,8.75-6.05-7-6.05-7-.9,8.08-8.3,9-7.85-8.75-7.85-8.75-.45,7.18-7.62,7.18-6.73-8.52-6.73-8.52a8.29,8.29,0,0,1-10.76,5.16c-8.3-2.46-5.38-10.09-5.38-10.09s-2.24,7.62-9.42,5.83-3.59-10.54-3.59-10.54-3.36,5.61-9.19,2.69S95,239.38,95,239.38l27.48-1.21L192.67,240Z"/><path class="cls-6" d="M214.74,219.1a88.48,88.48,0,0,0,8,20.27S201.82,257,159.44,257.84v0h-1.12v0C115.93,257,95,239.38,95,239.38a88.3,88.3,0,0,0,7.88-19.67C139.43,226.46,177,224.38,214.74,219.1Z"/><path class="cls-15" d="M305.37,207.8V245h-289V204.45C111.41,181,210.2,187.12,305.37,207.8Z"/><rect class="cls-3" x="284.03" y="245.03" width="21.34" height="95.21"/><rect class="cls-3" x="16.42" y="245.03" width="21.34" height="95.21"/><rect class="cls-9" x="24.37" y="156.64" width="49.42" height="4.65"/><rect class="cls-21" x="24.37" y="151.99" width="49.42" height="4.65"/><rect class="cls-6" x="24.37" y="148.19" width="49.42" height="4.65"/></g></g></g></svg>