<svg xmlns="http://www.w3.org/2000/svg" viewBox="0 0 316.86 331.27"><defs><style>.cls-1{isolation:isolate;}.cls-2{fill:#d6e7da;opacity:0.4;mix-blend-mode:multiply;}.cls-3{fill:#df9b3b;}.cls-4{fill:#ecb07c;}.cls-5{fill:#fcc895;}.cls-6{fill:#d8ede2;}.cls-7{fill:#ebf5ee;}.cls-8{fill:#08202c;}.cls-9{fill:#182d39;}.cls-10{fill:#32232a;}.cls-11{fill:#f05a29;}.cls-12{fill:#f1b380;}.cls-13{fill:#efd8b3;}.cls-14{fill:#fff;}.cls-15{fill:#ebb8a4;}.cls-16{fill:#f1c443;}.cls-17{fill:#91603a;}.cls-18{fill:#a96f47;}.cls-19{fill:#f3b25e;}.cls-20{fill:#ac9088;}.cls-21{fill:#8f6e65;}</style></defs><title>Asset 1</title><g class="cls-1"><g id="Layer_2" data-name="Layer 2"><g id="objets"><polygon class="cls-2" points="300.44 331.27 11.49 331.27 108.8 280.82 205.19 280.82 300.44 331.27"/><path class="cls-3" d="M189.22,217.6H106.82v78h15.89V272.13h66.51v23.49h15.9v-78Zm0,38.63H122.71V242.92h66.51Z"/><path class="cls-4" d="M201.81,217.16l-7.6,3.53,3.36,6.57a37.69,37.69,0,0,0,8.53-1.36Z"/><path class="cls-5" d="M219.79,253.78,206.1,225.9a37.69,37.69,0,0,1-8.53,1.36l15.58,30.44A51.81,51.81,0,0,0,219.79,253.78Z"/><path class="cls-6" d="M219.79,253.78a51.81,51.81,0,0,1-6.64,3.92l.89,1.74c2.29-1.12,4.55-2.28,6.87-3.38Z"/><path class="cls-7" d="M224.07,262.5l-3.16-6.43c-2.32,1.1-4.58,2.26-6.87,3.38l3.79,7.4a11.86,11.86,0,0,0-1.1,1.61c2.51.51,4.74.08,6.26-3a12.82,12.82,0,0,0,1.09-3Z"/><path class="cls-8" d="M216,271c.11.75.68,1.36,2.1,1.52,26.33,1.9,31.25-16.3,27.95-24.68C238.75,260,229.6,270.89,216,271Z"/><path class="cls-9" d="M241.45,243.76c-8.84-.27-17.16,18.24-17.37,18.71a12.82,12.82,0,0,1-1.09,3c-1.53,3-3.76,3.48-6.26,3A4.4,4.4,0,0,0,216,271c13.6-.13,22.74-11,30-23.16C245.09,245.43,243.46,243.82,241.45,243.76Z"/><path class="cls-4" d="M121.79,220.68l-7.6-3.53-5.4,11a51.5,51.5,0,0,0,7.4,3.48Z"/><path class="cls-5" d="M108.8,228.14,96.21,253.78a51.93,51.93,0,0,0,6.64,3.92l13.35-26.08A51.5,51.5,0,0,1,108.8,228.14Z"/><path class="cls-6" d="M96.21,253.78a51.93,51.93,0,0,0,6.64,3.92l-.89,1.74c-2.29-1.12-4.55-2.28-6.87-3.38Z"/><path class="cls-7" d="M91.93,262.5l3.16-6.43c2.32,1.1,4.58,2.26,6.87,3.38l-3.78,7.4a11.9,11.9,0,0,1,1.1,1.61c-2.51.51-4.74.08-6.26-3a12.81,12.81,0,0,1-1.1-3Z"/><path class="cls-8" d="M100,271c-.11.75-.68,1.36-2.1,1.52-26.33,1.9-31.25-16.3-27.95-24.68C77.26,260,86.4,270.89,100,271Z"/><path class="cls-9" d="M74.55,243.76c8.84-.27,17.16,18.24,17.37,18.71a12.81,12.81,0,0,0,1.1,3c1.52,3,3.76,3.48,6.26,3A4.42,4.42,0,0,1,100,271c-13.6-.13-22.74-11-30-23.16C70.91,245.43,72.54,243.82,74.55,243.76Z"/><path class="cls-9" d="M183.93,214.65s-34.71,3.9-52.25-1.95L112,254.08s-11.31.78-19.11-7l24.72-47.62h80.72l25.52,48.94s-13.65,5.85-20.28,5.85Z"/><path class="cls-8" d="M116.86,224.61c-2.43-1-6-3.43-7.15-2s-4,4.29-2.86,6,5.72,4,8,4.29S120.29,226,116.86,224.61Z"/><path class="cls-9" d="M214.78,152.32s-17.77-38-50.47-39.56c-53.52-2.49-62.68,39.89-62.68,39.89Z"/><path class="cls-10" d="M111.5,149.44s3.2,7.73.61,9.29-8.11-9.29-8.11-9.29Z"/><path class="cls-5" d="M85.5,136.58s.17,13.83,18.5,16.5,17.33-16.46,8.67-23.23S87.17,123.25,85.5,136.58Z"/><path class="cls-11" d="M107.49,136.71S91.83,98.38,84.16,99.38,98.5,139.83,98.5,139.83,106.78,145.35,107.49,136.71Z"/><path class="cls-5" d="M210.41,77.06c-16.57,5.85-36.06-1-51.65-3.9-8.77-1-24.36,1.95-37,2.92-1,0-4.87,4.87-6.82,5.85-4.19,2.4-8.76,1.84-13.24.38,1.71,63.35,89.95,48.28,107.66,31.69,6.21-5.82,9.41-14.19,10.92-22.88a4.78,4.78,0,0,1-2-.42A27.79,27.79,0,0,1,210.41,77.06Z"/><path class="cls-12" d="M218.93,52.85a44.76,44.76,0,0,0-9.08-18.91c-3.41,5-6.83,10-14.05,6.09C186,35.15,181.18,23.46,172.4,19.56c-11.69-3.9-17.54,10.72-27.29,16.57-6.82,3.9-16.57,3.9-21.44-3.9-1-1.95-1-4.87-1-7.8a6.19,6.19,0,0,0-.59-.94c-8.36,8.59-15,21.26-18.56,39A93.2,93.2,0,0,0,101.65,79c0,1.11,0,2.2,0,3.27,4.48,1.46,9,2,13.24-.38,2-1,5.85-5.85,6.82-5.85,12.67-1,28.26-3.9,37-2.92,15.59,2.92,35.09,9.75,51.65,3.9a27.79,27.79,0,0,0,7.8,13.64,4.78,4.78,0,0,0,2,.42c.13-.76.26-1.52.36-2.28C223.07,71.1,218.93,52.85,218.93,52.85Z"/><path class="cls-13" d="M122.11,23.5a6.19,6.19,0,0,1,.59.94c0,2.92,0,5.85,1,7.8,4.87,7.8,14.61,7.8,21.44,3.9,9.75-5.85,15.59-20.47,27.29-16.57C181.18,23.46,186,35.15,195.79,40c7.22,3.89,10.64-1.09,14.05-6.09C190.78,9.71,148.1-3.2,122.11,23.5Z"/><path class="cls-10" d="M139.29,84.35c-.51,5.2-4.76,8.06-9.84,9.21v9.17a5.52,5.52,0,0,0,11,0V87.78A5.47,5.47,0,0,0,139.29,84.35Z"/><path class="cls-14" d="M139.29,84.35a5.52,5.52,0,0,0-9.84,3.43v5.78C134.53,92.41,138.77,89.55,139.29,84.35Z"/><path class="cls-10" d="M191.59,84.35c-.52,5.2-4.76,8.06-9.84,9.21v9.17a5.52,5.52,0,0,0,11,0V87.78A5.5,5.5,0,0,0,191.59,84.35Z"/><path class="cls-14" d="M191.59,84.35a5.52,5.52,0,0,0-9.84,3.43v5.78C186.83,92.41,191.07,89.55,191.59,84.35Z"/><ellipse class="cls-15" cx="120.57" cy="109.08" rx="3.42" ry="8.45" transform="translate(-7.95 208.67) rotate(-79.91)"/><ellipse class="cls-15" cx="202.1" cy="109.08" rx="8.45" ry="3.42" transform="translate(-15.98 37.1) rotate(-10.09)"/><path class="cls-16" d="M215.53,62.44a16.69,16.69,0,0,0-1.54,4.3C216,64.3,215.53,62.44,215.53,62.44Z"/><path class="cls-16" d="M117,65.31l.79-1.41S117.51,64.44,117,65.31Z"/><path class="cls-17" d="M206.76,20.54s11.94,0,9.5-3.17-10.72-.25-10.72-.25,2.92-11.21-3.9-10.72-2.92,5.6-2.92,5.6C176-3,150.24-1.78,130.16,4c9.54,1,17.87,4.37,21.78,11.7,9.75,17.54,28.26,6.82,37,13.64,7.8,6.82,5.85,24.36,22.41,18.52,4.87-1.95,7.8-7.8,11.69-7.8l.58-.09A76.29,76.29,0,0,0,206.76,20.54Z"/><path class="cls-18" d="M211.39,47.82C194.82,53.67,196.77,36.13,189,29.31c-8.77-6.82-27.29,3.9-37-13.64C148,8.33,139.7,4.92,130.16,4c-20.46,5.84-35,16.42-34.26,19.5,1.46,6.09,13.4,4.14,13.4,4.14S89.08,39.54,89.08,48.07s10.48,3.41,10.48,3.41C89.57,62,89.32,92.9,96.14,91.92,102,91.08,113.88,70.86,117,65.31c.47-.87.79-1.41.79-1.41L117,65.31c-2.09,3.88-7.14,14.47-.18,14.67,8.53.24,27.29-15.59,27.29-15.59S128.3,78,147.31,77.06,181.66,60,181.66,60s-18.27,19.25,1.71,17.06c20.31-2.23,27.85-6.86,30.62-10.32h0c-2.25,10.69,6.65,20.55,6.65,20.55,14.55-17.69,10.43-34.86,3-47.36l-.58.09C219.18,40,216.26,45.88,211.39,47.82Z"/><polygon class="cls-14" points="231.48 152.32 250.43 133.63 66.64 136.32 82.42 152.32 231.48 152.32"/><rect class="cls-19" y="152.32" width="316.86" height="22.16"/><path class="cls-3" d="M300.44,195.47v-21h-289v24.34C106.66,178.15,205.46,172.07,300.44,195.47Z"/><path class="cls-19" d="M11.49,198.82v37.24h289V195.47C205.46,172.07,106.66,178.15,11.49,198.82Z"/><rect class="cls-3" x="11.49" y="236.06" width="21.34" height="95.21"/><rect class="cls-3" x="279.1" y="236.06" width="21.34" height="95.21"/><rect class="cls-11" x="241.81" y="147.67" width="55.35" height="4.65"/><rect class="cls-20" x="268.02" y="143.01" width="14.78" height="4.65"/><rect class="cls-21" x="282.8" y="143.01" width="7.39" height="4.65"/></g></g></g></svg>