<svg xmlns="http://www.w3.org/2000/svg" viewBox="0 0 489.44 437.46"><defs><style>.cls-1{fill:#c3deec;}.cls-2{fill:#fff;}.cls-3{fill:#eaf2f7;}.cls-4,.cls-5{fill:none;stroke:#fff;stroke-linecap:round;stroke-linejoin:round;stroke-width:2px;}.cls-5{stroke-dasharray:7.92 7.92;}</style></defs><title>Asset 5</title><g id="Layer_2" data-name="Layer 2"><g id="objets"><polygon class="cls-1" points="489.44 0 402.27 65.42 407.17 40.13 384.27 21.83 489.44 0"/><polygon class="cls-2" points="489.44 0 411.02 37.77 419.39 75.61 489.44 0"/><polygon class="cls-3" points="489.44 0 384.27 21.83 411.02 37.77 489.44 0"/><path class="cls-4" d="M397.42,48.93s-1.36.54-3.65,1.63"/><path class="cls-5" d="M386.74,54.21c-16.38,9.18-45.51,30.3-42.23,63.17,4.54,45.45,49.87,56.31,52.9,34.1,4.75-34.76-64.67-36-82,39s2.38,188.12-183.5,178c-85.25,4.69-117.5,44.38-127.27,60.82"/><path class="cls-4" d="M2.68,432.83A36.7,36.7,0,0,0,1,436.46"/></g></g></svg>