<svg id="Background" xmlns="http://www.w3.org/2000/svg" viewBox="0 0 388.83 233.1"><defs><style>.cls-1{fill:#fff;}.cls-2{fill:#302d2d;}.cls-3{fill:#00d9ce;}.cls-4{opacity:0.5;}.cls-5{fill:#f5f5f5;}.cls-6{fill:#fbb03b;}.cls-7{fill:#f2f2f2;}.cls-8,.cls-9{fill:#f7931e;}.cls-10,.cls-8{stroke:#302d2d;stroke-linecap:round;stroke-linejoin:round;}.cls-8{stroke-width:2px;}.cls-10{fill:none;stroke-width:1.8px;}.cls-11{fill:#f15a24;}.cls-12{fill:#bf272e;}.cls-13{fill:#04c4d5;}</style></defs><title>vect1</title><path class="cls-1" d="M369.37,31.11a2,2,0,0,1,2,2v21.5a2,2,0,0,1-2,2h-28.5a4,4,0,0,1-3.06-1.69l-5.87-9.36a3.5,3.5,0,0,1,0-3.39l5.87-9.36a4,4,0,0,1,3.06-1.69Z" transform="translate(-41.13 -11.47)"/><path class="cls-2" d="M369.37,57.51h-28.5A5,5,0,0,1,337,55.39L331.17,46a4.41,4.41,0,0,1,0-4.34L337,32.32a5,5,0,0,1,3.83-2.12h28.5a2.9,2.9,0,0,1,2.9,2.9v21.5A2.9,2.9,0,0,1,369.37,57.51ZM340.87,32a3.16,3.16,0,0,0-2.3,1.27l-5.87,9.36a2.63,2.63,0,0,0,0,2.43l5.87,9.36a3.16,3.16,0,0,0,2.3,1.27h28.5a1.1,1.1,0,0,0,1.1-1.1V33.11a1.1,1.1,0,0,0-1.1-1.1Z" transform="translate(-41.13 -11.47)"/><path class="cls-2" d="M340.62,48a4.15,4.15,0,1,1,4.15-4.15A4.16,4.16,0,0,1,340.62,48Zm0-6.5A2.35,2.35,0,1,0,343,43.86,2.35,2.35,0,0,0,340.62,41.51Z" transform="translate(-41.13 -11.47)"/><path class="cls-2" d="M340.62,44.76h-35a.9.9,0,1,1,0-1.8h35a.9.9,0,1,1,0,1.8Z" transform="translate(-41.13 -11.47)"/><path class="cls-2" d="M318.24,57.76H287.8a.9.9,0,1,1,0-1.8h30.44a2.35,2.35,0,0,0,0-4.7H305.62a4.15,4.15,0,1,1,0-8.3.9.9,0,1,1,0,1.8,2.35,2.35,0,0,0,0,4.7h12.62a4.15,4.15,0,1,1,0,8.3Z" transform="translate(-41.13 -11.47)"/><path class="cls-2" d="M318.31,22.45h-2.25a1,1,0,0,1,0-2h2.25a1,1,0,0,1,0,2Z" transform="translate(-41.13 -11.47)"/><path class="cls-2" d="M329.19,22.45h-6.25a1,1,0,0,1,0-2h6.25a1,1,0,0,1,0,2Z" transform="translate(-41.13 -11.47)"/><path class="cls-2" d="M84.94,89h0a39.34,39.34,0,0,1-4.09-.28,1,1,0,0,1,.24-2A37.16,37.16,0,0,0,85,87a1,1,0,0,1,0,2Zm6-.38a1,1,0,0,1-.14-2,36.48,36.48,0,0,0,3.82-.75,1,1,0,1,1,.49,1.94,38.86,38.86,0,0,1-4,.79ZM75.08,87.59a1,1,0,0,1-.28,0,38.8,38.8,0,0,1-3.88-1.34,1,1,0,0,1,.75-1.85,36.75,36.75,0,0,0,3.68,1.27,1,1,0,0,1-.28,2ZM100.52,86a1,1,0,0,1-.4-1.92,36.68,36.68,0,0,0,3.48-1.73,1,1,0,0,1,1,1.74,38.73,38.73,0,0,1-3.67,1.83A1,1,0,0,1,100.52,86ZM65.95,83.6a1,1,0,0,1-.52-.14A39.3,39.3,0,0,1,62,81.14a1,1,0,0,1,1.21-1.59,36.85,36.85,0,0,0,3.22,2.19,1,1,0,0,1-.52,1.86Zm43.12-2.76a1,1,0,0,1-.62-1.78,37.47,37.47,0,0,0,2.91-2.58,1,1,0,0,1,1.4,1.43,39.54,39.54,0,0,1-3.07,2.72A1,1,0,0,1,109.06,80.84ZM58.18,77.35a1,1,0,0,1-.72-.31,39.25,39.25,0,0,1-2.67-3.11,1,1,0,1,1,1.58-1.22,37.27,37.27,0,0,0,2.54,3,1,1,0,0,1-.72,1.69ZM116,73.66a1,1,0,0,1-.8-1.59,37.24,37.24,0,0,0,2.14-3.25,1,1,0,1,1,1.73,1,38.7,38.7,0,0,1-2.26,3.43A1,1,0,0,1,116,73.66ZM52.3,69.3a1,1,0,0,1-.88-.52,38.45,38.45,0,0,1-1.77-3.7,1,1,0,0,1,1.85-.76,36.49,36.49,0,0,0,1.68,3.51,1,1,0,0,1-.4,1.36A1,1,0,0,1,52.3,69.3Zm68.49-4.38a1,1,0,0,1-.93-1.36,36.59,36.59,0,0,0,1.21-3.7,1,1,0,1,1,1.93.52,38.62,38.62,0,0,1-1.28,3.9A1,1,0,0,1,120.79,64.92ZM48.73,60a1,1,0,0,1-1-.77,38.92,38.92,0,0,1-.73-4,1,1,0,0,1,2-.25,37,37,0,0,0,.69,3.83A1,1,0,0,1,49,60Zm74.4-4.76H123a1,1,0,0,1-.89-1.1,37.3,37.3,0,0,0,.2-3.89,1,1,0,0,1,2,0,39.71,39.71,0,0,1-.21,4.1A1,1,0,0,1,123.13,55.23Zm-75.4-5.16h0a1,1,0,0,1-1-1A39.39,39.39,0,0,1,47.07,45a1,1,0,1,1,2,.27,37.28,37.28,0,0,0-.32,3.88A1,1,0,0,1,47.73,50.08Zm75.43-2.49a1,1,0,0,1-1-.9,37.27,37.27,0,0,0-.58-3.85,1,1,0,0,1,2-.4,38.9,38.9,0,0,1,.61,4.06,1,1,0,0,1-.9,1.09ZM49.34,40.24a1,1,0,0,1-1-1.29,38.63,38.63,0,0,1,1.4-3.86,1,1,0,1,1,1.84.78,36.51,36.51,0,0,0-1.33,3.66A1,1,0,0,1,49.34,40.24Zm71.56-2.37a1,1,0,0,1-.94-.65,36.86,36.86,0,0,0-1.57-3.56,1,1,0,1,1,1.79-.9,38.91,38.91,0,0,1,1.65,3.76,1,1,0,0,1-.94,1.35ZM53.48,31.17a1,1,0,0,1-.85-1.53A39.21,39.21,0,0,1,55,26.28a1,1,0,0,1,1.57,1.24,37.2,37.2,0,0,0-2.24,3.18A1,1,0,0,1,53.48,31.17Zm62.7-2.07a1,1,0,0,1-.81-.41,37.51,37.51,0,0,0-2.44-3,1,1,0,0,1,1.49-1.34A39.26,39.26,0,0,1,117,27.52a1,1,0,0,1-.81,1.59ZM59.84,23.49a1,1,0,0,1-.68-1.73,39.42,39.42,0,0,1,3.15-2.62,1,1,0,1,1,1.2,1.6,37.51,37.51,0,0,0-3,2.49A1,1,0,0,1,59.84,23.49Zm49.48-1.63a1,1,0,0,1-.63-.22,37.07,37.07,0,0,0-3.15-2.29,1,1,0,0,1,1.09-1.68A39,39,0,0,1,110,20.09a1,1,0,0,1-.63,1.78ZM68,17.74a1,1,0,0,1-.47-1.89,38.9,38.9,0,0,1,3.73-1.71A1,1,0,0,1,72,16a36.62,36.62,0,0,0-3.54,1.62A1,1,0,0,1,68,17.74Zm32.84-1.09a1,1,0,0,1-.4-.09,36.68,36.68,0,0,0-3.64-1.38,1,1,0,1,1,.61-1.9,38.31,38.31,0,0,1,3.84,1.46,1,1,0,0,1-.4,1.91ZM77.34,14.32a1,1,0,0,1-.21-2,38.57,38.57,0,0,1,4-.67,1,1,0,0,1,.22,2,36.65,36.65,0,0,0-3.84.63Zm13.91-.46H91.1a37.4,37.4,0,0,0-3.87-.38,1,1,0,0,1,.09-2,39.78,39.78,0,0,1,4.08.4,1,1,0,0,1-.15,2Z" transform="translate(-41.13 -11.47)"/><circle class="cls-3" cx="217.93" cy="151.98" r="27.37"/><g class="cls-4"><circle class="cls-5" cx="27.37" cy="75.27" r="27.37"/></g><path class="cls-2" d="M83.59,216.62a1,1,0,0,1-.78-.37q-.64-.79-1.25-1.61a1,1,0,0,1,1.61-1.19q.58.79,1.2,1.54a1,1,0,0,1-.78,1.63Z" transform="translate(-41.13 -11.47)"/><path class="cls-2" d="M80.15,211.77a1,1,0,0,1-.85-.48c-.71-1.14-1.37-2.33-2-3.53a1,1,0,0,1,1.79-.89c.57,1.15,1.2,2.28,1.88,3.38a1,1,0,0,1-.85,1.52Zm-3.53-7.06a1,1,0,0,1-.93-.63c-.49-1.25-.93-2.53-1.32-3.82a1,1,0,0,1,1.92-.57c.37,1.23.79,2.46,1.26,3.65a1,1,0,0,1-.93,1.37Zm-2.24-7.57a1,1,0,0,1-1-.8c-.27-1.32-.47-2.66-.62-4a1,1,0,1,1,2-.22c.14,1.27.34,2.56.6,3.81a1,1,0,0,1-.78,1.18Zm-.87-7.84a1,1,0,0,1-1-1q0-.54,0-1.08v-2.89a1,1,0,0,1,2,0v2.89q0,.52,0,1a1,1,0,0,1-1,1Zm0-7.9a1,1,0,0,1-1-1v-4a1,1,0,0,1,2,0v4A1,1,0,0,1,73.5,181.4Zm0-7.9a1,1,0,0,1-1-1v-4a1,1,0,0,1,2,0v4A1,1,0,0,1,73.5,173.5Zm0-7.9a1,1,0,0,1-1-1v-4a1,1,0,0,1,2,0v4A1,1,0,0,1,73.5,165.59Zm0-7.9a1,1,0,0,1-1-1v-4a1,1,0,0,1,2,0v4A1,1,0,0,1,73.5,157.69Zm0-7.9a1,1,0,0,1-1-1v-4a1,1,0,0,1,2,0v4A1,1,0,0,1,73.5,149.78Zm0-7.9a1,1,0,0,1-1-1v-4a1,1,0,0,1,2,0v4A1,1,0,0,1,73.5,141.88Zm0-7.9a1,1,0,0,1-1-1v-4a1,1,0,0,1,2,0v4A1,1,0,0,1,73.5,134Zm0-7.9a1,1,0,0,1-1-1v-4a1,1,0,0,1,2,0v4A1,1,0,0,1,73.5,126.07Zm0-7.9a1,1,0,0,1-1-1v-4a1,1,0,0,1,2,0v4A1,1,0,0,1,73.5,118.17Z" transform="translate(-41.13 -11.47)"/><path class="cls-2" d="M73.5,110.24a1,1,0,0,1-1-1v-2a1,1,0,0,1,2,0v2A1,1,0,0,1,73.5,110.24Z" transform="translate(-41.13 -11.47)"/><g id="_Group_" data-name="&lt;Group&gt;"><path class="cls-5" d="M429.05,99V140.6H356.89V99ZM377.5,123.54V104.87H363.1v18.68Z" transform="translate(-41.13 -11.47)"/><path class="cls-6" d="M429.05,91.26V99H356.89V91.26Zm-4.61,4A1.47,1.47,0,1,0,423,96.74,1.47,1.47,0,0,0,424.44,95.26Zm-4,0a1.47,1.47,0,1,0-1.47,1.48A1.46,1.46,0,0,0,420.42,95.26Zm-4.16,0a1.47,1.47,0,1,0-1.47,1.48A1.47,1.47,0,0,0,416.25,95.26Z" transform="translate(-41.13 -11.47)"/><path class="cls-2" d="M423,93.79a1.47,1.47,0,1,1-1.48,1.47A1.47,1.47,0,0,1,423,93.79Z" transform="translate(-41.13 -11.47)"/><ellipse class="cls-2" cx="377.82" cy="83.79" rx="1.47" ry="1.47"/><path class="cls-2" d="M414.79,93.79a1.47,1.47,0,1,1-1.48,1.47A1.47,1.47,0,0,1,414.79,93.79Z" transform="translate(-41.13 -11.47)"/><rect class="cls-3" x="321.98" y="93.39" width="14.4" height="18.68"/><path class="cls-2" d="M429.05,141.5H356.89a.9.9,0,0,1-.9-.9V91.26a.9.9,0,0,1,.9-.9h72.16a.9.9,0,0,1,.9.9V140.6A.9.9,0,0,1,429.05,141.5Zm-71.26-1.8h70.36V92.16H357.79Z" transform="translate(-41.13 -11.47)"/><path class="cls-2" d="M429.05,99.85H356.89a.9.9,0,0,1,0-1.8h72.16a.9.9,0,0,1,0,1.8Z" transform="translate(-41.13 -11.47)"/><path class="cls-2" d="M377.5,124.54H363.1a1,1,0,0,1-1-1V104.87a1,1,0,0,1,1-1h14.4a1,1,0,0,1,1,1v18.68A1,1,0,0,1,377.5,124.54Zm-13.4-2h12.4V105.87H364.1Z" transform="translate(-41.13 -11.47)"/><path class="cls-2" d="M424,105.77H384.19a.9.9,0,1,1,0-1.8H424a.9.9,0,0,1,0,1.8Z" transform="translate(-41.13 -11.47)"/><path class="cls-2" d="M424,110.09H384.19a.9.9,0,1,1,0-1.8H424a.9.9,0,0,1,0,1.8Z" transform="translate(-41.13 -11.47)"/><path class="cls-2" d="M424,114.83H384.19a.9.9,0,1,1,0-1.8H424a.9.9,0,0,1,0,1.8Z" transform="translate(-41.13 -11.47)"/><path class="cls-2" d="M424,119.56H384.19a.9.9,0,1,1,0-1.8H424a.9.9,0,0,1,0,1.8Z" transform="translate(-41.13 -11.47)"/><path class="cls-2" d="M424,124.29H384.19a.9.9,0,1,1,0-1.8H424a.9.9,0,1,1,0,1.8Z" transform="translate(-41.13 -11.47)"/><path class="cls-2" d="M424,129H363.1a.9.9,0,0,1,0-1.8H424a.9.9,0,0,1,0,1.8Z" transform="translate(-41.13 -11.47)"/><path class="cls-2" d="M424,133.75H363.1a.9.9,0,0,1,0-1.8H424a.9.9,0,1,1,0,1.8Z" transform="translate(-41.13 -11.47)"/></g><circle class="cls-7" cx="301.42" cy="156.62" r="19.76"/><path class="cls-2" d="M342.55,188.75a20.66,20.66,0,1,1,20.66-20.66A20.69,20.69,0,0,1,342.55,188.75Zm0-39.52a18.86,18.86,0,1,0,18.86,18.86A18.88,18.88,0,0,0,342.55,149.23Z" transform="translate(-41.13 -11.47)"/><path class="cls-8" d="M336.92,180.61" transform="translate(-41.13 -11.47)"/><polygon class="cls-9" points="291.06 159.91 295.8 169.14 300.41 159.91 298.11 159.91 298.11 144.1 293.36 144.1 293.36 159.91 291.06 159.91"/><path class="cls-2" d="M336.92,181.61a1,1,0,0,1-.89-.54l-4.73-9.23a1,1,0,0,1,.89-1.46h1.3V155.57a1,1,0,0,1,1-1h4.75a1,1,0,0,1,1,1v14.81h1.3a1,1,0,0,1,.89,1.45l-4.61,9.23a1,1,0,0,1-.89.55Zm-3.09-9.23,3.08,6,3-6h-.68a1,1,0,0,1-1-1V156.57h-2.75v14.81a1,1,0,0,1-1,1Z" transform="translate(-41.13 -11.47)"/><path class="cls-10" d="M348.65,155.57" transform="translate(-41.13 -11.47)"/><path class="cls-2" d="M351.09,181.51h-4.75a.9.9,0,0,1-.9-.9V165.7H344a.9.9,0,0,1-.8-1.3l4.61-9.22a.9.9,0,0,1,.8-.5,1,1,0,0,1,.8.49l4.73,9.22a.9.9,0,0,1-.8,1.31H352v14.91A.9.9,0,0,1,351.09,181.51Zm-3.85-1.8h3V164.79a.9.9,0,0,1,.9-.9h.82l-3.25-6.33-3.16,6.33h.84a.9.9,0,0,1,.9.9Z" transform="translate(-41.13 -11.47)"/><path class="cls-2" d="M373.48,203.55A3.13,3.13,0,0,1,371,202.2c-.42-.49-.59-.65-1-.65s-.54.16-1,.65a3,3,0,0,1-5,0c-.42-.49-.59-.65-1-.65s-.54.16-1,.65a3,3,0,0,1-5,0c-.42-.49-.59-.65-1-.65s-.54.16-1,.65a3,3,0,0,1-5,0c-.42-.49-.59-.65-1-.65s-.54.16-1,.65a3,3,0,0,1-5,0c-.42-.49-.59-.65-1-.65a1,1,0,0,1,0-2A3.13,3.13,0,0,1,345,200.9c.42.49.59.65,1,.65s.54-.16,1-.65a3,3,0,0,1,5,0c.42.49.59.65,1,.65s.54-.16,1-.65a2.95,2.95,0,0,1,5,0c.42.49.59.65,1,.65s.54-.16,1-.65a3,3,0,0,1,5,0c.42.49.59.65,1,.65s.54-.16,1-.65a3,3,0,0,1,5,0c.43.49.59.65,1,.65a1,1,0,0,1,0,2Z" transform="translate(-41.13 -11.47)"/><path class="cls-2" d="M348.53,132.24A3.13,3.13,0,0,1,346,130.9c-.43-.49-.59-.65-1-.65s-.54.16-1,.65a3,3,0,0,1-5,0c-.42-.49-.59-.65-1-.65s-.54.16-1,.65a3,3,0,0,1-5,0c-.42-.49-.59-.65-1-.65s-.54.16-1,.65a3,3,0,0,1-5,0c-.42-.49-.59-.65-1-.65s-.54.16-1,.65a3,3,0,0,1-5,0c-.42-.49-.59-.65-1-.65a1,1,0,0,1,0-2,3.12,3.12,0,0,1,2.48,1.35c.42.49.59.65,1,.65s.54-.16,1-.65a3,3,0,0,1,5,0c.42.49.59.65,1,.65s.54-.16,1-.65a3,3,0,0,1,5,0c.42.49.59.65,1,.65s.54-.16,1-.65a3,3,0,0,1,5,0c.42.49.59.65,1,.65s.54-.16,1-.65a3,3,0,0,1,5,0c.42.49.59.65,1,.65a1,1,0,0,1,0,2Z" transform="translate(-41.13 -11.47)"/><path class="cls-2" d="M152.75,32.24H150.5a1,1,0,0,1,0-2h2.25a1,1,0,1,1,0,2Z" transform="translate(-41.13 -11.47)"/><path class="cls-2" d="M145.88,32.24h-6.25a1,1,0,0,1,0-2h6.25a1,1,0,1,1,0,2Z" transform="translate(-41.13 -11.47)"/><path class="cls-2" d="M152.16,25.95h-2.25a1,1,0,0,1,0-2h2.25a1,1,0,0,1,0,2Z" transform="translate(-41.13 -11.47)"/><path class="cls-2" d="M163,25.95h-6.25a1,1,0,0,1,0-2H163a1,1,0,0,1,0,2Z" transform="translate(-41.13 -11.47)"/><path class="cls-2" d="M328.58,93.53h-2.25a1,1,0,0,1,0-2h2.25a1,1,0,0,1,0,2Z" transform="translate(-41.13 -11.47)"/><path class="cls-2" d="M321.71,93.53h-6.25a1,1,0,0,1,0-2h6.25a1,1,0,0,1,0,2Z" transform="translate(-41.13 -11.47)"/><path class="cls-2" d="M328,87.24h-2.25a1,1,0,0,1,0-2H328a1,1,0,0,1,0,2Z" transform="translate(-41.13 -11.47)"/><path class="cls-2" d="M338.87,87.24h-6.25a1,1,0,0,1,0-2h6.25a1,1,0,0,1,0,2Z" transform="translate(-41.13 -11.47)"/><path class="cls-2" d="M102.77,193.3h-2.25a1,1,0,0,1,0-2h2.25a1,1,0,0,1,0,2Z" transform="translate(-41.13 -11.47)"/><path class="cls-2" d="M113.64,193.3h-6.25a1,1,0,0,1,0-2h6.25a1,1,0,1,1,0,2Z" transform="translate(-41.13 -11.47)"/><path class="cls-2" d="M68.11,244.58H65.86a1,1,0,1,1,0-2h2.25a1,1,0,0,1,0,2Z" transform="translate(-41.13 -11.47)"/><path class="cls-2" d="M79,244.58H72.74a1,1,0,1,1,0-2H79a1,1,0,0,1,0,2Z" transform="translate(-41.13 -11.47)"/><path class="cls-2" d="M259,202.2c-1.22,0-2.45-.06-3.65-.17a1,1,0,0,1,.18-2c1.14.11,2.31.16,3.47.16h.42a1,1,0,1,1,0,2Zm6.41-.53a1,1,0,0,1-.16-2,37.23,37.23,0,0,0,3.8-.84,1,1,0,1,1,.53,1.93,39.66,39.66,0,0,1-4,.89ZM249.59,201a1,1,0,0,1-.25,0,39.36,39.36,0,0,1-3.92-1.21,1,1,0,1,1,.69-1.88,37.08,37.08,0,0,0,3.72,1.15,1,1,0,0,1-.24,2Zm25.4-2.27a1,1,0,0,1-.41-1.91A37.32,37.32,0,0,0,278,195a1,1,0,0,1,1,1.72,39.8,39.8,0,0,1-3.64,1.89A1,1,0,0,1,275,198.75Zm-34.67-1.42a1,1,0,0,1-.49-.13,39.56,39.56,0,0,1-3.47-2.18,1,1,0,1,1,1.15-1.63,37.78,37.78,0,0,0,3.3,2.07,1,1,0,0,1-.49,1.87Zm43.12-3.86a1,1,0,0,1-.64-1.77,38,38,0,0,0,2.88-2.62,1,1,0,1,1,1.42,1.41,40.06,40.06,0,0,1-3,2.76A1,1,0,0,1,283.44,193.48Zm-51.12-2.09a1,1,0,0,1-.7-.28,40.13,40.13,0,0,1-2.8-3,1,1,0,1,1,1.53-1.29,37.87,37.87,0,0,0,2.66,2.85,1,1,0,0,1-.7,1.72Zm57.95-5.18a1,1,0,0,1-.81-1.58,37.41,37.41,0,0,0,2.11-3.27,1,1,0,0,1,1.73,1,39.82,39.82,0,0,1-2.22,3.45A1,1,0,0,1,290.27,186.21Zm-64.16-2.62a1,1,0,0,1-.86-.48,39.52,39.52,0,0,1-1.93-3.62,1,1,0,1,1,1.81-.85,37.47,37.47,0,0,0,1.84,3.43,1,1,0,0,1-.86,1.52ZM295,177.43a1,1,0,0,1-.36-.07,1,1,0,0,1-.58-1.29,37.25,37.25,0,0,0,1.19-3.71,1,1,0,0,1,1.93.51,39.27,39.27,0,0,1-1.26,3.91A1,1,0,0,1,295,177.43Zm-72.89-3a1,1,0,0,1-1-.72,39.18,39.18,0,0,1-.93-4,1,1,0,1,1,2-.35,37.66,37.66,0,0,0,.88,3.79,1,1,0,0,1-.68,1.24A1,1,0,0,1,222.11,174.46Zm75.2-6.73h-.1a1,1,0,0,1-.89-1.1,38.19,38.19,0,0,0,.2-3.89q0-.85,0-1.69a1,1,0,1,1,2-.09q0,.88,0,1.77a40,40,0,0,1-.21,4.09A1,1,0,0,1,297.31,167.73Zm-76.7-3.13a1,1,0,0,1-1-1c0-.29,0-.59,0-.89,0-1.07,0-2.15.13-3.21a1,1,0,1,1,2,.16c-.08,1-.12,2-.12,3.05,0,.28,0,.56,0,.84a1,1,0,0,1-1,1Zm76.14-8.54a1,1,0,0,1-1-.8,37.36,37.36,0,0,0-1-3.77,1,1,0,1,1,1.91-.6,39.43,39.43,0,0,1,1,4,1,1,0,0,1-.78,1.18Zm-75.08-1.37-.24,0a1,1,0,0,1-.74-1.21,39,39,0,0,1,1.17-3.93,1,1,0,0,1,1.88.67,37.57,37.57,0,0,0-1.11,3.73A1,1,0,0,1,221.67,154.7Zm71.84-8.06a1,1,0,0,1-.9-.55,37.41,37.41,0,0,0-1.91-3.39,1,1,0,0,1,1.69-1.07,39.58,39.58,0,0,1,2,3.57,1,1,0,0,1-.89,1.45Zm-68.26-1.25a1,1,0,0,1-.88-1.48,39.27,39.27,0,0,1,2.15-3.5,1,1,0,1,1,1.65,1.13,37.71,37.71,0,0,0-2,3.32A1,1,0,0,1,225.25,145.39Zm62.7-7a1,1,0,0,1-.75-.34,38,38,0,0,0-2.72-2.79,1,1,0,0,1,1.36-1.47,40.2,40.2,0,0,1,2.86,2.94,1,1,0,0,1-.75,1.66Zm-56.84-1a1,1,0,0,1-.73-1.69,39.84,39.84,0,0,1,3-2.83,1,1,0,0,1,1.3,1.52,37.74,37.74,0,0,0-2.82,2.69A1,1,0,0,1,231.11,137.32Zm49.35-5.54a1,1,0,0,1-.56-.17,37.46,37.46,0,0,0-3.34-2,1,1,0,0,1,.94-1.77A39.41,39.41,0,0,1,281,130a1,1,0,0,1-.56,1.83ZM238.84,131a1,1,0,0,1-.53-1.85,39.57,39.57,0,0,1,3.59-2,1,1,0,0,1,.87,1.8,37.32,37.32,0,0,0-3.41,1.87A1,1,0,0,1,238.84,131Zm32.69-3.67a1,1,0,0,1-.32-.05,37.23,37.23,0,0,0-3.74-1.07,1,1,0,0,1,.45-1.95,39.32,39.32,0,0,1,3.95,1.12,1,1,0,0,1-.32,1.95Zm-23.6-.43a1,1,0,0,1-.29-2,38.89,38.89,0,0,1,4-1,1,1,0,0,1,.38,2,37.28,37.28,0,0,0-3.78.93A1,1,0,0,1,247.92,126.92Zm13.83-1.54h-.07a38,38,0,0,0-3.89-.07,1,1,0,0,1-1-1,1,1,0,0,1,1-1,38.47,38.47,0,0,1,4.1.07,1,1,0,0,1-.07,2Z" transform="translate(-41.13 -11.47)"/><rect class="cls-7" x="250.43" y="145.31" width="11.92" height="11.92"/><path class="cls-2" d="M303.47,169.6H291.55a.9.9,0,0,1-.9-.9V156.78a.9.9,0,0,1,.9-.9h11.92a.9.9,0,0,1,.9.9V168.7A.9.9,0,0,1,303.47,169.6Zm-11-1.8h10.12V157.68H292.45Z" transform="translate(-41.13 -11.47)"/><rect class="cls-7" x="173.51" y="145.31" width="11.92" height="11.92"/><path class="cls-2" d="M226.55,169.6H214.64a.9.9,0,0,1-.9-.9V156.78a.9.9,0,0,1,.9-.9h11.92a.9.9,0,0,1,.9.9V168.7A.9.9,0,0,1,226.55,169.6Zm-11-1.8h10.12V157.68H215.54Z" transform="translate(-41.13 -11.47)"/><rect class="cls-7" x="211.97" y="182.81" width="11.92" height="11.92"/><path class="cls-2" d="M265,207.1H253.09a.9.9,0,0,1-.9-.9V194.28a.9.9,0,0,1,.9-.9H265a.9.9,0,0,1,.9.9V206.2A.9.9,0,0,1,265,207.1Zm-11-1.8h10.12V195.18H254Z" transform="translate(-41.13 -11.47)"/><rect class="cls-7" x="211.97" y="106.85" width="11.92" height="11.92"/><path class="cls-2" d="M265,131.14H253.09a.9.9,0,0,1-.9-.9V118.33a.9.9,0,0,1,.9-.9H265a.9.9,0,0,1,.9.9v11.92A.9.9,0,0,1,265,131.14Zm-11-1.8h10.12V119.23H254Z" transform="translate(-41.13 -11.47)"/><path class="cls-2" d="M163.13,103.65h-.53c-12.1,0-23.66-13.25-24.15-13.81a.9.9,0,0,1,0-1.18c.49-.56,12-13.81,24.15-13.81h.53c12.1,0,23.66,13.25,24.15,13.81a.9.9,0,0,1,0,1.18C186.8,90.41,175.24,103.65,163.13,103.65Zm-.29-1.81h.29c9.89,0,19.87-10,22.25-12.6C183,86.69,173,76.65,163.13,76.65h-.46c-10,0-19.94,10-22.33,12.6,2.38,2.56,12.37,12.6,22.25,12.6Z" transform="translate(-41.13 -11.47)"/><path class="cls-11" d="M162.87,79.75a9.46,9.46,0,0,0-6,2.15,4,4,0,0,1-3.47,7c0,.1,0,.21,0,.31a9.5,9.5,0,1,0,9.5-9.5Z" transform="translate(-41.13 -11.47)"/><path class="cls-2" d="M162.87,99.75a10.51,10.51,0,0,1-10.5-10.5c0-.08,0-.16,0-.24a1.1,1.1,0,0,1,.41-.83,1,1,0,0,1,.87-.2,2.94,2.94,0,0,0,.83.14,3,3,0,0,0,3-3,3,3,0,0,0-1.23-2.41,1,1,0,0,1,0-1.58,10.5,10.5,0,1,1,6.65,18.62Zm-8.46-9.63a8.5,8.5,0,1,0,4-8.1,4.93,4.93,0,0,1,1.09,3.1,5,5,0,0,1-5,5Z" transform="translate(-41.13 -11.47)"/><path class="cls-2" d="M162.87,71.7a.9.9,0,0,1-.9-.9V66.26a.9.9,0,0,1,.9-.9h0a.9.9,0,0,1,.9.9v4.54a.9.9,0,0,1-.9.9Z" transform="translate(-41.13 -11.47)"/><path class="cls-2" d="M162.87,112.63a.9.9,0,0,1-.9-.9V107.2a.9.9,0,0,1,.9-.9h0a.9.9,0,0,1,.9.9v4.54a.9.9,0,0,1-.9.9Z" transform="translate(-41.13 -11.47)"/><path class="cls-2" d="M130.13,90.28a.9.9,0,0,1,0-1.8h4.54a.9.9,0,0,1,0,1.8h-4.54Z" transform="translate(-41.13 -11.47)"/><path class="cls-2" d="M189.82,90.28a.9.9,0,0,1,0-1.8h4.54a.9.9,0,0,1,0,1.8h-4.54Z" transform="translate(-41.13 -11.47)"/><path class="cls-2" d="M178.32,76.16a.9.9,0,0,1-.73-1.43l2.25-3.08a.9.9,0,1,1,1.45,1.06L179,75.79A.9.9,0,0,1,178.32,76.16Z" transform="translate(-41.13 -11.47)"/><path class="cls-2" d="M185.76,81.76a.9.9,0,0,1-.52-1.63l3.12-2.21a.9.9,0,0,1,1,1.47l-3.12,2.21A.9.9,0,0,1,185.76,81.76Z" transform="translate(-41.13 -11.47)"/><path class="cls-2" d="M139.59,81.88a.89.89,0,0,1-.52-.17L136,79.51A.9.9,0,0,1,137,78l3.12,2.21a.9.9,0,0,1-.52,1.63Z" transform="translate(-41.13 -11.47)"/><path class="cls-2" d="M188.87,100.51a.89.89,0,0,1-.52-.17l-3.12-2.21a.9.9,0,0,1,1-1.47l3.12,2.21a.9.9,0,0,1-.52,1.63Z" transform="translate(-41.13 -11.47)"/><path class="cls-2" d="M172.35,110.33a.9.9,0,0,1-.85-.59l-1.3-3.59a.9.9,0,1,1,1.69-.61l1.3,3.59a.9.9,0,0,1-.85,1.21Z" transform="translate(-41.13 -11.47)"/><path class="cls-2" d="M153.53,110.33a.92.92,0,0,1-.31-.05.9.9,0,0,1-.54-1.15l1.3-3.59a.9.9,0,0,1,1.69.61l-1.3,3.59A.9.9,0,0,1,153.53,110.33Z" transform="translate(-41.13 -11.47)"/><path class="cls-2" d="M171.06,73.32a.91.91,0,0,1-.31-.05.9.9,0,0,1-.54-1.15l1.3-3.59a.9.9,0,1,1,1.69.61l-1.3,3.59A.9.9,0,0,1,171.06,73.32Z" transform="translate(-41.13 -11.47)"/><path class="cls-2" d="M154.83,73.32a.9.9,0,0,1-.85-.59l-1.3-3.59a.9.9,0,1,1,1.69-.61l1.3,3.59a.9.9,0,0,1-.85,1.21Z" transform="translate(-41.13 -11.47)"/><path class="cls-2" d="M136.47,100.64A.9.9,0,0,1,136,99l3.12-2.21a.9.9,0,0,1,1,1.47L137,100.47A.89.89,0,0,1,136.47,100.64Z" transform="translate(-41.13 -11.47)"/><path class="cls-2" d="M147.49,76.16a.9.9,0,0,1-.73-.37l-2.25-3.08A.9.9,0,1,1,146,71.64l2.25,3.08a.9.9,0,0,1-.73,1.43Z" transform="translate(-41.13 -11.47)"/><path class="cls-2" d="M180.57,107.07a.9.9,0,0,1-.73-.37l-2.25-3.08a.9.9,0,1,1,1.45-1.06l2.25,3.08a.9.9,0,0,1-.73,1.43Z" transform="translate(-41.13 -11.47)"/><path class="cls-2" d="M145.23,107.07a.9.9,0,0,1-.73-1.43l2.25-3.08a.9.9,0,1,1,1.45,1.06L146,106.7A.9.9,0,0,1,145.23,107.07Z" transform="translate(-41.13 -11.47)"/><path class="cls-2" d="M260.76,112.92H237a4.91,4.91,0,0,1-4.9-4.9V56.22a4.91,4.91,0,0,1,4.9-4.9h23.75a4.91,4.91,0,0,1,4.9,4.9V108A4.91,4.91,0,0,1,260.76,112.92ZM237,53.13a3.1,3.1,0,0,0-3.1,3.1V108a3.1,3.1,0,0,0,3.1,3.1h23.75a3.1,3.1,0,0,0,3.1-3.1V56.22a3.1,3.1,0,0,0-3.1-3.1Z" transform="translate(-41.13 -11.47)"/><rect class="cls-9" x="191.88" y="46.75" width="31.75" height="46.17"/><path class="cls-2" d="M264.76,105.39H233a1,1,0,0,1-1-1V58.22a1,1,0,0,1,1-1h31.75a1,1,0,0,1,1,1v46.17A1,1,0,0,1,264.76,105.39Zm-30.75-2h29.75V59.22H234Z" transform="translate(-41.13 -11.47)"/><path class="cls-2" d="M251.94,56h-6.11a.9.9,0,1,1,0-1.8h6.11a.9.9,0,1,1,0,1.8Z" transform="translate(-41.13 -11.47)"/><circle class="cls-12" cx="207.63" cy="96.57" r="1.75"/><path class="cls-2" d="M248.76,110.29A2.25,2.25,0,1,1,251,108,2.25,2.25,0,0,1,248.76,110.29Zm0-3.5A1.25,1.25,0,1,0,250,108,1.25,1.25,0,0,0,248.76,106.79Z" transform="translate(-41.13 -11.47)"/><path class="cls-5" d="M273.17,104.25a5.6,5.6,0,0,0-1.15-3.87,3.41,3.41,0,0,0-2.61-1.05,3.87,3.87,0,0,0-2.5.84l0-.49a4,4,0,0,0-4.06-3.09,4.08,4.08,0,0,0-2.94,1.1h0a4,4,0,0,0-4.06-3.09,4.11,4.11,0,0,0-2.9,1.07V79.88a4.1,4.1,0,0,0-8.2,0V104.2a14.37,14.37,0,0,0-2.81-3.43,5.17,5.17,0,0,0-2.32-1.32l-1.33-.22-.36,1.3a3,3,0,0,0-.1.81v13.83c-.25,1.12-2.5,12.72,9.28,17.33,1.14.39,1.5.64,1.5,3.38v1.5h15.73l1.75,0-.26-1.73c0-.18.35-.93,1.78-2.16l.2-.21c.91-1.15,5.42-7.16,5.42-12.18Z" transform="translate(-41.13 -11.47)"/><path class="cls-2" d="M259.31,100.72a.9.9,0,0,1-.9-.9V97.91a2.72,2.72,0,0,0-5.2,0v1.34a.9.9,0,0,1-1.8,0V97.82a.83.83,0,0,1,0-.15,4.5,4.5,0,0,1,8.78,0,.85.85,0,0,1,0,.15v2A.9.9,0,0,1,259.31,100.72Z" transform="translate(-41.13 -11.47)"/><path class="cls-2" d="M266.31,103.65a.9.9,0,0,1-.9-.9V99.91a2.71,2.71,0,0,0-5.21.06.9.9,0,0,1-1.78-.29,4.5,4.5,0,0,1,8.78,0,.85.85,0,0,1,0,.15v2.93A.9.9,0,0,1,266.31,103.65Z" transform="translate(-41.13 -11.47)"/><path class="cls-2" d="M249.16,136.68a.9.9,0,0,1-.9-.9c0-2.54-.3-2.76-1.33-3.12-11.73-4.6-9.71-16.33-9.44-17.63v-13.8a2.54,2.54,0,0,1,.41-1.53,1.63,1.63,0,0,1,1.37-.69c2.39,0,6.94,5.22,6.94,8.73a.9.9,0,0,1-1.8,0c0-1.79-1.81-4.48-3.5-6a3.81,3.81,0,0,0-1.58-1,1.53,1.53,0,0,0,0,.41v13.9a.89.89,0,0,1,0,.21c-.11.46-2.56,11.39,8.29,15.64,2.16.74,2.51,2,2.51,4.8A.9.9,0,0,1,249.16,136.68Z" transform="translate(-41.13 -11.47)"/><path class="cls-2" d="M245.31,113.94a.9.9,0,0,1-.9-.9V79.87a.82.82,0,0,1,0-.1,4.4,4.4,0,0,1,8.79.08h0V99.25a.9.9,0,0,1-1.8,0V80a.84.84,0,0,1,0-.2,2.6,2.6,0,0,0-5.2,0h0V113A.9.9,0,0,1,245.31,113.94Z" transform="translate(-41.13 -11.47)"/><path class="cls-2" d="M265.17,136.57a.9.9,0,0,1-.88-.71c-.25-1.11,1.09-2.55,2.28-3.58.53-.67,5.1-6.64,5.1-11.25V111a.94.94,0,0,1,0-.12V104.1a4.2,4.2,0,0,0-.75-2.8,1.94,1.94,0,0,0-1.51-.57,2.16,2.16,0,0,0-2.26,1.67V103a.9.9,0,1,1-1.8,0v-.69a.85.85,0,0,1,0-.15,4,4,0,0,1,4-3.22,3.74,3.74,0,0,1,2.83,1.16,6,6,0,0,1,1.22,4.09v6.59a.93.93,0,0,1,0,.12V121c0,5.5-5.32,12.16-5.55,12.44l-.12.12a7.46,7.46,0,0,0-1.75,2,.9.9,0,0,1-.7,1Z" transform="translate(-41.13 -11.47)"/><path class="cls-2" d="M248.59,70.61a.9.9,0,0,1-.9-.9V66.89a.9.9,0,0,1,1.8,0v2.82A.9.9,0,0,1,248.59,70.61Z" transform="translate(-41.13 -11.47)"/><path class="cls-2" d="M244,71.85a.9.9,0,0,1-.78-.45L241.77,69a.9.9,0,1,1,1.56-.9l1.41,2.45a.9.9,0,0,1-.78,1.35Z" transform="translate(-41.13 -11.47)"/><path class="cls-2" d="M240.57,75.25a.89.89,0,0,1-.45-.12l-2.45-1.41a.9.9,0,0,1,.9-1.56L241,73.57a.9.9,0,0,1-.45,1.68Z" transform="translate(-41.13 -11.47)"/><path class="cls-2" d="M239.33,79.88H236.5a.9.9,0,1,1,0-1.8h2.82a.9.9,0,0,1,0,1.8Z" transform="translate(-41.13 -11.47)"/><path class="cls-2" d="M238.12,85.93a.9.9,0,0,1-.45-1.68l2.45-1.41a.9.9,0,1,1,.9,1.56l-2.45,1.41A.89.89,0,0,1,238.12,85.93Z" transform="translate(-41.13 -11.47)"/><path class="cls-2" d="M259.07,85.93a.89.89,0,0,1-.45-.12l-2.45-1.41a.9.9,0,1,1,.9-1.56l2.45,1.41a.9.9,0,0,1-.45,1.68Z" transform="translate(-41.13 -11.47)"/><path class="cls-2" d="M260.69,79.88h-2.83a.9.9,0,1,1,0-1.8h2.83a.9.9,0,1,1,0,1.8Z" transform="translate(-41.13 -11.47)"/><path class="cls-2" d="M256.62,75.25a.9.9,0,0,1-.45-1.68l2.45-1.41a.9.9,0,1,1,.9,1.56l-2.45,1.41A.89.89,0,0,1,256.62,75.25Z" transform="translate(-41.13 -11.47)"/><path class="cls-2" d="M253.23,71.85a.9.9,0,0,1-.78-1.35l1.41-2.45a.9.9,0,1,1,1.56.9L254,71.4A.9.9,0,0,1,253.23,71.85Z" transform="translate(-41.13 -11.47)"/><rect class="cls-3" x="201.42" y="124.2" width="30.03" height="13.9"/><path class="cls-2" d="M272.58,150.57h-30a1,1,0,0,1-1-1v-13.9a1,1,0,0,1,1-1h30a1,1,0,0,1,1,1v13.9A1,1,0,0,1,272.58,150.57Zm-29-2h28v-11.9h-28Z" transform="translate(-41.13 -11.47)"/><path class="cls-2" d="M112.1,132.9h-2.25a1,1,0,0,1,0-2h2.25a1,1,0,0,1,0,2Z" transform="translate(-41.13 -11.47)"/><path class="cls-2" d="M106.35,132.9H100.1a1,1,0,0,1,0-2h6.25a1,1,0,1,1,0,2Z" transform="translate(-41.13 -11.47)"/><path class="cls-2" d="M124.1,132.9h-6.25a1,1,0,0,1,0-2h6.25a1,1,0,0,1,0,2Z" transform="translate(-41.13 -11.47)"/><path class="cls-2" d="M119,144.46h-2.25a1,1,0,1,1,0-2H119a1,1,0,1,1,0,2Z" transform="translate(-41.13 -11.47)"/><path class="cls-2" d="M101.52,144.46H90.73a1,1,0,0,1,0-2h10.79a1,1,0,0,1,0,2Z" transform="translate(-41.13 -11.47)"/><path class="cls-2" d="M112.1,144.46h-6.25a1,1,0,0,1,0-2h6.25a1,1,0,0,1,0,2Z" transform="translate(-41.13 -11.47)"/><path class="cls-2" d="M107.1,158.51h-2.25a1,1,0,0,1,0-2h2.25a1,1,0,0,1,0,2Z" transform="translate(-41.13 -11.47)"/><path class="cls-2" d="M118,158.51h-6.25a1,1,0,0,1,0-2H118a1,1,0,0,1,0,2Z" transform="translate(-41.13 -11.47)"/><path class="cls-2" d="M99.25,151.53H93a1,1,0,0,1,0-2h6.25a1,1,0,0,1,0,2Z" transform="translate(-41.13 -11.47)"/><g id="_Group_2" data-name="&lt;Group&gt;"><polygon class="cls-6" points="147.4 112.99 147.4 149.54 126.18 130.59 147.4 112.99"/><polygon class="cls-5" points="147.4 112.99 126.18 130.59 115.77 139.23 105.36 130.59 84.14 112.99 147.4 112.99"/><polygon class="cls-6" points="147.4 149.54 84.14 149.54 105.36 130.59 115.77 139.23 126.18 130.59 147.4 149.54"/><polygon class="cls-6" points="105.36 130.59 84.14 149.54 84.14 112.99 105.36 130.59"/><path class="cls-2" d="M188.52,162H125.26a1,1,0,0,1-1-1V124.46a1,1,0,0,1,1-1h63.26a1,1,0,0,1,1,1V161A1,1,0,0,1,188.52,162Zm-62.26-2h61.26V125.46H126.26Z" transform="translate(-41.13 -11.47)"/><path class="cls-2" d="M156.89,151.7a1,1,0,0,1-.64-.23l-31.63-26.24a1,1,0,1,1,1.28-1.54l31,25.71,31-25.71a1,1,0,0,1,1.28,1.54l-31.63,26.24A1,1,0,0,1,156.89,151.7Z" transform="translate(-41.13 -11.47)"/><path class="cls-2" d="M125.26,162a1,1,0,0,1-.67-1.75l21.22-19a1,1,0,1,1,1.33,1.49l-21.22,19A1,1,0,0,1,125.26,162Z" transform="translate(-41.13 -11.47)"/><path class="cls-2" d="M188.52,162a1,1,0,0,1-.67-.25l-21.22-19a1,1,0,1,1,1.33-1.49l21.22,19a1,1,0,0,1-.67,1.75Z" transform="translate(-41.13 -11.47)"/></g><polygon class="cls-5" points="52 24.7 7.5 24.7 7.5 96.7 60.12 96.7 60.12 32.83 52 32.83 52 24.7"/><path class="cls-2" d="M101.25,109.17H48.62a1,1,0,0,1-1-1v-72a1,1,0,0,1,1-1h44.5a1,1,0,0,1,1,1V43.3h7.12a1,1,0,0,1,1,1v63.88A1,1,0,0,1,101.25,109.17Zm-51.62-2h50.62V45.3H93.12a1,1,0,0,1-1-1V37.17H49.62Z" transform="translate(-41.13 -11.47)"/><polygon class="cls-6" points="52 24.7 60.12 32.83 52 32.83 52 24.7"/><path class="cls-2" d="M101.27,45.3H93.12a1,1,0,0,1-1-1V36.17a1,1,0,0,1,1.71-.71l8,8a1,1,0,0,1-.58,1.82Zm-7.14-2h4.71l-4.71-4.71Z" transform="translate(-41.13 -11.47)"/><rect class="cls-9" x="13.81" y="40.7" width="5.33" height="23.5"/><path class="cls-2" d="M60.27,76.67H54.93a1,1,0,0,1-1-1V52.17a1,1,0,0,1,1-1h5.33a1,1,0,0,1,1,1v23.5A1,1,0,0,1,60.27,76.67Zm-4.33-2h3.33V53.17H55.93Z" transform="translate(-41.13 -11.47)"/><rect class="cls-11" x="22.47" y="35.37" width="5.33" height="28.83"/><path class="cls-2" d="M68.93,76.67H63.6a1,1,0,0,1-1-1V46.84a1,1,0,0,1,1-1h5.33a1,1,0,0,1,1,1V75.67A1,1,0,0,1,68.93,76.67Zm-4.33-2h3.33V47.84H64.6Z" transform="translate(-41.13 -11.47)"/><rect class="cls-13" x="31.14" y="57.53" width="5.33" height="6.67"/><path class="cls-2" d="M77.6,76.67H72.27a1,1,0,0,1-1-1V69a1,1,0,0,1,1-1H77.6a1,1,0,0,1,1,1v6.67A1,1,0,0,1,77.6,76.67Zm-4.33-2H76.6V70H73.27Z" transform="translate(-41.13 -11.47)"/><rect class="cls-9" x="39.81" y="48.37" width="5.33" height="15.83"/><path class="cls-2" d="M86.27,76.67H80.93a1,1,0,0,1-1-1V59.84a1,1,0,0,1,1-1h5.33a1,1,0,0,1,1,1V75.67A1,1,0,0,1,86.27,76.67Zm-4.33-2h3.33V60.84H81.93Z" transform="translate(-41.13 -11.47)"/><rect class="cls-9" x="48.48" y="44.03" width="5.33" height="20.17"/><path class="cls-2" d="M94.93,76.67H89.6a1,1,0,0,1-1-1V55.51a1,1,0,0,1,1-1h5.33a1,1,0,0,1,1,1V75.67A1,1,0,0,1,94.93,76.67Zm-4.33-2h3.33V56.51H90.6Z" transform="translate(-41.13 -11.47)"/><path class="cls-2" d="M94.93,83h-40a1,1,0,1,1,0-2h40a1,1,0,1,1,0,2Z" transform="translate(-41.13 -11.47)"/><path class="cls-2" d="M94.93,87.3h-40a1,1,0,1,1,0-2h40a1,1,0,1,1,0,2Z" transform="translate(-41.13 -11.47)"/><path class="cls-2" d="M94.93,91.55h-40a1,1,0,1,1,0-2h40a1,1,0,1,1,0,2Z" transform="translate(-41.13 -11.47)"/><path class="cls-2" d="M94.93,95.8h-40a1,1,0,1,1,0-2h40a1,1,0,1,1,0,2Z" transform="translate(-41.13 -11.47)"/><path class="cls-2" d="M94.93,100h-40a1,1,0,1,1,0-2h40a1,1,0,1,1,0,2Z" transform="translate(-41.13 -11.47)"/><g class="cls-4"><circle class="cls-5" cx="33.81" cy="146.04" r="28.74"/></g><g id="_Group_3" data-name="&lt;Group&gt;"><path class="cls-5" d="M66.15,144.35A15.84,15.84,0,0,1,71.87,142h0l.95-4.08h4.3L78,142h0a15.66,15.66,0,0,1,5.72,2.35l3.54-2.21,3,3-2.21,3.54a16,16,0,0,1,2.38,5.7l4.05.94v4.3l-4.05.94a15.89,15.89,0,0,1-2.37,5.71l2.21,3.53-3,3-3.54-2.21A15.82,15.82,0,0,1,78,173l-.95,4.05h-4.3L71.85,173a15.8,15.8,0,0,1-5.71-2.37l-3.55,2.21-3-3,2.22-3.55a15.83,15.83,0,0,1-2.36-5.7l-4.07-.94v-4.3l4.07-.94a15.78,15.78,0,0,1,2.37-5.69l-2.22-3.55,3-3ZM80.8,157.52a5.87,5.87,0,1,0-5.87,5.87A5.87,5.87,0,0,0,80.8,157.52Z" transform="translate(-41.13 -11.47)"/><path class="cls-2" d="M66.14,145.26a.91.91,0,1,1,.91-.91A.92.92,0,0,1,66.14,145.26Z" transform="translate(-41.13 -11.47)"/><path class="cls-2" d="M77.08,178h-4.3a.9.9,0,0,1-.88-.7l-.81-3.5a16.6,16.6,0,0,1-5-2.06l-3.06,1.91a.9.9,0,0,1-1.11-.13l-3-3a.9.9,0,0,1-.13-1.11l1.91-3.06a16.58,16.58,0,0,1-2.05-5l-3.52-.81a.9.9,0,0,1-.7-.88v-4.3a.9.9,0,0,1,.7-.88l3.52-.81a16.53,16.53,0,0,1,2.06-5l-1.91-3.06a.9.9,0,0,1,.13-1.11l3-3a.9.9,0,0,1,1.11-.13l3.07,1.91a16.69,16.69,0,0,1,4.95-2l.82-3.53a.9.9,0,0,1,.88-.7h4.3a.9.9,0,0,1,.88.7l.82,3.53a16.42,16.42,0,0,1,5,2l3.06-1.9a.9.9,0,0,1,1.11.13l3,3a.9.9,0,0,1,.13,1.11l-1.9,3.06a16.78,16.78,0,0,1,2.07,5l3.5.81a.9.9,0,0,1,.7.88v4.3a.9.9,0,0,1-.7.88l-3.5.81a16.71,16.71,0,0,1-2.06,5l1.91,3a.9.9,0,0,1-.13,1.12l-3,3a.9.9,0,0,1-1.11.13l-3.06-1.9a16.57,16.57,0,0,1-5,2.06L78,177.3A.9.9,0,0,1,77.08,178Zm-3.58-1.8h2.87l.78-3.36a.9.9,0,0,1,.7-.68,14.82,14.82,0,0,0,5.38-2.23.9.9,0,0,1,1,0l2.93,1.83,2-2-1.83-2.92a.9.9,0,0,1,0-1,14.94,14.94,0,0,0,2.24-5.39.9.9,0,0,1,.68-.7l3.36-.78v-2.87l-3.36-.78a.9.9,0,0,1-.68-.7,15,15,0,0,0-2.24-5.38.9.9,0,0,1,0-1l1.83-2.93-2-2-2.93,1.83a.9.9,0,0,1-1,0,14.65,14.65,0,0,0-5.39-2.21.9.9,0,0,1-.73-.9l-.73-3.17H73.5L72.75,142a.89.89,0,0,1-.71.83,14.89,14.89,0,0,0-5.39,2.22.9.9,0,0,1-1,0l-2.94-1.84-2,2,1.84,2.94a.9.9,0,0,1,0,1,14.85,14.85,0,0,0-2.23,5.37.9.9,0,0,1-.68.7l-3.37.78v2.87l3.37.78a.9.9,0,0,1,.68.7,14.85,14.85,0,0,0,2.23,5.38.9.9,0,0,1,0,1l-1.84,2.94,2,2,2.94-1.83a.9.9,0,0,1,1,0A14.82,14.82,0,0,0,72,172.16a.9.9,0,0,1,.7.68Z" transform="translate(-41.13 -11.47)"/><path class="cls-2" d="M74.93,164.29a6.77,6.77,0,1,1,6.77-6.77A6.78,6.78,0,0,1,74.93,164.29Zm0-11.74a5,5,0,1,0,5,5A5,5,0,0,0,74.93,152.56Z" transform="translate(-41.13 -11.47)"/><path class="cls-2" d="M63.72,158.42a.9.9,0,0,1-.9-.9A12.13,12.13,0,0,1,74.93,145.4a.9.9,0,0,1,0,1.8,10.32,10.32,0,0,0-10.31,10.31A.9.9,0,0,1,63.72,158.42Z" transform="translate(-41.13 -11.47)"/></g><rect class="cls-1" x="135.11" y="30.51" width="11.54" height="11.54"/><path class="cls-2" d="M187.78,54.43H176.24a.9.9,0,0,1-.9-.9V42a.9.9,0,0,1,.9-.9h11.54a.9.9,0,0,1,.9.9V53.53A.9.9,0,0,1,187.78,54.43Zm-10.64-1.8h9.74V42.88h-9.74Z" transform="translate(-41.13 -11.47)"/><line class="cls-1" x1="135.11" y1="30.51" x2="146.65" y2="42.05"/><path class="cls-2" d="M187.78,54.43a.9.9,0,0,1-.64-.26L175.6,42.62a.9.9,0,1,1,1.27-1.27l11.54,11.54a.9.9,0,0,1-.64,1.54Z" transform="translate(-41.13 -11.47)"/><line class="cls-1" x1="135.11" y1="42.05" x2="146.65" y2="30.51"/><path class="cls-2" d="M176.24,54.43a.9.9,0,0,1-.64-1.54l11.54-11.54a.9.9,0,0,1,1.27,1.27L176.88,54.16A.9.9,0,0,1,176.24,54.43Z" transform="translate(-41.13 -11.47)"/></svg>