<svg xmlns="http://www.w3.org/2000/svg" viewBox="0 0 628.58 484.92"><defs><style>.cls-1{fill:#e1ecd5;}.cls-2{fill:#9fc778;}.cls-3{fill:#474f58;}.cls-4{fill:#d8783e;}.cls-5{fill:#e7ae52;}.cls-6{fill:#dfc480;}.cls-7{fill:#cd8b54;}.cls-8{fill:#c67249;}.cls-9{fill:#dec6ae;}.cls-10{fill:#767d81;}.cls-11{fill:#474e53;}.cls-12{fill:#f3f9fd;}.cls-13{fill:#c9804b;}</style></defs><title>Asset 2</title><g id="Layer_2" data-name="Layer 2"><g id="Layer_2-2" data-name="Layer 2"><circle class="cls-1" cx="578.54" cy="477.72" r="7.2"/><circle class="cls-1" cx="78.74" cy="477.72" r="7.2"/><rect class="cls-2" x="438.51" y="158.91" width="55.35" height="272.32"/><path class="cls-3" d="M493.85,434.69H438.51a3.47,3.47,0,0,1-3.47-3.47V158.91a3.47,3.47,0,0,1,3.47-3.47h55.35a3.47,3.47,0,0,1,3.47,3.47V431.22A3.47,3.47,0,0,1,493.85,434.69ZM442,427.76h48.41V162.37H442Z"/><path class="cls-4" d="M598.55,284.09h26.57V431.87H595.69S598.55,282.43,598.55,284.09Z"/><path class="cls-3" d="M625.12,435.33H595.69a3.47,3.47,0,0,1-3.47-3.53l1.42-73.89c.36-18.47.71-36.95,1-50.8l.42-21.44c0-.36,0-.78.05-1.23a3.47,3.47,0,0,1,0-.35h.05c.2-1.66.88-3.48,3.41-3.48h26.57a3.47,3.47,0,0,1,3.47,3.47V431.87A3.47,3.47,0,0,1,625.12,435.33Zm-25.89-6.93h22.42V287.56H601.94C601.54,307.33,599.62,408.15,599.23,428.4Z"/><rect class="cls-1" x="600.12" y="296.91" width="11.07" height="129.15"/><path class="cls-5" d="M476.14,371.45V269.61H597.91V431.23H478.35S478.36,369.24,476.14,371.45Z"/><path class="cls-3" d="M597.91,434.69H478.35a3.47,3.47,0,0,1-3.47-3.47c0-21-.46-51.72-1.47-57.64a3.47,3.47,0,0,1-.74-2.14V269.61a3.47,3.47,0,0,1,3.47-3.47H597.91a3.47,3.47,0,0,1,3.47,3.47V431.23A3.47,3.47,0,0,1,597.91,434.69Zm-116.1-6.93H594.44V273.08H479.61v97c.88,2,1.06,5.45,1.32,10.46s.47,12,.63,20.69C481.74,411.8,481.8,422.45,481.81,427.76Z"/><polyline class="cls-1" points="378.73 138.43 410.83 158.35 410.83 184.92 378.73 184.92"/><path class="cls-3" d="M410.83,188.39h-32.1a3.47,3.47,0,0,1,0-6.93h28.64V160.28L376.9,141.37a3.47,3.47,0,0,1,3.66-5.89l32.1,19.93a3.47,3.47,0,0,1,1.64,2.95v26.57A3.47,3.47,0,0,1,410.83,188.39Z"/><polyline class="cls-1" points="306.78 137.32 274.68 157.25 274.68 183.81 306.78 183.81"/><path class="cls-3" d="M306.78,187.28h-32.1a3.47,3.47,0,0,1-3.47-3.47V157.25a3.47,3.47,0,0,1,1.64-2.95L305,134.37a3.47,3.47,0,0,1,3.66,5.89l-30.46,18.91v21.17h28.63a3.47,3.47,0,0,1,0,6.93Z"/><rect class="cls-6" x="307.34" y="57.82" width="70.29" height="128.72" transform="translate(684.97 244.36) rotate(180)"/><rect class="cls-7" x="327.63" y="57.82" width="50" height="128.72" transform="translate(705.26 244.36) rotate(180)"/><rect class="cls-8" x="354.2" y="57.82" width="23.43" height="128.72" transform="translate(731.83 244.36) rotate(180)"/><line class="cls-8" x1="377.63" y1="163.64" x2="307.34" y2="163.64"/><line class="cls-8" x1="354.84" y1="163.64" x2="354.84" y2="57.82"/><line class="cls-8" x1="330.49" y1="163.64" x2="330.49" y2="57.82"/><polyline class="cls-9" points="305.98 55.16 342.23 6.64 342.61 6.64 378.87 55.16"/><polygon class="cls-8" points="342.23 6.64 324.73 30.07 360.12 30.07 342.61 6.64 342.23 6.64"/><line class="cls-1" x1="317.18" y1="189.7" x2="317.18" y2="209.11"/><path class="cls-3" d="M317.18,212.58a3.47,3.47,0,0,1-3.47-3.47V189.7a3.47,3.47,0,1,1,6.93,0v19.42A3.47,3.47,0,0,1,317.18,212.58Z"/><line class="cls-1" x1="317.18" y1="219.79" x2="317.18" y2="233.47"/><path class="cls-3" d="M317.18,236.93a3.47,3.47,0,0,1-3.47-3.47V219.79a3.47,3.47,0,1,1,6.93,0v13.67A3.47,3.47,0,0,1,317.18,236.93Z"/><line class="cls-1" x1="342.42" y1="245.81" x2="342.42" y2="255.61"/><path class="cls-3" d="M342.42,259.07a3.47,3.47,0,0,1-3.47-3.47v-9.8a3.47,3.47,0,1,1,6.93,0v9.8A3.47,3.47,0,0,1,342.42,259.07Z"/><line class="cls-1" x1="365.91" y1="189.7" x2="365.91" y2="199.41"/><path class="cls-3" d="M365.91,202.87a3.47,3.47,0,0,1-3.47-3.47V189.7a3.47,3.47,0,1,1,6.93,0v9.71A3.47,3.47,0,0,1,365.91,202.87Z"/><line class="cls-1" x1="342.48" y1="189.7" x2="342.48" y2="233.47"/><path class="cls-3" d="M342.48,236.93a3.47,3.47,0,0,1-3.47-3.47V189.7a3.47,3.47,0,0,1,6.93,0v43.77A3.47,3.47,0,0,1,342.48,236.93Z"/><path class="cls-3" d="M300.7,193h83.57V51.18h-.09L345.94,0h-7L300.66,51.18l0,0Zm75.83-36H357V57.81h19.48ZM343.3,7.07,375,51.18H309.49Zm8.22,50.74V157h-21V57.81Zm-43.08,0H325V157H308.44Zm0,106.08h68.08v21.4H308.44Z"/><rect class="cls-10" x="120.81" y="216.47" width="128.41" height="214.75" rx="7.75" ry="7.75"/><path class="cls-3" d="M241.47,434.69H128.56a11.23,11.23,0,0,1-11.22-11.22V224.22A11.23,11.23,0,0,1,128.56,213H241.47a11.23,11.23,0,0,1,11.22,11.22V423.47A11.23,11.23,0,0,1,241.47,434.69ZM128.56,219.94a4.29,4.29,0,0,0-4.28,4.28V423.47a4.29,4.29,0,0,0,4.28,4.28H241.47a4.29,4.29,0,0,0,4.28-4.28V224.22a4.29,4.29,0,0,0-4.28-4.28Z"/><rect class="cls-11" x="141.84" y="240.95" width="86.35" height="155.82" rx="5.41" ry="5.41"/><circle class="cls-10" cx="184.01" cy="317.46" r="21.92"/><polygon class="cls-12" points="182.89 314.65 185.13 315.94 182.89 317.24 182.89 314.65"/><polygon class="cls-5" points="179.14 326.53 179.14 308.36 194.88 317.44 179.14 326.53"/><path class="cls-3" d="M193.65,169.54a11.94,11.94,0,1,1,11.94-11.94A12,12,0,0,1,193.65,169.54Zm0-19.92a8,8,0,1,0,8,8A8,8,0,0,0,193.65,149.61Z"/><path class="cls-3" d="M13.43,369.38a13.43,13.43,0,1,1,13.43-13.43A13.44,13.44,0,0,1,13.43,369.38Zm0-19.92a6.5,6.5,0,1,0,6.5,6.49A6.5,6.5,0,0,0,13.43,349.45Z"/><path class="cls-3" d="M545.88,192.25a9,9,0,1,1,9-9A9,9,0,0,1,545.88,192.25Zm0-14a5,5,0,1,0,5,5A5,5,0,0,0,545.88,178.23Z"/><path class="cls-3" d="M475,82.29A11.94,11.94,0,1,1,487,70.35,12,12,0,0,1,475,82.29Zm0-19.92a8,8,0,1,0,8,8A8,8,0,0,0,475,62.37Z"/><path class="cls-12" d="M94.24,142.63l2.83,5.73a.94.94,0,0,0,.71.51l6.33.92a.94.94,0,0,1,.52,1.6L100,155.86a.94.94,0,0,0-.27.83l1.08,6.3a.94.94,0,0,1-1.36,1l-5.66-3a.94.94,0,0,0-.87,0l-5.66,3a.94.94,0,0,1-1.36-1l1.08-6.3a.94.94,0,0,0-.27-.83l-4.58-4.46a.94.94,0,0,1,.52-1.6l6.33-.92a.94.94,0,0,0,.71-.51l2.83-5.73A.94.94,0,0,1,94.24,142.63Z"/><path class="cls-1" d="M535.34,431.87a26.57,26.57,0,0,0-27-21.11c-.81,0-1.61.11-2.39.21a46.49,46.49,0,0,0-46.38-43.4q-1.21,0-2.4.06a46.49,46.49,0,0,0-66.29-33.47A84.68,84.68,0,0,0,230.39,372c0,.12,0,.24,0,.36a46.53,46.53,0,0,0-57.65,38.39c-.5,0-1,0-1.52,0a26.58,26.58,0,0,0-25,21.11H535.34Z"/><path class="cls-3" d="M535.34,435.33H146.27a3.47,3.47,0,0,1-3.39-4.17,30,30,0,0,1,26.95-23.78A50,50,0,0,1,227,368.1a88.15,88.15,0,0,1,165.37-38.44,50,50,0,0,1,67.54,34.45A50.07,50.07,0,0,1,509,407.28h.34a30.13,30.13,0,0,1,29.38,23.89,3.47,3.47,0,0,1-3.39,4.17ZM151,428.4H530.65a23.18,23.18,0,0,0-22.22-14.17c-.66,0-1.34.09-2.09.18a3.47,3.47,0,0,1-3.9-3.21A43.1,43.1,0,0,0,459.52,371q-1.12,0-2.23.06a3.49,3.49,0,0,1-3.58-2.85,43,43,0,0,0-61.35-31,3.46,3.46,0,0,1-4.63-1.56A81.21,81.21,0,0,0,233.86,372v.35a3.47,3.47,0,0,1-4.33,3.37,43.06,43.06,0,0,0-53.35,35.52,3.47,3.47,0,0,1-3.43,3h-.55l-.83,0A23.06,23.06,0,0,0,151,428.4Z"/><path class="cls-3" d="M154.12,434.78H97.67a3.47,3.47,0,0,1,0-6.93h56.45a3.47,3.47,0,0,1,0,6.93Z"/><path class="cls-3" d="M71.11,434.78H51.18a3.47,3.47,0,0,1,0-6.93H71.11a3.47,3.47,0,0,1,0,6.93Z"/><path class="cls-3" d="M554.27,434.78H534.35a3.47,3.47,0,0,1,0-6.93h19.93a3.47,3.47,0,0,1,0,6.93Z"/><rect class="cls-1" x="499.39" y="306.14" width="75.27" height="42.07"/><line class="cls-2" x1="493.86" y1="192.12" x2="471.72" y2="192.12"/><path class="cls-3" d="M493.85,195.58H471.72a3.47,3.47,0,0,1,0-6.93h22.14a3.47,3.47,0,0,1,0,6.93Z"/><line class="cls-2" x1="493.86" y1="250.79" x2="471.72" y2="250.79"/><path class="cls-3" d="M493.85,254.25H471.72a3.47,3.47,0,0,1,0-6.93h22.14a3.47,3.47,0,0,1,0,6.93Z"/><line class="cls-2" x1="493.86" y1="210.94" x2="478.36" y2="210.94"/><path class="cls-3" d="M493.85,214.4h-15.5a3.47,3.47,0,0,1,0-6.93h15.5a3.47,3.47,0,0,1,0,6.93Z"/><line class="cls-2" x1="493.86" y1="226.43" x2="478.36" y2="226.43"/><path class="cls-3" d="M493.85,229.9h-15.5a3.47,3.47,0,0,1,0-6.93h15.5a3.47,3.47,0,0,1,0,6.93Z"/><path class="cls-1" d="M54.5,254.76V431.23h64.09l2.22-7.75V249.23H54.5s-33.32-1.66-33.32,31.55h31"/><path class="cls-3" d="M118.59,434.69H54.5A3.47,3.47,0,0,1,51,431.23v-147H21.18a3.47,3.47,0,0,1-3.47-3.47c0-10.75,3.25-19.3,9.67-25.4,10.51-10,25.7-9.67,27.2-9.61H120.8a3.47,3.47,0,0,1,3.47,3.47V423.47a3.47,3.47,0,0,1-.13,1l-2.22,7.75A3.47,3.47,0,0,1,118.59,434.69ZM58,427.76h58l1.36-4.77V252.69H57.28a3.45,3.45,0,0,1,.69,2.07ZM24.78,277.31H51V254.76a3.45,3.45,0,0,1,.64-2c-4.38.29-13.24,1.64-19.55,7.67C27.84,264.52,25.37,270.19,24.78,277.31Z"/><line class="cls-1" x1="85.38" y1="301.71" x2="114.16" y2="301.71"/><path class="cls-3" d="M114.16,307.16H85.38a5.45,5.45,0,0,1,0-10.9h28.78a5.45,5.45,0,0,1,0,10.9Z"/><line class="cls-1" x1="85.38" y1="327.17" x2="114.16" y2="327.17"/><path class="cls-3" d="M114.16,332.62H85.38a5.45,5.45,0,0,1,0-10.9h28.78a5.45,5.45,0,0,1,0,10.9Z"/><line class="cls-1" x1="85.38" y1="355.95" x2="97.56" y2="355.95"/><path class="cls-3" d="M97.56,361.4H85.38a5.45,5.45,0,0,1,0-10.9H97.56a5.45,5.45,0,0,1,0,10.9Z"/><circle class="cls-5" cx="321.17" cy="336.02" r="8.86"/><circle class="cls-5" cx="444.04" cy="399.12" r="4.43"/><circle class="cls-5" cx="262.87" cy="357.42" r="8.86"/><circle class="cls-5" cx="357.33" cy="331.6" r="4.43"/><circle class="cls-5" cx="468.39" cy="396.91" r="4.43"/><circle class="cls-5" cx="264.16" cy="334.36" r="4.43"/><circle class="cls-5" cx="411.94" cy="364.8" r="8.86"/><circle class="cls-5" cx="341.75" cy="362.13" r="3.32"/><circle class="cls-5" cx="212.68" cy="395.8" r="3.32"/><circle class="cls-1" cx="393.4" cy="282.89" r="7.47"/><circle class="cls-1" cx="291.28" cy="216.75" r="7.47"/><circle class="cls-1" cx="283.63" cy="257.53" r="3.74"/><circle class="cls-1" cx="375.41" cy="226.44" r="6.07"/><circle class="cls-11" cx="258.73" cy="48.32" r="8.3"/><circle class="cls-11" cx="526.05" cy="237.6" r="6.23"/><path class="cls-3" d="M189.49,129.1c-10.64,0-16.38-23.67-16.38-45.94s5.74-45.94,16.38-45.94,16.38,23.67,16.38,45.94S200.13,129.1,189.49,129.1Zm0-87.44c-5,0-11.95,15.79-11.95,41.51s7,41.51,11.95,41.51,11.95-15.79,11.95-41.51S194.48,41.66,189.49,41.66Z"/><path class="cls-3" d="M189.49,99.54c-22.27,0-45.94-5.74-45.94-16.38s23.67-16.38,45.94-16.38,45.94,5.74,45.94,16.38S211.76,99.54,189.49,99.54Zm0-28.32c-25.72,0-41.51,7-41.51,11.95s15.79,11.95,41.51,11.95S231,88.16,231,83.17,215.21,71.22,189.49,71.22Z"/><path class="cls-3" d="M215.82,117.89c-8.83,0-24.07-9.3-37.91-23.14C162.17,79,149.49,58.21,157,50.69a8.35,8.35,0,0,1,6.15-2.24c8.83,0,24.07,9.3,37.91,23.14,15.75,15.75,28.42,36.54,20.9,44.06A8.35,8.35,0,0,1,215.82,117.89Zm-52.66-65a4.16,4.16,0,0,0-3,.94c-3.53,3.53,2.72,19.61,20.9,37.8,12.86,12.86,27.16,21.84,34.78,21.84a4.16,4.16,0,0,0,3-.94c3.53-3.53-2.72-19.61-20.9-37.8C185.08,61.86,170.78,52.88,163.16,52.88Z"/><path class="cls-3" d="M163.16,117.89a8.35,8.35,0,0,1-6.15-2.24c-7.52-7.52,5.16-28.31,20.9-44.06C191.75,57.75,207,48.45,215.82,48.45A8.35,8.35,0,0,1,222,50.69c7.52,7.52-5.16,28.31-20.9,44.06C187.23,108.59,172,117.89,163.16,117.89Zm52.66-65c-7.61,0-21.92,9-34.78,21.84-18.18,18.18-24.43,34.27-20.9,37.8a4.16,4.16,0,0,0,3,.94c7.62,0,21.92-9,34.78-21.84,18.18-18.19,24.43-34.27,20.9-37.8A4.16,4.16,0,0,0,215.82,52.88Z"/><circle class="cls-12" cx="190.27" cy="83.36" r="3.6"/><circle class="cls-12" cx="212.13" cy="115.19" r="4.95"/><circle class="cls-13" cx="185.56" cy="42.16" r="4.95"/></g></g></svg>