<?xml version="1.0" encoding="UTF-8" ?>
<!DOCTYPE svg PUBLIC "-//W3C//DTD SVG 1.1//EN" "http://www.w3.org/Graphics/SVG/1.1/DTD/svg11.dtd">
<svg width="630pt" height="354pt" viewBox="0 0 630 354" version="1.1" xmlns="http://www.w3.org/2000/svg">
<g id="#fefefeff">
</g>
<g id="#969696ff">
<path fill="#969696" opacity="1.00" d=" M 520.19 131.41 C 521.66 129.18 524.36 128.22 526.88 129.26 C 537.01 131.96 547.03 135.11 557.12 137.98 C 559.55 138.45 561.76 140.28 561.52 142.98 C 561.57 153.93 561.60 164.91 561.50 175.87 C 561.63 178.20 559.16 179.31 557.79 180.78 C 556.32 168.88 557.96 156.87 556.93 144.96 C 556.87 142.05 553.38 141.58 551.26 140.74 C 540.70 137.99 530.38 134.38 519.69 132.15 L 520.19 131.41 Z" />
</g>
<g id="#d1d1d1ff">
<path fill="#d1d1d1" opacity="1.00" d=" M 515.13 134.73 C 516.72 133.49 518.40 132.36 520.19 131.41 L 519.69 132.15 C 520.14 134.72 521.34 137.34 524.16 137.87 C 533.57 140.64 542.98 143.46 552.47 145.97 C 552.80 156.03 552.20 166.10 552.71 176.14 C 552.57 179.08 555.84 179.59 557.79 180.78 C 555.40 181.49 552.81 184.34 550.36 182.55 C 548.06 181.28 548.20 178.35 548.10 176.09 C 548.12 167.05 548.27 158.01 548.07 148.97 C 538.25 146.13 528.31 143.64 518.64 140.35 C 516.04 139.74 516.02 136.74 515.13 134.73 Z" />
<path fill="#d1d1d1" opacity="1.00" d=" M 480.74 147.69 C 481.78 145.98 483.86 145.55 485.56 144.81 C 485.37 145.18 484.99 145.93 484.79 146.31 C 484.87 148.73 484.80 151.54 486.67 153.38 C 488.49 155.17 491.08 155.75 493.43 156.52 C 503.86 159.48 514.24 162.58 524.68 165.53 C 524.69 176.02 524.70 186.51 524.64 197.00 C 524.69 199.66 524.57 202.56 526.12 204.87 C 527.44 206.96 530.00 207.57 532.19 208.29 L 533.49 207.97 C 531.53 209.53 529.55 211.59 526.86 211.60 C 522.82 211.73 518.98 208.25 519.34 204.08 C 519.33 192.53 519.23 180.98 519.48 169.43 C 507.80 165.56 495.76 162.83 484.12 158.83 C 479.42 157.66 478.30 151.34 480.74 147.69 Z" />
</g>
<g id="#747474ff">
<path fill="#747474" opacity="1.00" d=" M 519.69 132.15 C 530.38 134.38 540.70 137.99 551.26 140.74 C 553.38 141.58 556.87 142.05 556.93 144.96 C 557.96 156.87 556.32 168.88 557.79 180.78 C 555.84 179.59 552.57 179.08 552.71 176.14 C 552.20 166.10 552.80 156.03 552.47 145.97 C 542.98 143.46 533.57 140.64 524.16 137.87 C 521.34 137.34 520.14 134.72 519.69 132.15 Z" />
<path fill="#747474" opacity="1.00" d=" M 485.56 144.81 C 487.49 141.75 491.36 140.31 494.82 141.46 C 507.75 145.17 520.68 148.88 533.60 152.64 C 537.01 153.42 539.72 156.41 539.53 160.01 C 539.63 173.35 539.57 186.70 539.54 200.05 C 539.84 203.80 537.08 207.12 533.49 207.97 L 532.19 208.29 C 532.22 194.20 532.21 180.10 532.25 166.01 C 532.53 162.74 531.06 159.34 527.62 158.58 C 513.43 154.23 499.10 150.27 484.79 146.31 C 484.99 145.93 485.37 145.18 485.56 144.81 Z" />
</g>
<g id="#535353ff">
<path fill="#535353" opacity="1.00" d=" M 484.79 146.31 C 499.10 150.27 513.43 154.23 527.62 158.58 C 531.06 159.34 532.53 162.74 532.25 166.01 C 532.21 180.10 532.22 194.20 532.19 208.29 C 530.00 207.57 527.44 206.96 526.12 204.87 C 524.57 202.56 524.69 199.66 524.64 197.00 C 524.70 186.51 524.69 176.02 524.68 165.53 C 514.24 162.58 503.86 159.48 493.43 156.52 C 491.08 155.75 488.49 155.17 486.67 153.38 C 484.80 151.54 484.87 148.73 484.79 146.31 Z" />
<path fill="#535353" opacity="1.00" d=" M 127.41 184.32 C 130.70 184.37 133.98 184.37 137.27 184.38 C 137.14 199.30 137.32 214.22 137.18 229.14 C 137.31 233.47 133.21 236.86 129.01 236.59 C 124.29 236.96 120.68 233.46 117.32 230.69 C 104.24 219.17 91.37 207.40 78.40 195.76 C 78.28 209.38 78.37 222.99 78.35 236.61 C 75.23 236.59 72.11 236.58 69.00 236.57 C 69.11 222.03 68.94 207.49 69.07 192.96 C 69.10 188.71 72.47 184.22 76.99 184.36 C 82.47 184.12 86.27 188.60 90.00 191.93 C 102.38 203.09 114.68 214.34 127.37 225.13 C 127.47 211.53 127.38 197.93 127.41 184.32 Z" />
<path fill="#535353" opacity="1.00" d=" M 146.33 201.92 C 145.66 192.12 155.39 183.25 165.06 184.33 C 180.16 184.46 195.27 184.20 210.37 184.47 C 210.43 187.24 210.44 190.02 210.43 192.80 C 195.02 193.77 179.53 192.69 164.11 193.34 C 158.85 194.79 155.69 200.48 156.07 205.78 C 173.54 206.51 191.03 205.91 208.50 206.16 C 208.65 209.01 208.66 211.86 208.50 214.71 C 191.08 214.72 173.65 214.76 156.22 214.70 C 156.49 218.34 155.31 222.82 158.29 225.66 C 159.71 227.28 161.90 227.70 163.96 227.63 C 179.43 227.70 194.91 227.48 210.38 227.73 C 210.43 230.58 210.43 233.42 210.38 236.27 C 195.27 236.57 180.16 236.29 165.05 236.42 C 161.70 236.40 158.09 236.68 155.08 234.92 C 150.16 232.16 146.34 226.83 146.35 221.05 C 146.30 214.68 146.37 208.30 146.33 201.92 Z" />
<path fill="#535353" opacity="1.00" d=" M 288.76 184.49 C 311.29 184.19 333.84 184.25 356.37 184.47 C 356.45 187.70 356.43 190.93 356.32 194.16 C 346.83 194.28 337.35 194.15 327.87 194.26 C 327.80 208.33 328.08 222.41 327.73 236.48 C 324.27 236.61 320.82 236.62 317.38 236.44 C 317.05 222.38 317.32 208.31 317.24 194.24 C 308.07 194.06 298.88 194.46 289.73 194.05 C 289.51 193.88 289.06 193.54 288.84 193.36 C 288.61 190.41 288.72 187.45 288.76 184.49 Z" />
<path fill="#535353" opacity="1.00" d=" M 363.81 195.88 C 366.53 189.18 373.48 183.74 380.94 184.33 C 396.36 184.48 411.78 184.15 427.19 184.51 C 427.21 187.41 427.15 190.32 426.73 193.20 C 412.13 193.15 397.54 193.16 382.94 193.18 C 376.46 192.97 372.42 199.93 372.67 205.78 C 390.19 206.62 407.75 205.81 425.28 206.20 C 425.31 209.00 425.33 211.81 425.28 214.61 C 407.80 214.91 390.32 214.63 372.84 214.74 C 373.10 218.26 372.17 222.38 374.60 225.33 C 376.12 227.20 378.60 227.75 380.90 227.64 C 396.18 227.62 411.47 227.64 426.75 227.62 C 427.21 230.52 427.24 233.46 426.86 236.38 C 410.57 236.41 394.28 236.40 377.99 236.40 C 372.41 236.56 367.51 232.73 364.92 228.02 C 362.01 223.20 363.10 217.36 362.91 212.02 C 363.12 206.65 362.25 201.11 363.81 195.88 Z" />
</g>
<g id="#525252ff">
<path fill="#525252" opacity="1.00" d=" M 222.68 188.69 C 226.90 185.18 232.60 184.28 237.93 184.36 C 252.56 184.37 267.19 184.34 281.83 184.38 C 282.28 187.31 282.25 190.30 281.70 193.23 C 267.48 193.19 253.25 193.22 239.03 193.21 C 235.76 193.26 232.07 193.26 229.50 195.61 C 227.30 197.78 227.04 201.08 227.10 204.00 C 227.16 209.37 227.01 214.74 227.17 220.11 C 227.18 222.51 228.29 224.96 230.39 226.24 C 232.98 227.77 236.09 227.71 239.01 227.76 C 253.22 227.71 267.43 227.77 281.65 227.71 C 282.27 230.64 282.28 233.63 281.75 236.58 C 267.12 236.58 252.49 236.60 237.85 236.58 C 232.58 236.59 226.97 235.65 222.77 232.23 C 219.74 229.80 218.23 225.91 218.24 222.08 C 218.19 214.35 218.16 206.60 218.24 198.87 C 218.28 195.07 219.62 191.10 222.68 188.69 Z" />
<path fill="#525252" opacity="1.00" d=" M 437.69 190.61 C 441.52 185.81 448.04 184.36 453.91 184.36 C 468.86 184.39 483.82 184.27 498.78 184.44 C 498.90 187.36 498.88 190.29 498.68 193.21 C 483.76 193.25 468.85 193.15 453.93 193.25 C 450.22 193.15 445.84 194.53 444.63 198.44 C 443.24 203.51 444.12 208.84 443.86 214.03 C 444.01 217.53 443.31 221.52 445.46 224.57 C 447.62 227.54 451.64 227.71 454.98 227.73 C 469.55 227.78 484.12 227.70 498.70 227.75 C 498.88 230.66 498.90 233.59 498.78 236.51 C 483.52 236.64 468.26 236.61 453.00 236.55 C 446.01 236.45 437.55 233.50 435.65 225.98 C 434.53 219.74 435.39 213.32 435.12 207.01 C 435.32 201.53 434.11 195.32 437.69 190.61 Z" />
</g>
<g id="#818181ff">
<path fill="#818181" opacity="1.00" d=" M 152.39 253.37 C 153.83 253.35 155.26 253.33 156.71 253.32 C 156.69 255.46 156.67 257.60 156.63 259.75 C 158.91 259.36 161.45 257.94 163.67 259.26 C 168.07 261.79 167.47 269.73 162.54 271.34 C 160.56 272.19 158.52 271.18 156.59 270.72 C 155.16 270.99 153.74 271.36 152.35 271.77 C 152.44 265.64 152.40 259.50 152.39 253.37 M 156.60 263.03 C 156.82 264.82 156.49 266.89 157.83 268.33 C 160.00 269.51 162.71 267.47 162.32 265.08 C 162.61 263.10 160.45 262.27 159.23 261.22 C 158.58 261.67 157.26 262.58 156.60 263.03 Z" />
<path fill="#818181" opacity="1.00" d=" M 218.03 253.98 C 219.77 253.02 221.87 253.29 223.78 253.08 C 223.73 254.13 223.69 255.17 223.67 256.23 C 222.96 256.28 221.54 256.38 220.83 256.44 C 220.63 256.97 220.23 258.04 220.03 258.58 C 220.81 258.75 222.37 259.09 223.14 259.27 C 223.13 259.88 223.09 261.11 223.07 261.72 C 222.39 261.81 221.04 261.99 220.36 262.07 C 220.33 265.19 220.32 268.31 220.32 271.43 C 218.81 271.41 217.30 271.40 215.79 271.39 C 215.89 268.41 216.05 265.43 216.21 262.46 C 215.66 262.25 214.56 261.82 214.01 261.60 C 214.08 261.16 214.24 260.29 214.31 259.85 C 215.69 257.98 216.61 255.82 218.03 253.98 Z" />
<path fill="#818181" opacity="1.00" d=" M 252.61 254.53 C 255.39 253.62 258.35 254.26 261.17 254.60 C 260.86 255.63 260.55 256.66 260.24 257.70 C 257.93 257.44 255.50 256.95 253.26 257.87 C 253.86 261.94 259.85 261.00 261.50 264.47 C 262.14 266.37 261.83 268.76 260.10 270.01 C 256.79 272.58 252.37 271.61 248.61 270.82 C 248.85 270.04 249.34 268.47 249.59 267.68 C 252.22 267.94 255.48 269.48 257.66 267.22 C 256.81 263.94 252.13 264.36 250.16 261.92 C 249.52 260.95 248.92 259.96 248.38 258.94 C 249.54 257.28 250.50 255.16 252.61 254.53 Z" />
<path fill="#818181" opacity="1.00" d=" M 263.14 254.24 C 268.00 254.20 272.86 254.19 277.73 254.27 C 277.67 255.37 277.63 256.48 277.58 257.59 C 275.89 257.57 274.19 257.56 272.50 257.56 C 272.45 262.20 272.44 266.84 272.46 271.48 C 271.03 271.44 269.60 271.41 268.17 271.38 C 268.18 266.79 268.19 262.20 268.20 257.61 C 266.42 257.56 264.65 257.55 262.88 257.51 C 262.97 256.41 263.05 255.33 263.14 254.24 Z" />
<path fill="#818181" opacity="1.00" d=" M 70.10 259.56 C 73.42 258.81 77.78 257.62 80.41 260.52 C 82.11 263.93 81.26 267.94 81.53 271.62 C 80.07 271.40 78.61 271.18 77.15 270.96 C 74.53 271.81 71.81 271.65 69.33 270.46 C 69.34 268.50 68.59 265.90 70.62 264.64 C 72.76 263.38 75.33 263.24 77.69 262.61 C 75.59 260.97 72.99 261.59 70.62 262.04 C 70.45 261.21 70.28 260.38 70.10 259.56 M 72.46 266.96 C 73.47 267.99 74.88 269.63 76.45 268.47 C 76.78 267.66 77.45 266.05 77.79 265.25 C 75.98 265.73 74.21 266.32 72.46 266.96 Z" />
<path fill="#818181" opacity="1.00" d=" M 128.50 271.41 C 128.52 267.09 128.46 262.77 128.51 258.46 C 129.86 258.97 131.26 259.37 132.67 259.72 C 134.47 259.31 136.25 258.81 138.06 258.44 C 138.54 258.94 139.51 259.94 139.99 260.44 C 142.55 258.96 146.43 257.43 148.46 260.53 C 150.07 263.86 149.17 267.77 149.43 271.35 C 148.03 271.39 146.63 271.43 145.24 271.48 C 145.24 268.26 145.15 265.03 144.82 261.83 C 143.70 262.01 142.59 262.24 141.50 262.51 C 140.77 265.40 141.14 268.42 141.09 271.38 C 139.67 271.39 138.25 271.41 136.83 271.44 C 136.81 268.48 137.05 265.49 136.47 262.57 C 135.29 261.85 133.92 262.29 132.65 262.38 C 132.65 265.40 132.65 268.43 132.64 271.46 C 131.26 271.44 129.88 271.42 128.50 271.41 Z" />
</g>
<g id="#828282ff">
<path fill="#828282" opacity="1.00" d=" M 230.34 254.16 C 232.04 254.19 233.74 254.23 235.45 254.27 C 237.91 258.13 240.29 262.04 242.40 266.10 C 242.26 262.12 242.20 258.14 242.22 254.17 C 243.53 254.21 244.85 254.26 246.17 254.31 C 246.09 260.02 246.13 265.73 246.14 271.43 C 244.61 271.43 243.10 271.42 241.58 271.41 C 238.98 267.30 236.41 263.15 234.26 258.77 C 234.30 263.00 234.29 267.22 234.31 271.45 C 232.96 271.44 231.62 271.43 230.28 271.43 C 230.33 265.67 230.30 259.91 230.34 254.16 Z" />
<path fill="#828282" opacity="1.00" d=" M 279.63 254.32 C 283.89 254.26 288.52 253.46 292.47 255.51 C 298.06 258.24 297.62 267.54 292.11 270.11 C 288.26 272.08 283.78 271.51 279.62 271.48 C 279.62 265.76 279.62 260.04 279.63 254.32 M 283.84 256.98 C 283.84 260.91 283.85 264.83 283.87 268.75 C 286.29 268.21 289.64 268.55 291.01 266.00 C 292.50 263.65 291.46 260.85 290.95 258.37 C 288.62 257.70 286.24 257.27 283.84 256.98 Z" />
<path fill="#828282" opacity="1.00" d=" M 303.37 254.23 C 305.25 254.24 307.13 254.24 309.02 254.26 C 310.94 260.01 312.87 265.76 314.96 271.45 C 313.35 271.43 311.74 271.42 310.13 271.41 C 309.73 269.99 309.29 268.58 308.88 267.16 C 306.99 267.19 305.10 267.17 303.22 267.22 C 302.83 268.62 302.48 270.03 302.11 271.44 C 300.57 271.43 299.04 271.42 297.51 271.42 C 299.46 265.69 301.44 259.97 303.37 254.23 M 304.01 264.17 C 305.33 264.16 306.66 264.15 307.99 264.14 C 307.39 261.90 306.76 259.66 306.11 257.43 C 305.37 259.67 304.67 261.91 304.01 264.17 Z" />
<path fill="#828282" opacity="1.00" d=" M 89.77 258.66 C 91.30 258.97 92.82 259.28 94.35 259.60 C 96.14 259.20 97.95 258.86 99.76 258.54 C 100.21 259.03 101.11 260.00 101.55 260.49 C 103.96 258.94 107.64 257.48 109.75 260.30 C 111.61 263.65 110.59 267.77 110.82 271.46 C 109.41 271.43 108.01 271.42 106.60 271.40 C 106.14 268.28 107.96 263.85 104.98 261.70 C 100.63 262.67 103.04 268.31 102.45 271.41 C 101.04 271.40 99.64 271.39 98.23 271.38 C 98.19 268.40 98.61 265.33 97.76 262.44 C 96.64 262.19 95.51 262.10 94.37 262.16 C 94.23 265.24 94.20 268.33 94.19 271.43 C 92.74 271.41 91.30 271.40 89.85 271.38 C 89.92 267.14 89.89 262.90 89.77 258.66 Z" />
<path fill="#828282" opacity="1.00" d=" M 170.99 259.86 C 173.56 258.17 177.38 258.02 179.66 260.29 C 181.28 261.86 181.18 264.32 181.70 266.36 C 178.33 266.40 174.96 266.41 171.62 266.78 C 174.09 268.78 177.23 268.91 180.27 268.57 C 180.34 269.24 180.49 270.57 180.56 271.23 C 177.27 271.51 173.58 272.33 170.64 270.34 C 167.27 267.88 167.65 262.18 170.99 259.86 M 171.67 263.48 C 173.71 263.66 175.75 263.65 177.79 263.74 C 177.39 263.06 176.60 261.70 176.20 261.01 C 174.56 261.55 172.98 262.34 171.67 263.48 Z" />
<path fill="#828282" opacity="1.00" d=" M 183.68 258.85 C 184.59 258.86 186.42 258.89 187.34 258.90 C 187.29 259.37 187.18 260.29 187.13 260.75 C 188.72 259.74 190.50 259.10 192.14 258.18 C 192.16 259.13 192.20 261.05 192.21 262.01 C 190.90 262.61 188.77 262.36 188.21 264.02 C 187.69 266.45 187.89 268.95 187.85 271.42 C 186.44 271.42 185.05 271.42 183.65 271.43 C 183.72 267.23 183.73 263.04 183.68 258.85 Z" />
<path fill="#828282" opacity="1.00" d=" M 202.35 259.42 C 206.66 257.14 213.31 259.64 213.20 265.04 C 213.48 271.48 204.36 273.87 200.39 269.58 C 197.51 266.68 198.53 260.95 202.35 259.42 M 204.25 262.25 C 202.18 264.26 203.10 269.69 206.71 268.74 C 210.87 267.55 208.06 258.96 204.25 262.25 Z" />
</g>
<g id="#fdfdfdff">
<path fill="#fdfdfd" opacity="1.00" d=" M 283.84 256.98 C 286.24 257.27 288.62 257.70 290.95 258.37 C 291.46 260.85 292.50 263.65 291.01 266.00 C 289.64 268.55 286.29 268.21 283.87 268.75 C 283.85 264.83 283.84 260.91 283.84 256.98 Z" />
<path fill="#fdfdfd" opacity="1.00" d=" M 171.67 263.48 C 172.98 262.34 174.56 261.55 176.20 261.01 C 176.60 261.70 177.39 263.06 177.79 263.74 C 175.75 263.65 173.71 263.66 171.67 263.48 Z" />
<path fill="#fdfdfd" opacity="1.00" d=" M 204.25 262.25 C 208.06 258.96 210.87 267.55 206.71 268.74 C 203.10 269.69 202.18 264.26 204.25 262.25 Z" />
<path fill="#fdfdfd" opacity="1.00" d=" M 72.46 266.96 C 74.21 266.32 75.98 265.73 77.79 265.25 C 77.45 266.05 76.78 267.66 76.45 268.47 C 74.88 269.63 73.47 267.99 72.46 266.96 Z" />
</g>
<g id="#fcfcfcff">
<path fill="#fcfcfc" opacity="1.00" d=" M 304.01 264.17 C 304.67 261.91 305.37 259.67 306.11 257.43 C 306.76 259.66 307.39 261.90 307.99 264.14 C 306.66 264.15 305.33 264.16 304.01 264.17 Z" />
<path fill="#fcfcfc" opacity="1.00" d=" M 116.48 263.42 C 117.80 262.23 119.38 261.43 121.10 260.99 C 121.43 261.72 122.11 263.17 122.44 263.89 C 120.45 263.74 118.46 263.65 116.48 263.42 Z" />
<path fill="#fcfcfc" opacity="1.00" d=" M 156.60 263.03 C 157.26 262.58 158.58 261.67 159.23 261.22 C 160.45 262.27 162.61 263.10 162.32 265.08 C 162.71 267.47 160.00 269.51 157.83 268.33 C 156.49 266.89 156.82 264.82 156.60 263.03 Z" />
</g>
<g id="#808080ff">
<path fill="#808080" opacity="1.00" d=" M 113.70 268.25 C 111.10 263.13 116.63 256.84 122.05 258.91 C 125.61 259.52 126.09 263.46 126.49 266.37 C 123.18 266.39 119.87 266.38 116.57 266.67 C 118.86 269.03 122.14 268.80 125.16 268.55 C 125.24 269.22 125.41 270.57 125.50 271.25 C 121.51 271.60 115.86 272.65 113.70 268.25 M 116.48 263.42 C 118.46 263.65 120.45 263.74 122.44 263.89 C 122.11 263.17 121.43 261.72 121.10 260.99 C 119.38 261.43 117.80 262.23 116.48 263.42 Z" />
</g>
<g id="#f5f5f5ff">
</g>
<g id="#e9e9e9ff">
<path fill="#e9e9e9" opacity="1.00" d=" M 0.00 347.90 C 11.66 347.01 23.35 347.63 35.03 347.46 C 185.70 347.46 336.38 347.45 487.05 347.46 C 534.70 347.33 582.36 347.70 630.00 347.27 L 630.00 354.00 L 0.00 354.00 L 0.00 347.90 Z" />
</g>
</svg>
