<?xml version="1.0" encoding="UTF-8" ?>
<!DOCTYPE svg PUBLIC "-//W3C//DTD SVG 1.1//EN" "http://www.w3.org/Graphics/SVG/1.1/DTD/svg11.dtd">
<svg width="300pt" height="300pt" viewBox="0 0 300 300" version="1.1" xmlns="http://www.w3.org/2000/svg">
<g id="#ffffffff">
<path fill="#ffffff" opacity="1.00" d=" M 283.18 7.78 C 285.95 12.47 286.81 18.25 285.47 23.52 C 284.72 26.44 282.24 28.22 279.87 29.79 C 281.99 36.70 277.36 44.90 269.86 45.33 C 271.72 52.80 271.55 61.92 265.20 67.27 C 260.43 71.95 253.40 71.57 247.26 72.11 C 244.92 73.60 245.89 76.92 246.16 79.20 C 248.71 86.94 252.22 94.68 251.99 103.01 C 252.00 114.02 246.71 124.82 237.81 131.36 C 233.28 134.93 227.85 137.64 222.05 138.13 C 218.71 138.10 215.55 136.85 212.37 136.01 C 213.14 134.46 213.93 132.91 214.67 131.34 C 209.78 132.85 209.03 138.38 208.41 142.71 C 213.51 140.90 219.17 141.17 223.80 144.08 C 225.08 137.85 231.71 134.55 237.68 135.71 C 238.37 134.87 239.07 134.02 239.82 133.22 C 245.07 128.39 251.97 134.67 257.83 131.75 C 255.99 135.77 253.26 139.51 249.18 141.48 C 249.11 141.99 248.96 143.02 248.88 143.54 C 246.82 146.83 243.45 149.03 239.62 149.67 C 239.13 153.22 240.04 157.15 238.47 160.62 C 235.65 167.52 226.93 170.36 220.13 168.08 C 219.13 172.65 219.17 177.35 218.95 182.00 C 217.46 202.97 206.07 221.86 191.74 236.70 C 180.52 248.01 167.14 257.10 152.70 263.79 C 130.89 273.60 107.44 279.45 83.77 282.54 C 66.26 284.69 48.55 284.64 30.94 283.88 C 22.67 283.08 14.17 283.53 6.30 280.38 C 23.50 274.16 42.03 272.02 58.98 264.92 C 73.48 259.10 86.59 248.60 93.20 234.19 C 96.11 227.94 97.26 220.32 93.88 214.02 C 93.42 213.22 92.93 212.44 92.45 211.65 C 92.57 214.82 92.64 218.01 92.17 221.16 C 90.90 229.57 84.72 236.96 76.82 240.01 C 71.17 242.48 64.89 242.35 58.86 241.95 C 44.26 239.82 32.04 228.58 27.15 214.87 C 21.59 199.21 22.30 181.39 29.02 166.19 C 30.24 163.66 31.51 161.15 32.86 158.68 C 42.47 142.07 59.20 129.74 78.03 125.83 C 89.17 123.08 100.72 123.99 112.06 122.96 C 116.85 121.98 118.17 116.20 117.69 112.01 C 117.20 104.64 122.43 96.93 129.97 95.89 C 134.31 94.65 138.67 96.34 143.04 95.92 C 143.45 92.67 144.37 89.21 147.11 87.14 C 149.78 84.74 153.78 85.53 156.64 83.53 C 157.78 82.15 158.61 80.56 159.58 79.06 C 160.61 81.04 161.53 83.07 162.15 85.21 C 168.59 79.35 177.22 75.45 186.05 76.01 C 190.05 75.87 193.94 76.94 197.92 77.17 C 196.82 70.51 199.82 62.46 206.87 60.60 C 206.47 54.45 213.63 52.82 215.13 47.69 C 215.58 48.92 216.17 50.13 217.17 51.01 C 217.47 50.61 218.08 49.80 218.38 49.40 C 224.51 41.27 236.41 39.68 245.72 42.18 C 246.69 42.41 247.66 42.65 248.63 42.89 C 248.74 40.82 248.83 38.75 248.90 36.68 L 248.93 35.73 C 250.31 33.52 251.89 31.26 254.42 30.26 C 257.82 28.31 261.84 29.10 265.57 28.98 C 265.83 26.24 265.97 23.17 268.24 21.24 C 271.16 17.80 276.39 19.61 279.70 16.77 C 281.97 14.35 283.11 11.08 283.18 7.78 M 279.05 22.12 C 276.62 23.73 272.79 22.32 270.87 24.88 C 269.71 27.25 270.41 30.43 268.30 32.31 C 264.46 35.35 258.70 31.50 255.01 35.05 C 252.17 37.17 252.91 40.95 252.76 44.02 C 253.08 46.45 250.26 48.23 248.11 47.27 C 240.71 45.25 232.36 44.64 225.44 48.48 C 218.98 52.09 215.87 59.84 216.30 66.99 C 216.43 70.46 218.02 73.63 218.59 77.02 C 218.52 79.98 216.46 82.44 214.27 84.24 C 214.67 82.19 215.60 80.09 214.96 77.99 C 214.12 75.15 211.68 73.22 210.24 70.70 C 209.48 67.86 213.71 66.77 213.42 63.93 C 213.47 61.53 213.16 59.14 213.01 56.75 C 211.52 58.79 211.33 61.37 210.52 63.69 C 208.88 65.14 206.29 65.07 204.80 66.77 C 202.93 69.03 201.87 72.01 202.26 74.96 C 202.34 77.21 203.16 80.87 200.07 81.46 C 195.01 81.93 190.04 80.29 184.98 80.43 C 175.31 80.24 166.15 85.73 160.68 93.51 C 157.25 98.34 155.56 104.17 154.92 110.00 C 154.46 114.88 156.16 120.06 160.18 123.05 C 161.66 122.55 163.55 121.62 164.60 123.40 C 169.10 129.19 166.26 137.65 161.36 142.28 C 155.34 148.39 146.13 148.88 138.07 148.51 C 134.64 148.15 130.83 148.47 127.81 146.54 C 139.15 147.45 146.55 133.58 142.10 123.94 C 140.73 119.83 137.10 115.95 138.37 111.38 C 139.81 108.59 143.39 108.89 145.99 108.07 C 148.75 107.68 151.33 106.05 152.43 103.42 C 154.70 100.00 151.03 95.79 153.24 92.41 C 155.06 90.87 157.05 89.47 158.29 87.38 C 155.36 89.06 151.96 89.54 148.91 90.92 C 147.29 93.97 148.71 98.44 145.68 100.60 C 140.47 101.44 135.22 98.76 130.06 100.38 C 126.92 101.02 124.38 103.37 123.14 106.27 C 120.78 111.25 123.45 117.29 120.12 121.97 C 118.15 126.12 113.36 127.68 109.07 127.80 C 97.33 128.32 85.30 127.75 73.97 131.47 C 50.35 138.14 32.01 159.67 28.51 183.87 C 26.93 193.24 28.05 202.92 30.83 211.95 C 34.58 223.08 43.35 232.86 54.78 236.27 C 62.20 238.66 70.60 238.22 77.55 234.60 C 85.09 230.50 89.28 221.41 87.96 213.00 C 87.50 210.63 86.86 208.02 84.75 206.57 C 84.39 206.14 83.68 205.27 83.32 204.83 C 87.42 203.97 91.86 205.13 94.60 208.40 C 100.77 215.32 100.60 225.71 97.56 233.98 C 92.36 247.39 81.79 258.44 69.00 264.88 C 53.24 272.91 35.56 275.58 18.53 279.61 C 22.93 280.75 27.39 278.71 31.79 279.96 C 46.19 280.68 60.63 279.66 74.97 278.39 C 90.89 277.51 106.62 274.20 121.98 270.00 C 143.65 264.10 164.72 254.65 181.73 239.74 C 196.75 226.56 209.35 209.38 213.30 189.46 C 214.79 182.70 214.65 175.75 215.24 168.89 C 215.42 166.71 216.72 164.30 219.05 163.89 C 222.50 163.48 226.18 165.17 229.45 163.41 C 232.82 162.07 235.16 158.63 235.03 154.97 C 235.22 152.12 234.31 149.05 235.49 146.35 C 237.11 143.92 240.59 145.42 242.65 143.70 C 244.86 142.47 244.87 139.76 245.69 137.67 C 247.15 136.86 248.73 136.28 250.25 135.59 C 247.90 135.61 245.40 135.06 243.16 135.99 C 241.90 137.46 241.33 139.61 239.50 140.51 C 236.67 140.78 233.49 138.93 231.03 141.03 C 227.29 142.69 229.50 148.77 224.97 149.41 C 221.02 148.51 217.58 145.07 213.21 146.23 C 209.02 146.43 206.46 150.00 204.18 153.05 C 204.36 145.96 202.86 138.16 206.75 131.76 C 208.83 128.03 213.56 126.17 217.64 127.38 C 219.89 128.63 219.58 131.24 218.87 133.32 C 226.25 134.25 232.91 129.88 238.04 125.04 C 242.98 120.65 245.94 114.40 246.91 107.91 C 248.45 99.70 245.82 91.52 242.93 83.92 C 241.31 79.34 239.66 73.42 243.36 69.38 C 247.02 65.92 252.50 67.91 256.93 66.59 C 263.26 65.20 267.26 58.39 266.24 52.13 C 266.36 48.66 263.97 44.57 266.64 41.59 C 269.48 40.72 273.01 40.54 274.60 37.60 C 277.14 34.75 274.90 31.15 274.74 27.94 C 275.77 25.55 278.96 25.51 280.42 23.50 C 281.17 22.07 281.41 20.45 281.85 18.91 C 280.94 20.00 280.07 21.14 279.05 22.12 M 142.40 113.54 C 144.22 117.66 146.61 121.59 147.58 126.04 C 149.24 132.37 146.83 139.05 143.11 144.18 C 147.02 143.65 151.18 143.63 154.72 141.65 C 159.43 139.23 162.67 134.15 162.43 128.79 C 154.85 126.77 150.02 119.25 150.32 111.56 C 147.76 112.53 145.07 113.02 142.40 113.54 Z" />
</g>
<g id="#717171ff">
<path fill="#717171" opacity="1.00" d=" M 279.05 22.12 C 280.07 21.14 280.94 20.00 281.85 18.91 C 281.41 20.45 281.17 22.07 280.42 23.50 C 278.96 25.51 275.77 25.55 274.74 27.94 C 274.90 31.15 277.14 34.75 274.60 37.60 C 273.01 40.54 269.48 40.72 266.64 41.59 C 263.97 44.57 266.36 48.66 266.24 52.13 C 267.26 58.39 263.26 65.20 256.93 66.59 C 252.50 67.91 247.02 65.92 243.36 69.38 C 239.66 73.42 241.31 79.34 242.93 83.92 C 245.82 91.52 248.45 99.70 246.91 107.91 C 245.94 114.40 242.98 120.65 238.04 125.04 C 232.91 129.88 226.25 134.25 218.87 133.32 C 219.58 131.24 219.89 128.63 217.64 127.38 C 213.56 126.17 208.83 128.03 206.75 131.76 C 202.86 138.16 204.36 145.96 204.18 153.05 C 206.46 150.00 209.02 146.43 213.21 146.23 C 217.58 145.07 221.02 148.51 224.97 149.41 C 229.50 148.77 227.29 142.69 231.03 141.03 C 233.49 138.93 236.67 140.78 239.50 140.51 C 241.33 139.61 241.90 137.46 243.16 135.99 C 245.40 135.06 247.90 135.61 250.25 135.59 C 248.73 136.28 247.15 136.86 245.69 137.67 C 244.87 139.76 244.86 142.47 242.65 143.70 C 240.59 145.42 237.11 143.92 235.49 146.35 C 234.31 149.05 235.22 152.12 235.03 154.97 C 235.16 158.63 232.82 162.07 229.45 163.41 C 226.18 165.17 222.50 163.48 219.05 163.89 C 216.72 164.30 215.42 166.71 215.24 168.89 C 214.65 175.75 214.79 182.70 213.30 189.46 C 209.35 209.38 196.75 226.56 181.73 239.74 C 164.72 254.65 143.65 264.10 121.98 270.00 C 106.62 274.20 90.89 277.51 74.97 278.39 C 77.12 276.99 79.63 276.48 82.12 276.12 C 102.48 272.66 122.64 264.26 137.01 249.02 C 158.67 227.97 162.27 190.99 144.70 166.35 C 134.56 152.46 118.08 143.75 101.05 142.19 C 86.53 140.67 71.37 144.70 59.92 153.86 C 48.19 163.10 39.68 176.97 38.44 192.01 C 37.57 203.23 40.94 214.99 48.58 223.39 C 53.51 228.72 60.71 232.37 68.09 231.69 C 74.05 231.36 80.13 228.57 83.23 223.29 C 86.39 218.32 86.03 212.08 84.75 206.57 C 86.86 208.02 87.50 210.63 87.96 213.00 C 89.28 221.41 85.09 230.50 77.55 234.60 C 70.60 238.22 62.20 238.66 54.78 236.27 C 43.35 232.86 34.58 223.08 30.83 211.95 C 28.05 202.92 26.93 193.24 28.51 183.87 C 32.01 159.67 50.35 138.14 73.97 131.47 C 85.30 127.75 97.33 128.32 109.07 127.80 C 113.36 127.68 118.15 126.12 120.12 121.97 C 123.45 117.29 120.78 111.25 123.14 106.27 C 124.38 103.37 126.92 101.02 130.06 100.38 C 135.22 98.76 140.47 101.44 145.68 100.60 C 148.71 98.44 147.29 93.97 148.91 90.92 C 151.96 89.54 155.36 89.06 158.29 87.38 C 157.05 89.47 155.06 90.87 153.24 92.41 C 151.03 95.79 154.70 100.00 152.43 103.42 C 151.33 106.05 148.75 107.68 145.99 108.07 C 143.39 108.89 139.81 108.59 138.37 111.38 C 137.10 115.95 140.73 119.83 142.10 123.94 C 146.55 133.58 139.15 147.45 127.81 146.54 C 130.83 148.47 134.64 148.15 138.07 148.51 C 146.13 148.88 155.34 148.39 161.36 142.28 C 166.26 137.65 169.10 129.19 164.60 123.40 C 163.55 121.62 161.66 122.55 160.18 123.05 C 156.16 120.06 154.46 114.88 154.92 110.00 C 155.56 104.17 157.25 98.34 160.68 93.51 C 166.15 85.73 175.31 80.24 184.98 80.43 C 190.04 80.29 195.01 81.93 200.07 81.46 C 203.16 80.87 202.34 77.21 202.26 74.96 C 201.87 72.01 202.93 69.03 204.80 66.77 C 206.29 65.07 208.88 65.14 210.52 63.69 C 211.33 61.37 211.52 58.79 213.01 56.75 C 213.16 59.14 213.47 61.53 213.42 63.93 C 213.71 66.77 209.48 67.86 210.24 70.70 C 211.68 73.22 214.12 75.15 214.96 77.99 C 215.60 80.09 214.67 82.19 214.27 84.24 C 216.46 82.44 218.52 79.98 218.59 77.02 C 218.02 73.63 216.43 70.46 216.30 66.99 C 215.87 59.84 218.98 52.09 225.44 48.48 C 232.36 44.64 240.71 45.25 248.11 47.27 C 250.26 48.23 253.08 46.45 252.76 44.02 C 252.91 40.95 252.17 37.17 255.01 35.05 C 258.70 31.50 264.46 35.35 268.30 32.31 C 270.41 30.43 269.71 27.25 270.87 24.88 C 272.79 22.32 276.62 23.73 279.05 22.12 Z" />
<path fill="#717171" opacity="1.00" d=" M 247.69 41.88 C 247.99 40.12 248.36 38.38 248.90 36.68 C 248.83 38.75 248.74 40.82 248.63 42.89 C 247.66 42.65 246.69 42.41 245.72 42.18 C 246.21 42.10 247.20 41.95 247.69 41.88 Z" />
<path fill="#717171" opacity="1.00" d=" M 215.13 47.69 C 215.46 45.76 218.10 48.43 218.38 49.40 C 218.08 49.80 217.47 50.61 217.17 51.01 C 216.17 50.13 215.58 48.92 215.13 47.69 Z" />
<path fill="#717171" opacity="1.00" d=" M 92.45 211.65 C 92.93 212.44 93.42 213.22 93.88 214.02 C 93.16 216.36 92.70 218.77 92.17 221.16 C 92.64 218.01 92.57 214.82 92.45 211.65 Z" />
</g>
<g id="#242424ff">
<path fill="#242424" opacity="1.00" d=" M 142.40 113.54 C 145.07 113.02 147.76 112.53 150.32 111.56 C 150.02 119.25 154.85 126.77 162.43 128.79 C 162.67 134.15 159.43 139.23 154.72 141.65 C 151.18 143.63 147.02 143.65 143.11 144.18 C 146.83 139.05 149.24 132.37 147.58 126.04 C 146.61 121.59 144.22 117.66 142.40 113.54 Z" />
<path fill="#242424" opacity="1.00" d=" M 208.41 142.71 C 209.03 138.38 209.78 132.85 214.67 131.34 C 213.93 132.91 213.14 134.46 212.37 136.01 C 215.55 136.85 218.71 138.10 222.05 138.13 C 227.85 137.64 233.28 134.93 237.81 131.36 C 237.46 132.29 237.11 133.23 236.78 134.17 C 237.79 133.86 238.81 133.54 239.82 133.22 C 239.07 134.02 238.37 134.87 237.68 135.71 C 231.71 134.55 225.08 137.85 223.80 144.08 C 219.17 141.17 213.51 140.90 208.41 142.71 Z" />
<path fill="#242424" opacity="1.00" d=" M 59.92 153.86 C 71.37 144.70 86.53 140.67 101.05 142.19 C 118.08 143.75 134.56 152.46 144.70 166.35 C 162.27 190.99 158.67 227.97 137.01 249.02 C 122.64 264.26 102.48 272.66 82.12 276.12 C 79.63 276.48 77.12 276.99 74.97 278.39 C 60.63 279.66 46.19 280.68 31.79 279.96 C 27.39 278.71 22.93 280.75 18.53 279.61 C 35.56 275.58 53.24 272.91 69.00 264.88 C 81.79 258.44 92.36 247.39 97.56 233.98 C 100.60 225.71 100.77 215.32 94.60 208.40 C 91.86 205.13 87.42 203.97 83.32 204.83 C 83.68 205.27 84.39 206.14 84.75 206.57 C 86.03 212.08 86.39 218.32 83.23 223.29 C 80.13 228.57 74.05 231.36 68.09 231.69 C 60.71 232.37 53.51 228.72 48.58 223.39 C 40.94 214.99 37.57 203.23 38.44 192.01 C 39.68 176.97 48.19 163.10 59.92 153.86 M 66.48 166.46 C 57.34 174.25 50.79 185.82 50.97 198.05 C 50.77 206.56 54.02 215.62 60.98 220.85 C 65.57 224.37 71.93 225.19 77.33 223.21 C 82.81 220.95 85.46 213.91 83.36 208.49 C 81.54 204.13 74.73 203.03 71.87 206.88 C 70.36 208.61 70.87 211.08 70.66 213.19 C 65.02 208.81 67.22 200.07 71.49 195.50 C 80.54 185.94 97.64 185.82 106.94 195.15 C 114.77 202.70 117.56 214.61 114.99 225.05 C 111.41 240.62 100.53 253.96 86.79 261.85 C 70.08 271.67 50.66 274.91 31.82 278.10 C 31.29 278.37 30.24 278.90 29.71 279.16 C 37.90 279.17 46.03 278.11 54.16 277.20 C 70.73 275.04 87.55 272.04 102.60 264.46 C 112.63 259.45 121.20 251.94 128.47 243.49 C 138.76 230.78 142.97 213.59 140.74 197.49 C 139.30 186.64 134.26 176.20 126.07 168.86 C 110.20 154.08 83.35 152.50 66.48 166.46 Z" />
<path fill="#242424" opacity="1.00" d=" M 29.02 166.19 C 29.92 163.52 31.13 160.93 32.86 158.68 C 31.51 161.15 30.24 163.66 29.02 166.19 Z" />
</g>
<g id="#dededeff">
<path fill="#dedede" opacity="1.00" d=" M 66.48 166.46 C 83.35 152.50 110.20 154.08 126.07 168.86 C 134.26 176.20 139.30 186.64 140.74 197.49 C 142.97 213.59 138.76 230.78 128.47 243.49 C 121.20 251.94 112.63 259.45 102.60 264.46 C 87.55 272.04 70.73 275.04 54.16 277.20 C 46.03 278.11 37.90 279.17 29.71 279.16 C 30.24 278.90 31.29 278.37 31.82 278.10 C 50.66 274.91 70.08 271.67 86.79 261.85 C 100.53 253.96 111.41 240.62 114.99 225.05 C 117.56 214.61 114.77 202.70 106.94 195.15 C 97.64 185.82 80.54 185.94 71.49 195.50 C 67.22 200.07 65.02 208.81 70.66 213.19 C 70.87 211.08 70.36 208.61 71.87 206.88 C 74.73 203.03 81.54 204.13 83.36 208.49 C 85.46 213.91 82.81 220.95 77.33 223.21 C 71.93 225.19 65.57 224.37 60.98 220.85 C 54.02 215.62 50.77 206.56 50.97 198.05 C 50.79 185.82 57.34 174.25 66.48 166.46 Z" />
</g>
</svg>
